{
DisplayStrings = (
/uniE000,
/uniE000
);
customParameters = (
{
name = glyphOrder;
value = (
    ".notdef",
    uni0000,
    uni000D,
    uniE000,
    uniE001,
    uniE002,
    uniE003,
    uniE004,
    uniE016,
    uniE017,
    uniE018,
    uniE019,
    uniE01A,
    uniE02C,
    uniE02D,
    uniE02E,
    uniE02F,
    uniE030,
    uniE005,
    uniE006,
    uniE007,
    uniE008,
    uniE009,
    uniE00A,
    uniE00B,
    uniE00C,
    uniE00D,
    uniE00E,
    uniE00F,
    uniE010,
    uniE011,
    uniE012,
    uniE013,
    uniE015,
    uniE01B,
    uniE01C,
    uniE01D,
    uniE01E,
    uniE01F,
    uniE020,
    uniE021,
    uniE023,
    uniE024,
    uniE025,
    uniE026,
    uniE027,
    uniE028,
    uniE029,
    uniE02A,
    uniE031,
    uniE014,
    uniE02B,
    uniE032,
    uniE033,
    uniE034,
    uniE035,
    uniE022,
    uniE036,
    uniE037,
    uniE038,
    uniE039,
    uniE03B,
    uniE03C,
    uniE03D,
    uniE03E,
    uniE03A,
    uniE03F,
    uniE040,
    uniE041,
    uniE042,
    uniE043,
    uniE044,
    uniE045,
    uniE046,
    uniE047,
    uniE048,
    uniE049,
    uniE04A,
    uniE04C,
    uniE04D,
    uniE04E,
    uniE04B,
    uniE04F,
    uniE050,
    uniE051,
    uniE052,
    uniE053,
    uniF000
);}
);
date = "2013-11-27 09:26:01 +0000";
familyName = "Flat-UI-Icons";
fontMaster = (
{
ascender = 480;
capHeight = 700;
customParameters = (
{
name = TypoAscender;
value = 480;
},
{
name = TypoDescender;
value = "-32";
}
);
descender = "-32";
id = "EEF2BC8D-D964-4B49-BEB0-D3787712A5FD";
weightValue = 400;
widthValue = 5;
xHeight = 500;
}
);
glyphs = (
{
glyphname = uniE000;
lastChange = "2013-11-27 15:01:34 +0530";
layers = (
{
backgroundImage = {
imagePath = "../../../Pictures/botanicula-wallpaper-01-1600x1200-normal (1).jpg";
transform = "{1, 0, 0, 1, 0, 0}";
};
layerId = "EEF2BC8D-D964-4B49-BEB0-D3787712A5FD";
name = Regular;
paths = (
{
closed = 1;
nodes = (
"448 128 LINE",
"256 384 LINE",
"64 128 LINE"
);
}
);
width = 512;
}
);
unicode = E000;
},
{
glyphname = uniE001;
layers = (
{
layerId = "EEF2BC8D-D964-4B49-BEB0-D3787712A5FD";
name = Regular;
paths = (
{
closed = 1;
nodes = (
"448 96 LINE",
"64 96 LINE",
"256 288 LINE"
);
}
);
width = 512;
}
);
unicode = E001;
},
{
glyphname = uniE002;
layers = (
{
layerId = "EEF2BC8D-D964-4B49-BEB0-D3787712A5FD";
name = Regular;
paths = (
{
closed = 1;
nodes = (
"64 416 LINE",
"448 192 LINE",
"64 -32 LINE"
);
}
);
width = 512;
}
);
unicode = E002;
},
{
glyphname = uniE003;
layers = (
{
layerId = "EEF2BC8D-D964-4B49-BEB0-D3787712A5FD";
name = Regular;
paths = (
{
closed = 1;
nodes = (
"448 -32 LINE",
"64 192 LINE",
"448 416 LINE"
);
}
);
width = 512;
}
);
unicode = E003;
},
{
glyphname = uniE004;
layers = (
{
layerId = "EEF2BC8D-D964-4B49-BEB0-D3787712A5FD";
name = Regular;
paths = (
{
closed = 1;
nodes = (
"64 320 LINE",
"256 64 LINE",
"448 320 LINE"
);
}
);
width = 512;
}
);
unicode = E004;
},
{
glyphname = uniE016;
layers = (
{
layerId = "EEF2BC8D-D964-4B49-BEB0-D3787712A5FD";
name = Regular;
paths = (
{
closed = 1;
nodes = (
"387 455 OFFCURVE",
"327 480 OFFCURVE",
"256 480 CURVE SMOOTH",
"185 480 OFFCURVE",
"125 455 OFFCURVE",
"75 405 CURVE SMOOTH",
"25 355 OFFCURVE",
"0 295 OFFCURVE",
"0 224 CURVE SMOOTH",
"0 153 OFFCURVE",
"25 93 OFFCURVE",
"75 43 CURVE SMOOTH",
"125 -7 OFFCURVE",
"185 -32 OFFCURVE",
"256 -32 CURVE SMOOTH",
"327 -32 OFFCURVE",
"387 -7 OFFCURVE",
"437 43 CURVE SMOOTH",
"487 93 OFFCURVE",
"512 153 OFFCURVE",
"512 224 CURVE SMOOTH",
"512 295 OFFCURVE",
"487 355 OFFCURVE",
"437 405 CURVE SMOOTH"
);
},
{
closed = 1;
nodes = (
"288 98 LINE SMOOTH",
"288 89 OFFCURVE",
"285 81 OFFCURVE",
"279 74 CURVE",
"272 67 OFFCURVE",
"265 64 OFFCURVE",
"256 64 CURVE SMOOTH",
"247 64 OFFCURVE",
"240 67 OFFCURVE",
"234 74 CURVE",
"227 81 OFFCURVE",
"224 89 OFFCURVE",
"224 98 CURVE SMOOTH",
"224 254 LINE SMOOTH",
"224 263 OFFCURVE",
"227 271 OFFCURVE",
"234 278 CURVE",
"240 285 OFFCURVE",
"247 288 OFFCURVE",
"256 288 CURVE SMOOTH",
"265 288 OFFCURVE",
"272 285 OFFCURVE",
"279 278 CURVE",
"285 271 OFFCURVE",
"288 263 OFFCURVE",
"288 254 CURVE SMOOTH"
);
},
{
closed = 1;
nodes = (
"272 323 OFFCURVE",
"265 320 OFFCURVE",
"256 320 CURVE SMOOTH",
"247 320 OFFCURVE",
"240 323 OFFCURVE",
"234 330 CURVE",
"227 336 OFFCURVE",
"224 343 OFFCURVE",
"224 352 CURVE SMOOTH",
"224 361 OFFCURVE",
"227 368 OFFCURVE",
"234 375 CURVE SMOOTH",
"240 381 OFFCURVE",
"247 384 OFFCURVE",
"256 384 CURVE SMOOTH",
"265 384 OFFCURVE",
"272 381 OFFCURVE",
"279 375 CURVE",
"285 368 OFFCURVE",
"288 361 OFFCURVE",
"288 352 CURVE SMOOTH",
"288 343 OFFCURVE",
"285 336 OFFCURVE",
"279 330 CURVE SMOOTH"
);
}
);
width = 512;
}
);
unicode = E016;
},
{
glyphname = uniE017;
layers = (
{
layerId = "EEF2BC8D-D964-4B49-BEB0-D3787712A5FD";
name = Regular;
paths = (
{
closed = 1;
nodes = (
"387 455 OFFCURVE",
"327 480 OFFCURVE",
"256 480 CURVE SMOOTH",
"185 480 OFFCURVE",
"125 455 OFFCURVE",
"75 405 CURVE SMOOTH",
"25 355 OFFCURVE",
"0 295 OFFCURVE",
"0 224 CURVE SMOOTH",
"0 153 OFFCURVE",
"25 93 OFFCURVE",
"75 43 CURVE SMOOTH",
"125 -7 OFFCURVE",
"185 -32 OFFCURVE",
"256 -32 CURVE SMOOTH",
"327 -32 OFFCURVE",
"387 -7 OFFCURVE",
"437 43 CURVE SMOOTH",
"487 93 OFFCURVE",
"512 153 OFFCURVE",
"512 224 CURVE SMOOTH",
"512 295 OFFCURVE",
"487 355 OFFCURVE",
"437 405 CURVE SMOOTH"
);
},
{
closed = 1;
nodes = (
"272 67 OFFCURVE",
"265 64 OFFCURVE",
"256 64 CURVE SMOOTH",
"247 64 OFFCURVE",
"240 67 OFFCURVE",
"234 74 CURVE",
"227 80 OFFCURVE",
"224 87 OFFCURVE",
"224 96 CURVE SMOOTH",
"224 105 OFFCURVE",
"227 112 OFFCURVE",
"234 119 CURVE SMOOTH",
"240 125 OFFCURVE",
"247 128 OFFCURVE",
"256 128 CURVE SMOOTH",
"265 128 OFFCURVE",
"272 125 OFFCURVE",
"279 119 CURVE",
"285 112 OFFCURVE",
"288 105 OFFCURVE",
"288 96 CURVE SMOOTH",
"288 87 OFFCURVE",
"285 80 OFFCURVE",
"279 74 CURVE SMOOTH"
);
},
{
closed = 1;
nodes = (
"288 194 LINE SMOOTH",
"288 185 OFFCURVE",
"285 177 OFFCURVE",
"279 170 CURVE",
"272 163 OFFCURVE",
"265 160 OFFCURVE",
"256 160 CURVE SMOOTH",
"247 160 OFFCURVE",
"240 163 OFFCURVE",
"234 170 CURVE",
"227 177 OFFCURVE",
"224 185 OFFCURVE",
"224 194 CURVE SMOOTH",
"224 350 LINE SMOOTH",
"224 359 OFFCURVE",
"227 367 OFFCURVE",
"234 374 CURVE",
"240 381 OFFCURVE",
"247 384 OFFCURVE",
"256 384 CURVE SMOOTH",
"265 384 OFFCURVE",
"272 381 OFFCURVE",
"279 374 CURVE",
"285 367 OFFCURVE",
"288 359 OFFCURVE",
"288 350 CURVE SMOOTH"
);
}
);
width = 512;
}
);
unicode = E017;
},
{
glyphname = uniE018;
layers = (
{
layerId = "EEF2BC8D-D964-4B49-BEB0-D3787712A5FD";
name = Regular;
paths = (
{
closed = 1;
nodes = (
"387 -7 OFFCURVE",
"327 -32 OFFCURVE",
"256 -32 CURVE SMOOTH",
"185 -32 OFFCURVE",
"125 -7 OFFCURVE",
"75 43 CURVE SMOOTH",
"25 93 OFFCURVE",
"0 153 OFFCURVE",
"0 224 CURVE SMOOTH",
"0 295 OFFCURVE",
"25 355 OFFCURVE",
"75 405 CURVE SMOOTH",
"125 455 OFFCURVE",
"185 480 OFFCURVE",
"256 480 CURVE SMOOTH",
"327 480 OFFCURVE",
"387 455 OFFCURVE",
"437 405 CURVE SMOOTH",
"487 355 OFFCURVE",
"512 295 OFFCURVE",
"512 224 CURVE SMOOTH",
"512 153 OFFCURVE",
"487 93 OFFCURVE",
"437 43 CURVE SMOOTH"
);
},
{
closed = 1;
nodes = (
"240 67 OFFCURVE",
"247 64 OFFCURVE",
"256 64 CURVE SMOOTH",
"265 64 OFFCURVE",
"272 67 OFFCURVE",
"279 74 CURVE SMOOTH",
"285 80 OFFCURVE",
"288 87 OFFCURVE",
"288 96 CURVE SMOOTH",
"288 105 OFFCURVE",
"285 112 OFFCURVE",
"279 119 CURVE",
"272 125 OFFCURVE",
"265 128 OFFCURVE",
"256 128 CURVE SMOOTH",
"247 128 OFFCURVE",
"240 125 OFFCURVE",
"234 119 CURVE SMOOTH",
"227 112 OFFCURVE",
"224 105 OFFCURVE",
"224 96 CURVE SMOOTH",
"224 87 OFFCURVE",
"227 80 OFFCURVE",
"234 74 CURVE"
);
},
{
closed = 1;
nodes = (
"308 377 OFFCURVE",
"284 384 OFFCURVE",
"255 384 CURVE SMOOTH",
"236 384 OFFCURVE",
"217 381 OFFCURVE",
"200 374 CURVE",
"196 372 OFFCURVE",
"189 368 OFFCURVE",
"179 362 CURVE SMOOTH",
"169 356 OFFCURVE",
"163 352 OFFCURVE",
"160 349 CURVE",
"176 325 LINE",
"179 320 OFFCURVE",
"183 318 OFFCURVE",
"189 318 CURVE SMOOTH",
"192 318 OFFCURVE",
"195 319 OFFCURVE",
"198 321 CURVE SMOOTH",
"207 327 OFFCURVE",
"217 331 OFFCURVE",
"226 334 CURVE SMOOTH",
"241 339 OFFCURVE",
"255 339 OFFCURVE",
"268 335 CURVE",
"279 331 OFFCURVE",
"287 325 OFFCURVE",
"292 316 CURVE",
"298 304 OFFCURVE",
"297 291 OFFCURVE",
"290 278 CURVE",
"283 268 OFFCURVE",
"273 258 OFFCURVE",
"258 248 CURVE SMOOTH",
"251 243 OFFCURVE",
"244 239 OFFCURVE",
"239 234 CURVE",
"239 234 OFFCURVE",
"238 233 OFFCURVE",
"237 232 CURVE",
"237 232 OFFCURVE",
"237 232 OFFCURVE",
"238 233 CURVE",
"239 233 OFFCURVE",
"239 233 OFFCURVE",
"239 234 CURVE",
"240 234 OFFCURVE",
"239 232 OFFCURVE",
"237 228 CURVE",
"234 224 OFFCURVE",
"232 219 OFFCURVE",
"229 212 CURVE SMOOTH",
"226 205 OFFCURVE",
"224 198 OFFCURVE",
"224 192 CURVE SMOOTH",
"224 160 LINE",
"288 160 LINE",
"288 192 LINE SMOOTH",
"288 197 OFFCURVE",
"289 201 OFFCURVE",
"290 206 CURVE",
"291 210 OFFCURVE",
"293 213 OFFCURVE",
"294 216 CURVE SMOOTH",
"295 219 OFFCURVE",
"296 220 OFFCURVE",
"296 220 CURVE",
"315 233 OFFCURVE",
"327 243 OFFCURVE",
"333 250 CURVE SMOOTH",
"346 265 OFFCURVE",
"352 283 OFFCURVE",
"352 304 CURVE SMOOTH",
"352 328 OFFCURVE",
"343 347 OFFCURVE",
"325 362 CURVE SMOOTH"
);
}
);
width = 512;
}
);
unicode = E018;
},
{
glyphname = uniE019;
layers = (
{
layerId = "EEF2BC8D-D964-4B49-BEB0-D3787712A5FD";
name = Regular;
paths = (
{
closed = 1;
nodes = (
"64 480 LINE SMOOTH",
"47 480 OFFCURVE",
"32 474 OFFCURVE",
"19 461 CURVE SMOOTH",
"6 448 OFFCURVE",
"0 433 OFFCURVE",
"0 416 CURVE SMOOTH",
"0 32 LINE SMOOTH",
"0 15 OFFCURVE",
"6 0 OFFCURVE",
"19 -13 CURVE SMOOTH",
"32 -26 OFFCURVE",
"47 -32 OFFCURVE",
"64 -32 CURVE SMOOTH",
"448 -32 LINE SMOOTH",
"465 -32 OFFCURVE",
"480 -26 OFFCURVE",
"493 -13 CURVE SMOOTH",
"506 0 OFFCURVE",
"512 15 OFFCURVE",
"512 32 CURVE SMOOTH",
"512 416 LINE SMOOTH",
"512 433 OFFCURVE",
"506 448 OFFCURVE",
"493 461 CURVE SMOOTH",
"480 474 OFFCURVE",
"465 480 OFFCURVE",
"448 480 CURVE SMOOTH"
);
},
{
closed = 1;
nodes = (
"224 407 OFFCURVE",
"221 400 OFFCURVE",
"215 394 CURVE SMOOTH",
"208 387 OFFCURVE",
"201 384 OFFCURVE",
"192 384 CURVE SMOOTH",
"183 384 OFFCURVE",
"176 387 OFFCURVE",
"170 394 CURVE",
"163 400 OFFCURVE",
"160 407 OFFCURVE",
"160 416 CURVE SMOOTH",
"160 425 OFFCURVE",
"163 432 OFFCURVE",
"170 439 CURVE SMOOTH",
"176 445 OFFCURVE",
"183 448 OFFCURVE",
"192 448 CURVE SMOOTH",
"201 448 OFFCURVE",
"208 445 OFFCURVE",
"215 439 CURVE",
"221 432 OFFCURVE",
"224 425 OFFCURVE",
"224 416 CURVE SMOOTH"
);
},
{
closed = 1;
nodes = (
"128 407 OFFCURVE",
"125 400 OFFCURVE",
"119 394 CURVE SMOOTH",
"112 387 OFFCURVE",
"105 384 OFFCURVE",
"96 384 CURVE SMOOTH",
"87 384 OFFCURVE",
"80 387 OFFCURVE",
"74 394 CURVE",
"67 400 OFFCURVE",
"64 407 OFFCURVE",
"64 416 CURVE SMOOTH",
"64 425 OFFCURVE",
"67 432 OFFCURVE",
"74 439 CURVE SMOOTH",
"80 445 OFFCURVE",
"87 448 OFFCURVE",
"96 448 CURVE SMOOTH",
"105 448 OFFCURVE",
"112 445 OFFCURVE",
"119 439 CURVE",
"125 432 OFFCURVE",
"128 425 OFFCURVE",
"128 416 CURVE SMOOTH"
);
},
{
closed = 1;
nodes = (
"448 32 LINE",
"64 32 LINE",
"64 352 LINE",
"448 352 LINE"
);
}
);
width = 512;
}
);
unicode = E019;
},
{
glyphname = uniE01A;
layers = (
{
layerId = "EEF2BC8D-D964-4B49-BEB0-D3787712A5FD";
name = Regular;
paths = (
{
closed = 1;
nodes = (
"417 384 LINE",
"417 437 LINE SMOOTH",
"417 449 OFFCURVE",
"413 459 OFFCURVE",
"405 468 CURVE",
"396 476 OFFCURVE",
"386 480 OFFCURVE",
"374 480 CURVE SMOOTH",
"44 480 LINE SMOOTH",
"32 480 OFFCURVE",
"22 476 OFFCURVE",
"14 468 CURVE SMOOTH",
"5 459 OFFCURVE",
"1 449 OFFCURVE",
"1 437 CURVE SMOOTH",
"1 107 LINE SMOOTH",
"1 95 OFFCURVE",
"5 85 OFFCURVE",
"13 77 CURVE",
"21 68 OFFCURVE",
"31 64 OFFCURVE",
"43 64 CURVE SMOOTH",
"97 64 LINE",
"97 11 LINE SMOOTH",
"97 -1 OFFCURVE",
"101 -11 OFFCURVE",
"109 -19 CURVE",
"117 -28 OFFCURVE",
"127 -32 OFFCURVE",
"139 -32 CURVE SMOOTH",
"471 -32 LINE SMOOTH",
"483 -32 OFFCURVE",
"493 -28 OFFCURVE",
"501 -19 CURVE",
"509 -11 OFFCURVE",
"513 -1 OFFCURVE",
"513 11 CURVE SMOOTH",
"513 341 LINE SMOOTH",
"513 353 OFFCURVE",
"509 363 OFFCURVE",
"501 372 CURVE",
"492 380 OFFCURVE",
"482 384 OFFCURVE",
"470 384 CURVE SMOOTH"
);
},
{
closed = 1;
nodes = (
"177 445 OFFCURVE",
"184 448 OFFCURVE",
"193 448 CURVE SMOOTH",
"202 448 OFFCURVE",
"209 445 OFFCURVE",
"216 439 CURVE",
"222 432 OFFCURVE",
"225 425 OFFCURVE",
"225 416 CURVE SMOOTH",
"225 407 OFFCURVE",
"222 400 OFFCURVE",
"216 394 CURVE SMOOTH",
"209 387 OFFCURVE",
"202 384 OFFCURVE",
"193 384 CURVE SMOOTH",
"184 384 OFFCURVE",
"177 387 OFFCURVE",
"171 394 CURVE",
"164 400 OFFCURVE",
"161 407 OFFCURVE",
"161 416 CURVE SMOOTH",
"161 425 OFFCURVE",
"164 432 OFFCURVE",
"171 439 CURVE SMOOTH"
);
},
{
closed = 1;
nodes = (
"81 445 OFFCURVE",
"88 448 OFFCURVE",
"97 448 CURVE SMOOTH",
"106 448 OFFCURVE",
"113 445 OFFCURVE",
"120 439 CURVE",
"126 432 OFFCURVE",
"129 425 OFFCURVE",
"129 416 CURVE SMOOTH",
"129 407 OFFCURVE",
"126 400 OFFCURVE",
"120 394 CURVE SMOOTH",
"113 387 OFFCURVE",
"106 384 OFFCURVE",
"97 384 CURVE SMOOTH",
"88 384 OFFCURVE",
"81 387 OFFCURVE",
"75 394 CURVE",
"68 400 OFFCURVE",
"65 407 OFFCURVE",
"65 416 CURVE SMOOTH",
"65 425 OFFCURVE",
"68 432 OFFCURVE",
"75 439 CURVE SMOOTH"
);
},
{
closed = 1;
nodes = (
"65 128 LINE",
"65 352 LINE",
"353 352 LINE",
"353 128 LINE"
);
},
{
closed = 1;
nodes = (
"449 32 LINE",
"161 32 LINE",
"161 64 LINE",
"375 64 LINE SMOOTH",
"387 64 OFFCURVE",
"397 68 OFFCURVE",
"405 77 CURVE",
"413 85 OFFCURVE",
"417 95 OFFCURVE",
"417 107 CURVE SMOOTH",
"417 256 LINE",
"449 256 LINE"
);
}
);
width = 512;
}
);
unicode = E01A;
},
{
glyphname = uniE02C;
layers = (
{
layerId = "EEF2BC8D-D964-4B49-BEB0-D3787712A5FD";
name = Regular;
paths = (
{
closed = 1;
nodes = (
"193 -33 LINE",
"128 31 LINE",
"289 192 LINE",
"128 350 LINE",
"192 416 LINE",
"416 192 LINE"
);
}
);
width = 512;
}
);
unicode = E02C;
},
{
glyphname = uniE02D;
layers = (
{
layerId = "EEF2BC8D-D964-4B49-BEB0-D3787712A5FD";
name = Regular;
paths = (
{
closed = 1;
nodes = (
"96 192 LINE",
"320 416 LINE",
"384 350 LINE",
"223 191 LINE",
"384 31 LINE",
"320 -33 LINE"
);
}
);
width = 512;
}
);
unicode = E02D;
},
{
glyphname = uniE02E;
layers = (
{
layerId = "EEF2BC8D-D964-4B49-BEB0-D3787712A5FD";
name = Regular;
paths = (
{
closed = 1;
nodes = (
"335 96 OFFCURVE",
"293 120 OFFCURVE",
"256 168 CURVE",
"219 120 OFFCURVE",
"177 96 OFFCURVE",
"128 96 CURVE SMOOTH",
"114 96 OFFCURVE",
"100 98 OFFCURVE",
"86 103 CURVE SMOOTH",
"72 108 OFFCURVE",
"58 115 OFFCURVE",
"45 125 CURVE",
"32 134 OFFCURVE",
"21 148 OFFCURVE",
"13 165 CURVE",
"4 182 OFFCURVE",
"0 202 OFFCURVE",
"0 224 CURVE SMOOTH",
"0 267 OFFCURVE",
"14 299 OFFCURVE",
"41 320 CURVE SMOOTH",
"68 341 OFFCURVE",
"97 352 OFFCURVE",
"128 352 CURVE SMOOTH",
"177 352 OFFCURVE",
"219 328 OFFCURVE",
"256 280 CURVE",
"293 328 OFFCURVE",
"335 352 OFFCURVE",
"384 352 CURVE SMOOTH",
"415 352 OFFCURVE",
"445 341 OFFCURVE",
"472 320 CURVE SMOOTH",
"499 299 OFFCURVE",
"512 267 OFFCURVE",
"512 224 CURVE SMOOTH",
"512 202 OFFCURVE",
"508 182 OFFCURVE",
"500 165 CURVE",
"491 148 OFFCURVE",
"480 134 OFFCURVE",
"467 125 CURVE",
"454 115 OFFCURVE",
"440 108 OFFCURVE",
"426 103 CURVE SMOOTH",
"412 98 OFFCURVE",
"398 96 OFFCURVE",
"384 96 CURVE SMOOTH"
);
},
{
closed = 1;
nodes = (
"120 288 OFFCURVE",
"112 287 OFFCURVE",
"104 285 CURVE SMOOTH",
"96 283 OFFCURVE",
"87 277 OFFCURVE",
"78 266 CURVE SMOOTH",
"69 255 OFFCURVE",
"64 241 OFFCURVE",
"64 224 CURVE SMOOTH",
"64 210 OFFCURVE",
"67 198 OFFCURVE",
"72 189 CURVE",
"77 179 OFFCURVE",
"84 172 OFFCURVE",
"93 169 CURVE",
"101 165 OFFCURVE",
"108 163 OFFCURVE",
"113 162 CURVE SMOOTH",
"118 161 OFFCURVE",
"123 160 OFFCURVE",
"128 160 CURVE SMOOTH",
"146 160 OFFCURVE",
"162 165 OFFCURVE",
"175 176 CURVE",
"188 186 OFFCURVE",
"202 202 OFFCURVE",
"217 224 CURVE",
"202 246 OFFCURVE",
"188 262 OFFCURVE",
"175 273 CURVE",
"162 283 OFFCURVE",
"146 288 OFFCURVE",
"128 288 CURVE SMOOTH"
);
},
{
closed = 1;
nodes = (
"310 202 OFFCURVE",
"325 186 OFFCURVE",
"338 176 CURVE",
"351 165 OFFCURVE",
"366 160 OFFCURVE",
"384 160 CURVE SMOOTH",
"389 160 OFFCURVE",
"395 161 OFFCURVE",
"401 162 CURVE SMOOTH",
"406 163 OFFCURVE",
"413 166 OFFCURVE",
"421 170 CURVE SMOOTH",
"429 174 OFFCURVE",
"436 181 OFFCURVE",
"441 190 CURVE SMOOTH",
"446 199 OFFCURVE",
"448 211 OFFCURVE",
"448 224 CURVE SMOOTH",
"448 238 OFFCURVE",
"445 250 OFFCURVE",
"440 260 CURVE",
"435 269 OFFCURVE",
"428 276 OFFCURVE",
"420 280 CURVE",
"411 283 OFFCURVE",
"404 286 OFFCURVE",
"399 287 CURVE SMOOTH",
"394 288 OFFCURVE",
"389 288 OFFCURVE",
"384 288 CURVE SMOOTH",
"366 288 OFFCURVE",
"351 283 OFFCURVE",
"338 273 CURVE",
"325 262 OFFCURVE",
"310 246 OFFCURVE",
"295 224 CURVE"
);
}
);
width = 512;
}
);
unicode = E02E;
},
{
glyphname = uniE02F;
layers = (
{
layerId = "EEF2BC8D-D964-4B49-BEB0-D3787712A5FD";
name = Regular;
paths = (
{
closed = 1;
nodes = (
"352 256 LINE",
"352 192 LINE",
"384 192 LINE",
"400 192 LINE SMOOTH",
"431 192 OFFCURVE",
"457 181 OFFCURVE",
"479 159 CURVE SMOOTH",
"501 137 OFFCURVE",
"512 111 OFFCURVE",
"512 80 CURVE SMOOTH",
"512 49 OFFCURVE",
"501 23 OFFCURVE",
"479 1 CURVE SMOOTH",
"457 -21 OFFCURVE",
"431 -32 OFFCURVE",
"400 -32 CURVE SMOOTH",
"369 -32 OFFCURVE",
"343 -21 OFFCURVE",
"321 1 CURVE SMOOTH",
"299 23 OFFCURVE",
"288 49 OFFCURVE",
"288 80 CURVE SMOOTH",
"288 128 LINE",
"224 128 LINE",
"224 96 LINE",
"224 80 LINE SMOOTH",
"224 49 OFFCURVE",
"213 23 OFFCURVE",
"191 1 CURVE SMOOTH",
"169 -21 OFFCURVE",
"143 -32 OFFCURVE",
"112 -32 CURVE SMOOTH",
"81 -32 OFFCURVE",
"55 -21 OFFCURVE",
"33 1 CURVE SMOOTH",
"11 23 OFFCURVE",
"0 49 OFFCURVE",
"0 80 CURVE SMOOTH",
"0 111 OFFCURVE",
"11 137 OFFCURVE",
"33 159 CURVE SMOOTH",
"55 181 OFFCURVE",
"81 192 OFFCURVE",
"112 192 CURVE SMOOTH",
"160 192 LINE",
"160 256 LINE",
"128 256 LINE",
"112 256 LINE SMOOTH",
"81 256 OFFCURVE",
"55 267 OFFCURVE",
"33 289 CURVE SMOOTH",
"11 311 OFFCURVE",
"0 337 OFFCURVE",
"0 368 CURVE SMOOTH",
"0 399 OFFCURVE",
"11 425 OFFCURVE",
"33 447 CURVE SMOOTH",
"55 469 OFFCURVE",
"81 480 OFFCURVE",
"112 480 CURVE SMOOTH",
"143 480 OFFCURVE",
"169 469 OFFCURVE",
"191 447 CURVE SMOOTH",
"213 425 OFFCURVE",
"224 399 OFFCURVE",
"224 368 CURVE SMOOTH",
"224 320 LINE",
"288 320 LINE",
"288 352 LINE",
"288 368 LINE SMOOTH",
"288 399 OFFCURVE",
"299 425 OFFCURVE",
"321 447 CURVE SMOOTH",
"343 469 OFFCURVE",
"369 480 OFFCURVE",
"400 480 CURVE SMOOTH",
"431 480 OFFCURVE",
"457 469 OFFCURVE",
"479 447 CURVE SMOOTH",
"501 425 OFFCURVE",
"512 399 OFFCURVE",
"512 368 CURVE SMOOTH",
"512 337 OFFCURVE",
"501 311 OFFCURVE",
"479 289 CURVE SMOOTH",
"457 267 OFFCURVE",
"431 256 OFFCURVE",
"400 256 CURVE SMOOTH"
);
},
{
closed = 1;
nodes = (
"160 368 LINE SMOOTH",
"160 381 OFFCURVE",
"155 393 OFFCURVE",
"146 402 CURVE SMOOTH",
"137 411 OFFCURVE",
"125 416 OFFCURVE",
"112 416 CURVE SMOOTH",
"99 416 OFFCURVE",
"87 411 OFFCURVE",
"78 402 CURVE SMOOTH",
"69 393 OFFCURVE",
"64 381 OFFCURVE",
"64 368 CURVE SMOOTH",
"64 355 OFFCURVE",
"69 343 OFFCURVE",
"78 334 CURVE SMOOTH",
"87 325 OFFCURVE",
"99 320 OFFCURVE",
"112 320 CURVE SMOOTH",
"128 320 LINE",
"160 320 LINE"
);
},
{
closed = 1;
nodes = (
"160 96 LINE",
"160 128 LINE",
"112 128 LINE SMOOTH",
"99 128 OFFCURVE",
"87 123 OFFCURVE",
"78 114 CURVE SMOOTH",
"69 105 OFFCURVE",
"64 93 OFFCURVE",
"64 80 CURVE SMOOTH",
"64 67 OFFCURVE",
"69 55 OFFCURVE",
"78 46 CURVE SMOOTH",
"87 37 OFFCURVE",
"99 32 OFFCURVE",
"112 32 CURVE SMOOTH",
"125 32 OFFCURVE",
"137 37 OFFCURVE",
"146 46 CURVE SMOOTH",
"155 55 OFFCURVE",
"160 67 OFFCURVE",
"160 80 CURVE SMOOTH"
);
},
{
closed = 1;
nodes = (
"352 80 LINE SMOOTH",
"352 67 OFFCURVE",
"357 55 OFFCURVE",
"366 46 CURVE SMOOTH",
"375 37 OFFCURVE",
"387 32 OFFCURVE",
"400 32 CURVE SMOOTH",
"413 32 OFFCURVE",
"425 37 OFFCURVE",
"434 46 CURVE SMOOTH",
"443 55 OFFCURVE",
"448 67 OFFCURVE",
"448 80 CURVE SMOOTH",
"448 93 OFFCURVE",
"443 105 OFFCURVE",
"434 114 CURVE SMOOTH",
"425 123 OFFCURVE",
"413 128 OFFCURVE",
"400 128 CURVE SMOOTH",
"384 128 LINE",
"352 128 LINE"
);
},
{
closed = 1;
nodes = (
"288 256 LINE",
"224 256 LINE",
"224 192 LINE",
"288 192 LINE"
);
},
{
closed = 1;
nodes = (
"352 352 LINE",
"352 320 LINE",
"400 320 LINE SMOOTH",
"413 320 OFFCURVE",
"425 325 OFFCURVE",
"434 334 CURVE SMOOTH",
"443 343 OFFCURVE",
"448 355 OFFCURVE",
"448 368 CURVE SMOOTH",
"448 381 OFFCURVE",
"443 393 OFFCURVE",
"434 402 CURVE SMOOTH",
"425 411 OFFCURVE",
"413 416 OFFCURVE",
"400 416 CURVE SMOOTH",
"387 416 OFFCURVE",
"375 411 OFFCURVE",
"366 402 CURVE SMOOTH",
"357 393 OFFCURVE",
"352 381 OFFCURVE",
"352 368 CURVE SMOOTH"
);
}
);
width = 512;
}
);
unicode = E02F;
},
{
glyphname = uniE030;
layers = (
{
layerId = "EEF2BC8D-D964-4B49-BEB0-D3787712A5FD";
name = Regular;
paths = (
{
closed = 1;
nodes = (
"360 191 OFFCURVE",
"360 191 OFFCURVE",
"360 191 CURVE",
"360 190 OFFCURVE",
"360 190 OFFCURVE",
"359 190 CURVE",
"348 171 OFFCURVE",
"334 156 OFFCURVE",
"316 145 CURVE SMOOTH",
"297 134 OFFCURVE",
"277 128 OFFCURVE",
"256 128 CURVE SMOOTH",
"235 128 OFFCURVE",
"215 134 OFFCURVE",
"197 145 CURVE SMOOTH",
"179 156 OFFCURVE",
"165 171 OFFCURVE",
"154 190 CURVE",
"153 190 LINE SMOOTH",
"153 190 OFFCURVE",
"153 190 OFFCURVE",
"153 191 CURVE",
"152 192 OFFCURVE",
"152 192 OFFCURVE",
"152 193 CURVE",
"148 200 OFFCURVE",
"142 205 OFFCURVE",
"134 208 CURVE",
"126 210 OFFCURVE",
"118 209 OFFCURVE",
"111 205 CURVE",
"104 200 OFFCURVE",
"99 194 OFFCURVE",
"97 185 CURVE SMOOTH",
"95 176 OFFCURVE",
"96 168 OFFCURVE",
"100 161 CURVE",
"100 160 OFFCURVE",
"100 160 OFFCURVE",
"101 159 CURVE SMOOTH",
"102 158 OFFCURVE",
"102 158 OFFCURVE",
"102 158 CURVE",
"102 157 LINE",
"115 134 OFFCURVE",
"133 114 OFFCURVE",
"155 98 CURVE SMOOTH",
"176 82 OFFCURVE",
"200 72 OFFCURVE",
"226 67 CURVE",
"226 32 LINE",
"166 32 LINE SMOOTH",
"158 32 OFFCURVE",
"151 29 OFFCURVE",
"145 23 CURVE",
"139 16 OFFCURVE",
"136 9 OFFCURVE",
"136 0 CURVE SMOOTH",
"136 -9 OFFCURVE",
"139 -16 OFFCURVE",
"145 -22 CURVE",
"151 -29 OFFCURVE",
"158 -32 OFFCURVE",
"166 -32 CURVE SMOOTH",
"346 -32 LINE SMOOTH",
"355 -32 OFFCURVE",
"362 -29 OFFCURVE",
"368 -22 CURVE SMOOTH",
"373 -16 OFFCURVE",
"376 -9 OFFCURVE",
"376 0 CURVE SMOOTH",
"376 9 OFFCURVE",
"373 16 OFFCURVE",
"368 23 CURVE",
"362 29 OFFCURVE",
"355 32 OFFCURVE",
"346 32 CURVE SMOOTH",
"286 32 LINE",
"286 67 LINE",
"312 72 OFFCURVE",
"336 82 OFFCURVE",
"358 98 CURVE SMOOTH",
"379 114 OFFCURVE",
"397 134 OFFCURVE",
"410 157 CURVE",
"410 158 OFFCURVE",
"410 158 OFFCURVE",
"411 159 CURVE",
"412 159 OFFCURVE",
"412 159 OFFCURVE",
"412 159 CURVE",
"416 167 OFFCURVE",
"417 175 OFFCURVE",
"415 184 CURVE SMOOTH",
"413 193 OFFCURVE",
"408 199 OFFCURVE",
"401 204 CURVE",
"394 208 OFFCURVE",
"386 209 OFFCURVE",
"378 207 CURVE",
"370 204 OFFCURVE",
"364 199 OFFCURVE",
"360 192 CURVE"
);
},
{
closed = 1;
nodes = (
"346 384 LINE SMOOTH",
"346 411 OFFCURVE",
"337 433 OFFCURVE",
"320 452 CURVE SMOOTH",
"302 471 OFFCURVE",
"281 480 OFFCURVE",
"256 480 CURVE SMOOTH",
"231 480 OFFCURVE",
"210 471 OFFCURVE",
"193 452 CURVE SMOOTH",
"175 433 OFFCURVE",
"166 411 OFFCURVE",
"166 384 CURVE SMOOTH",
"166 256 LINE SMOOTH",
"166 229 OFFCURVE",
"175 207 OFFCURVE",
"193 188 CURVE SMOOTH",
"210 169 OFFCURVE",
"231 160 OFFCURVE",
"256 160 CURVE SMOOTH",
"281 160 OFFCURVE",
"302 169 OFFCURVE",
"320 188 CURVE SMOOTH",
"337 207 OFFCURVE",
"346 229 OFFCURVE",
"346 256 CURVE SMOOTH"
);
}
);
width = 512;
}
);
unicode = E030;
},
{
glyphname = uniE005;
layers = (
{
layerId = "EEF2BC8D-D964-4B49-BEB0-D3787712A5FD";
name = Regular;
paths = (
{
closed = 1;
nodes = (
"256 128 LINE",
"64 320 LINE",
"448 320 LINE"
);
}
);
width = 512;
}
);
unicode = E005;
},
{
glyphname = uniE006;
layers = (
{
layerId = "EEF2BC8D-D964-4B49-BEB0-D3787712A5FD";
name = Regular;
paths = (
{
closed = 1;
nodes = (
"387 455 OFFCURVE",
"327 480 OFFCURVE",
"256 480 CURVE SMOOTH",
"185 480 OFFCURVE",
"125 455 OFFCURVE",
"75 405 CURVE SMOOTH",
"25 355 OFFCURVE",
"0 295 OFFCURVE",
"0 224 CURVE SMOOTH",
"0 153 OFFCURVE",
"25 93 OFFCURVE",
"75 43 CURVE SMOOTH",
"125 -7 OFFCURVE",
"185 -32 OFFCURVE",
"256 -32 CURVE SMOOTH",
"327 -32 OFFCURVE",
"387 -7 OFFCURVE",
"437 43 CURVE SMOOTH",
"487 93 OFFCURVE",
"512 153 OFFCURVE",
"512 224 CURVE SMOOTH",
"512 295 OFFCURVE",
"487 355 OFFCURVE",
"437 405 CURVE SMOOTH"
);
},
{
closed = 1;
nodes = (
"238 92 LINE",
"233 88 OFFCURVE",
"229 88 OFFCURVE",
"224 92 CURVE",
"197 120 LINE SMOOTH",
"196 121 OFFCURVE",
"192 125 OFFCURVE",
"184 134 CURVE",
"120 200 LINE",
"119 202 OFFCURVE",
"118 204 OFFCURVE",
"118 207 CURVE SMOOTH",
"118 210 OFFCURVE",
"119 212 OFFCURVE",
"120 214 CURVE",
"148 239 LINE",
"150 240 OFFCURVE",
"152 241 OFFCURVE",
"155 241 CURVE SMOOTH",
"158 241 OFFCURVE",
"160 240 OFFCURVE",
"162 239 CURVE",
"224 175 LINE SMOOTH",
"229 170 OFFCURVE",
"233 170 OFFCURVE",
"238 175 CURVE SMOOTH",
"381 317 LINE SMOOTH",
"386 322 OFFCURVE",
"390 322 OFFCURVE",
"394 317 CURVE",
"421 290 LINE SMOOTH",
"426 285 OFFCURVE",
"426 281 OFFCURVE",
"421 276 CURVE SMOOTH"
);
}
);
width = 512;
}
);
unicode = E006;
},
{
glyphname = uniE007;
layers = (
{
layerId = "EEF2BC8D-D964-4B49-BEB0-D3787712A5FD";
name = Regular;
paths = (
{
closed = 1;
nodes = (
"474 191 LINE SMOOTH",
"499 217 OFFCURVE",
"512 248 OFFCURVE",
"512 285 CURVE SMOOTH",
"512 321 OFFCURVE",
"499 352 OFFCURVE",
"474 377 CURVE",
"449 404 OFFCURVE",
"418 417 OFFCURVE",
"381 416 CURVE SMOOTH",
"367 416 OFFCURVE",
"350 411 OFFCURVE",
"329 400 CURVE SMOOTH",
"308 389 OFFCURVE",
"291 378 OFFCURVE",
"277 367 CURVE SMOOTH",
"256 351 LINE",
"251 356 OFFCURVE",
"243 363 OFFCURVE",
"233 370 CURVE SMOOTH",
"223 377 OFFCURVE",
"207 386 OFFCURVE",
"184 398 CURVE SMOOTH",
"161 410 OFFCURVE",
"143 416 OFFCURVE",
"128 416 CURVE SMOOTH",
"93 416 OFFCURVE",
"63 403 OFFCURVE",
"38 378 CURVE SMOOTH",
"13 352 OFFCURVE",
"0 321 OFFCURVE",
"0 285 CURVE SMOOTH",
"0 248 OFFCURVE",
"13 217 OFFCURVE",
"38 191 CURVE SMOOTH",
"256 -32 LINE"
);
}
);
width = 512;
}
);
unicode = E007;
},
{
glyphname = uniE008;
layers = (
{
layerId = "EEF2BC8D-D964-4B49-BEB0-D3787712A5FD";
name = Regular;
paths = (
{
closed = 1;
nodes = (
"313 224 OFFCURVE",
"294 216 OFFCURVE",
"272 216 CURVE SMOOTH",
"250 216 OFFCURVE",
"231 224 OFFCURVE",
"216 240 CURVE SMOOTH",
"201 256 OFFCURVE",
"193 276 OFFCURVE",
"193 299 CURVE SMOOTH",
"193 322 OFFCURVE",
"201 341 OFFCURVE",
"216 357 CURVE SMOOTH",
"231 373 OFFCURVE",
"250 381 OFFCURVE",
"272 381 CURVE SMOOTH",
"294 381 OFFCURVE",
"313 373 OFFCURVE",
"329 357 CURVE SMOOTH",
"344 341 OFFCURVE",
"352 322 OFFCURVE",
"352 299 CURVE SMOOTH",
"352 276 OFFCURVE",
"344 256 OFFCURVE",
"329 240 CURVE SMOOTH"
);
},
{
closed = 1;
nodes = (
"223 480 OFFCURVE",
"182 462 OFFCURVE",
"148 427 CURVE SMOOTH",
"113 391 OFFCURVE",
"96 348 OFFCURVE",
"96 298 CURVE SMOOTH",
"96 255 OFFCURVE",
"110 207 OFFCURVE",
"138 154 CURVE SMOOTH",
"166 101 OFFCURVE",
"196 57 OFFCURVE",
"229 20 CURVE",
"272 -32 LINE",
"289 -12 OFFCURVE",
"304 6 OFFCURVE",
"318 21 CURVE SMOOTH",
"351 56 OFFCURVE",
"381 100 OFFCURVE",
"408 151 CURVE SMOOTH",
"435 202 OFFCURVE",
"448 251 OFFCURVE",
"448 298 CURVE SMOOTH",
"448 348 OFFCURVE",
"431 391 OFFCURVE",
"397 427 CURVE SMOOTH",
"362 462 OFFCURVE",
"321 480 OFFCURVE",
"272 480 CURVE SMOOTH"
);
}
);
width = 512;
}
);
unicode = E008;
},
{
glyphname = uniE009;
layers = (
{
layerId = "EEF2BC8D-D964-4B49-BEB0-D3787712A5FD";
name = Regular;
paths = (
{
closed = 1;
nodes = (
"288 160 LINE",
"288 0 LINE SMOOTH",
"288 -9 OFFCURVE",
"285 -16 OFFCURVE",
"279 -22 CURVE SMOOTH",
"272 -29 OFFCURVE",
"265 -32 OFFCURVE",
"256 -32 CURVE SMOOTH",
"224 -32 LINE SMOOTH",
"215 -32 OFFCURVE",
"208 -29 OFFCURVE",
"202 -22 CURVE",
"195 -16 OFFCURVE",
"192 -9 OFFCURVE",
"192 0 CURVE SMOOTH",
"192 160 LINE",
"32 160 LINE SMOOTH",
"23 160 OFFCURVE",
"16 163 OFFCURVE",
"10 170 CURVE",
"3 176 OFFCURVE",
"0 183 OFFCURVE",
"0 192 CURVE SMOOTH",
"0 224 LINE SMOOTH",
"0 233 OFFCURVE",
"3 240 OFFCURVE",
"10 247 CURVE SMOOTH",
"16 253 OFFCURVE",
"23 256 OFFCURVE",
"32 256 CURVE SMOOTH",
"192 256 LINE",
"192 416 LINE SMOOTH",
"192 425 OFFCURVE",
"195 432 OFFCURVE",
"202 439 CURVE SMOOTH",
"208 445 OFFCURVE",
"215 448 OFFCURVE",
"224 448 CURVE SMOOTH",
"256 448 LINE SMOOTH",
"265 448 OFFCURVE",
"272 445 OFFCURVE",
"279 439 CURVE",
"285 432 OFFCURVE",
"288 425 OFFCURVE",
"288 416 CURVE SMOOTH",
"288 256 LINE",
"448 256 LINE SMOOTH",
"457 256 OFFCURVE",
"464 253 OFFCURVE",
"471 247 CURVE",
"477 240 OFFCURVE",
"480 233 OFFCURVE",
"480 224 CURVE SMOOTH",
"480 192 LINE SMOOTH",
"480 183 OFFCURVE",
"477 176 OFFCURVE",
"471 170 CURVE SMOOTH",
"464 163 OFFCURVE",
"457 160 OFFCURVE",
"448 160 CURVE SMOOTH"
);
}
);
width = 512;
}
);
unicode = E009;
},
{
glyphname = uniE00A;
layers = (
{
layerId = "EEF2BC8D-D964-4B49-BEB0-D3787712A5FD";
name = Regular;
paths = (
{
closed = 1;
nodes = (
"462 411 LINE SMOOTH",
"459 414 OFFCURVE",
"455 416 OFFCURVE",
"451 416 CURVE SMOOTH",
"446 416 OFFCURVE",
"442 414 OFFCURVE",
"439 411 CURVE SMOOTH",
"201 174 LINE SMOOTH",
"194 167 OFFCURVE",
"186 167 OFFCURVE",
"178 174 CURVE",
"74 280 LINE SMOOTH",
"71 283 OFFCURVE",
"67 285 OFFCURVE",
"63 285 CURVE SMOOTH",
"58 285 OFFCURVE",
"54 283 OFFCURVE",
"51 280 CURVE",
"5 239 LINE",
"2 236 OFFCURVE",
"1 232 OFFCURVE",
"1 228 CURVE SMOOTH",
"1 223 OFFCURVE",
"2 219 OFFCURVE",
"5 216 CURVE SMOOTH",
"110 106 LINE SMOOTH",
"121 95 OFFCURVE",
"128 88 OFFCURVE",
"133 83 CURVE SMOOTH",
"178 37 LINE",
"186 30 OFFCURVE",
"194 30 OFFCURVE",
"201 37 CURVE SMOOTH",
"507 343 LINE SMOOTH",
"510 346 OFFCURVE",
"511 350 OFFCURVE",
"511 355 CURVE SMOOTH",
"511 359 OFFCURVE",
"510 363 OFFCURVE",
"507 366 CURVE SMOOTH"
);
}
);
width = 512;
}
);
unicode = E00A;
},
{
glyphname = uniE00B;
layers = (
{
layerId = "EEF2BC8D-D964-4B49-BEB0-D3787712A5FD";
name = Regular;
paths = (
{
closed = 1;
nodes = (
"444 366 LINE SMOOTH",
"447 363 OFFCURVE",
"449 359 OFFCURVE",
"449 355 CURVE SMOOTH",
"449 350 OFFCURVE",
"447 346 OFFCURVE",
"444 343 CURVE SMOOTH",
"319 219 LINE SMOOTH",
"312 212 OFFCURVE",
"312 204 OFFCURVE",
"319 196 CURVE",
"444 72 LINE SMOOTH",
"447 69 OFFCURVE",
"449 65 OFFCURVE",
"449 61 CURVE SMOOTH",
"449 56 OFFCURVE",
"447 52 OFFCURVE",
"444 49 CURVE SMOOTH",
"399 4 LINE SMOOTH",
"396 1 OFFCURVE",
"392 -1 OFFCURVE",
"388 -1 CURVE SMOOTH",
"383 -1 OFFCURVE",
"379 1 OFFCURVE",
"376 4 CURVE SMOOTH",
"252 128 LINE SMOOTH",
"249 131 OFFCURVE",
"245 133 OFFCURVE",
"241 133 CURVE SMOOTH",
"236 133 OFFCURVE",
"232 131 OFFCURVE",
"229 128 CURVE SMOOTH",
"105 4 LINE SMOOTH",
"102 1 OFFCURVE",
"98 -1 OFFCURVE",
"94 -1 CURVE SMOOTH",
"89 -1 OFFCURVE",
"85 1 OFFCURVE",
"82 4 CURVE SMOOTH",
"37 49 LINE SMOOTH",
"34 52 OFFCURVE",
"32 56 OFFCURVE",
"32 61 CURVE SMOOTH",
"32 65 OFFCURVE",
"34 69 OFFCURVE",
"37 72 CURVE SMOOTH",
"161 196 LINE",
"168 204 OFFCURVE",
"168 212 OFFCURVE",
"161 219 CURVE SMOOTH",
"37 343 LINE SMOOTH",
"29 351 OFFCURVE",
"29 359 OFFCURVE",
"37 366 CURVE",
"82 411 LINE SMOOTH",
"85 414 OFFCURVE",
"89 416 OFFCURVE",
"94 416 CURVE SMOOTH",
"98 416 OFFCURVE",
"102 414 OFFCURVE",
"105 411 CURVE SMOOTH",
"229 287 LINE SMOOTH",
"232 284 OFFCURVE",
"236 282 OFFCURVE",
"241 282 CURVE SMOOTH",
"245 282 OFFCURVE",
"249 284 OFFCURVE",
"252 287 CURVE SMOOTH",
"376 411 LINE",
"383 419 OFFCURVE",
"391 419 OFFCURVE",
"399 411 CURVE SMOOTH"
);
}
);
width = 512;
}
);
unicode = E00B;
},
{
glyphname = uniE00C;
layers = (
{
layerId = "EEF2BC8D-D964-4B49-BEB0-D3787712A5FD";
name = Regular;
paths = (
{
closed = 1;
nodes = (
"16 416 LINE SMOOTH",
"11 416 OFFCURVE",
"8 414 OFFCURVE",
"5 411 CURVE SMOOTH",
"2 408 OFFCURVE",
"0 404 OFFCURVE",
"0 399 CURVE SMOOTH",
"0 336 LINE SMOOTH",
"0 331 OFFCURVE",
"2 328 OFFCURVE",
"5 325 CURVE SMOOTH",
"8 322 OFFCURVE",
"11 320 OFFCURVE",
"16 320 CURVE SMOOTH",
"496 320 LINE SMOOTH",
"501 320 OFFCURVE",
"505 322 OFFCURVE",
"508 325 CURVE SMOOTH",
"511 328 OFFCURVE",
"512 331 OFFCURVE",
"512 336 CURVE SMOOTH",
"512 399 LINE SMOOTH",
"512 404 OFFCURVE",
"511 408 OFFCURVE",
"508 411 CURVE SMOOTH",
"505 414 OFFCURVE",
"501 416 OFFCURVE",
"496 416 CURVE SMOOTH"
);
},
{
closed = 1;
nodes = (
"16 256 LINE SMOOTH",
"11 256 OFFCURVE",
"8 254 OFFCURVE",
"5 251 CURVE SMOOTH",
"2 248 OFFCURVE",
"0 244 OFFCURVE",
"0 239 CURVE SMOOTH",
"0 176 LINE SMOOTH",
"0 171 OFFCURVE",
"2 168 OFFCURVE",
"5 165 CURVE SMOOTH",
"8 162 OFFCURVE",
"11 160 OFFCURVE",
"16 160 CURVE SMOOTH",
"496 160 LINE SMOOTH",
"501 160 OFFCURVE",
"505 162 OFFCURVE",
"508 165 CURVE SMOOTH",
"511 168 OFFCURVE",
"512 171 OFFCURVE",
"512 176 CURVE SMOOTH",
"512 239 LINE SMOOTH",
"512 244 OFFCURVE",
"511 248 OFFCURVE",
"508 251 CURVE SMOOTH",
"505 254 OFFCURVE",
"501 256 OFFCURVE",
"496 256 CURVE SMOOTH"
);
},
{
closed = 1;
nodes = (
"16 96 LINE SMOOTH",
"11 96 OFFCURVE",
"8 94 OFFCURVE",
"5 91 CURVE SMOOTH",
"2 88 OFFCURVE",
"0 84 OFFCURVE",
"0 79 CURVE SMOOTH",
"0 16 LINE SMOOTH",
"0 12 OFFCURVE",
"2 8 OFFCURVE",
"5 5 CURVE SMOOTH",
"8 2 OFFCURVE",
"11 0 OFFCURVE",
"16 0 CURVE SMOOTH",
"496 0 LINE SMOOTH",
"501 0 OFFCURVE",
"505 2 OFFCURVE",
"508 5 CURVE SMOOTH",
"511 8 OFFCURVE",
"512 11 OFFCURVE",
"512 16 CURVE SMOOTH",
"512 79 LINE SMOOTH",
"512 84 OFFCURVE",
"511 88 OFFCURVE",
"508 91 CURVE SMOOTH",
"505 94 OFFCURVE",
"501 96 OFFCURVE",
"496 96 CURVE SMOOTH"
);
}
);
width = 512;
}
);
unicode = E00C;
},
{
glyphname = uniE00D;
layers = (
{
layerId = "EEF2BC8D-D964-4B49-BEB0-D3787712A5FD";
name = Regular;
paths = (
{
closed = 1;
nodes = (
"480 355 LINE",
"469 374 OFFCURVE",
"455 392 OFFCURVE",
"440 407 CURVE SMOOTH",
"424 423 OFFCURVE",
"406 437 OFFCURVE",
"387 448 CURVE",
"419 480 LINE",
"450 480 OFFCURVE",
"474 472 OFFCURVE",
"489 457 CURVE SMOOTH",
"496 450 OFFCURVE",
"501 440 OFFCURVE",
"505 429 CURVE SMOOTH",
"509 417 OFFCURVE",
"511 407 OFFCURVE",
"511 399 CURVE",
"512 387 LINE"
);
},
{
closed = 1;
nodes = (
"194 64 LINE",
"96 64 LINE",
"96 162 LINE",
"108 173 LINE",
"129 163 OFFCURVE",
"148 150 OFFCURVE",
"165 133 CURVE SMOOTH",
"182 116 OFFCURVE",
"195 97 OFFCURVE",
"205 76 CURVE"
);
},
{
closed = 1;
nodes = (
"233 104 LINE",
"221 124 OFFCURVE",
"207 142 OFFCURVE",
"191 158 CURVE SMOOTH",
"174 175 OFFCURVE",
"156 189 OFFCURVE",
"136 201 CURVE",
"360 421 LINE",
"381 412 OFFCURVE",
"399 399 OFFCURVE",
"415 383 CURVE SMOOTH",
"431 367 OFFCURVE",
"444 349 OFFCURVE",
"453 328 CURVE"
);
},
{
closed = 1;
nodes = (
"64 416 LINE",
"64 32 LINE",
"448 32 LINE",
"448 192 LINE",
"512 256 LINE",
"512 15 LINE SMOOTH",
"512 2 OFFCURVE",
"508 -9 OFFCURVE",
"499 -18 CURVE SMOOTH",
"490 -27 OFFCURVE",
"478 -32 OFFCURVE",
"465 -32 CURVE SMOOTH",
"47 -32 LINE SMOOTH",
"34 -32 OFFCURVE",
"23 -27 OFFCURVE",
"14 -18 CURVE SMOOTH",
"5 -9 OFFCURVE",
"0 2 OFFCURVE",
"0 15 CURVE SMOOTH",
"0 433 LINE SMOOTH",
"0 446 OFFCURVE",
"5 458 OFFCURVE",
"14 467 CURVE SMOOTH",
"23 476 OFFCURVE",
"34 480 OFFCURVE",
"47 480 CURVE SMOOTH",
"288 480 LINE",
"224 416 LINE"
);
}
);
width = 512;
}
);
unicode = E00D;
},
{
glyphname = uniE00E;
layers = (
{
layerId = "EEF2BC8D-D964-4B49-BEB0-D3787712A5FD";
name = Regular;
paths = (
{
closed = 1;
nodes = (
"352 160 LINE",
"352 96 LINE SMOOTH",
"352 79 OFFCURVE",
"346 64 OFFCURVE",
"333 51 CURVE SMOOTH",
"320 38 OFFCURVE",
"305 32 OFFCURVE",
"288 32 CURVE SMOOTH",
"64 32 LINE SMOOTH",
"47 32 OFFCURVE",
"32 38 OFFCURVE",
"19 51 CURVE SMOOTH",
"6 64 OFFCURVE",
"0 79 OFFCURVE",
"0 96 CURVE SMOOTH",
"0 320 LINE SMOOTH",
"0 337 OFFCURVE",
"6 352 OFFCURVE",
"19 365 CURVE SMOOTH",
"32 378 OFFCURVE",
"47 384 OFFCURVE",
"64 384 CURVE SMOOTH",
"288 384 LINE SMOOTH",
"305 384 OFFCURVE",
"320 378 OFFCURVE",
"333 365 CURVE SMOOTH",
"346 352 OFFCURVE",
"352 337 OFFCURVE",
"352 320 CURVE SMOOTH",
"352 256 LINE",
"480 384 LINE",
"489 384 OFFCURVE",
"496 381 OFFCURVE",
"503 375 CURVE",
"509 368 OFFCURVE",
"512 361 OFFCURVE",
"512 352 CURVE SMOOTH",
"512 64 LINE SMOOTH",
"512 55 OFFCURVE",
"509 48 OFFCURVE",
"503 42 CURVE SMOOTH",
"496 35 OFFCURVE",
"489 32 OFFCURVE",
"480 32 CURVE"
);
}
);
width = 512;
}
);
unicode = E00E;
},
{
glyphname = uniE00F;
layers = (
{
layerId = "EEF2BC8D-D964-4B49-BEB0-D3787712A5FD";
name = Regular;
paths = (
{
closed = 1;
nodes = (
"375 384 LINE",
"353 429 LINE",
"351 434 OFFCURVE",
"346 439 OFFCURVE",
"338 443 CURVE",
"330 446 OFFCURVE",
"322 448 OFFCURVE",
"313 448 CURVE SMOOTH",
"191 448 LINE SMOOTH",
"182 448 OFFCURVE",
"174 446 OFFCURVE",
"167 443 CURVE",
"159 439 OFFCURVE",
"154 434 OFFCURVE",
"151 429 CURVE",
"130 384 LINE",
"64 384 LINE SMOOTH",
"45 384 OFFCURVE",
"31 381 OFFCURVE",
"20 376 CURVE SMOOTH",
"9 371 OFFCURVE",
"3 365 OFFCURVE",
"2 360 CURVE",
"0 352 LINE",
"0 32 LINE SMOOTH",
"0 29 OFFCURVE",
"1 26 OFFCURVE",
"2 23 CURVE SMOOTH",
"3 20 OFFCURVE",
"9 15 OFFCURVE",
"20 9 CURVE SMOOTH",
"31 3 OFFCURVE",
"45 0 OFFCURVE",
"64 0 CURVE SMOOTH",
"448 0 LINE SMOOTH",
"467 0 OFFCURVE",
"481 3 OFFCURVE",
"492 8 CURVE SMOOTH",
"503 13 OFFCURVE",
"509 19 OFFCURVE",
"510 24 CURVE",
"512 32 LINE",
"512 352 LINE SMOOTH",
"512 353 OFFCURVE",
"512 354 OFFCURVE",
"512 356 CURVE",
"511 357 OFFCURVE",
"510 360 OFFCURVE",
"508 364 CURVE",
"505 367 OFFCURVE",
"502 370 OFFCURVE",
"498 373 CURVE SMOOTH",
"494 376 OFFCURVE",
"488 378 OFFCURVE",
"479 381 CURVE",
"470 383 OFFCURVE",
"460 384 OFFCURVE",
"449 384 CURVE SMOOTH"
);
},
{
closed = 1;
nodes = (
"322 77 OFFCURVE",
"291 64 OFFCURVE",
"256 64 CURVE SMOOTH",
"221 64 OFFCURVE",
"191 77 OFFCURVE",
"166 102 CURVE SMOOTH",
"141 127 OFFCURVE",
"128 157 OFFCURVE",
"128 192 CURVE SMOOTH",
"128 227 OFFCURVE",
"141 258 OFFCURVE",
"166 283 CURVE SMOOTH",
"191 308 OFFCURVE",
"221 320 OFFCURVE",
"256 320 CURVE SMOOTH",
"291 320 OFFCURVE",
"322 308 OFFCURVE",
"347 283 CURVE SMOOTH",
"372 258 OFFCURVE",
"384 227 OFFCURVE",
"384 192 CURVE SMOOTH",
"384 157 OFFCURVE",
"372 127 OFFCURVE",
"347 102 CURVE SMOOTH"
);
},
{
closed = 1;
nodes = (
"297 264 OFFCURVE",
"278 272 OFFCURVE",
"256 272 CURVE SMOOTH",
"234 272 OFFCURVE",
"215 264 OFFCURVE",
"200 249 CURVE SMOOTH",
"184 233 OFFCURVE",
"176 214 OFFCURVE",
"176 192 CURVE SMOOTH",
"176 170 OFFCURVE",
"184 151 OFFCURVE",
"200 136 CURVE",
"215 120 OFFCURVE",
"234 112 OFFCURVE",
"256 112 CURVE SMOOTH",
"278 112 OFFCURVE",
"297 120 OFFCURVE",
"313 136 CURVE SMOOTH",
"328 151 OFFCURVE",
"336 170 OFFCURVE",
"336 192 CURVE SMOOTH",
"336 214 OFFCURVE",
"328 233 OFFCURVE",
"313 249 CURVE"
);
}
);
width = 512;
}
);
unicode = E00F;
},
{
glyphname = uniE010;
layers = (
{
layerId = "EEF2BC8D-D964-4B49-BEB0-D3787712A5FD";
name = Regular;
paths = (
{
closed = 1;
nodes = (
"240 448 OFFCURVE",
"233 447 OFFCURVE",
"228 445 CURVE",
"223 442 OFFCURVE",
"219 440 OFFCURVE",
"218 438 CURVE",
"215 434 LINE",
"208 426 OFFCURVE",
"200 416 OFFCURVE",
"189 404 CURVE SMOOTH",
"178 392 OFFCURVE",
"160 376 OFFCURVE",
"136 356 CURVE SMOOTH",
"112 336 OFFCURVE",
"94 326 OFFCURVE",
"82 326 CURVE SMOOTH",
"79 326 LINE",
"76 326 LINE",
"73 326 LINE",
"70 326 LINE",
"67 326 LINE",
"64 326 LINE",
"61 326 LINE",
"58 326 LINE",
"55 326 LINE",
"53 326 LINE",
"50 326 LINE",
"41 326 LINE SMOOTH",
"30 326 OFFCURVE",
"20 322 OFFCURVE",
"12 314 CURVE SMOOTH",
"4 306 OFFCURVE",
"0 296 OFFCURVE",
"0 285 CURVE SMOOTH",
"0 163 LINE SMOOTH",
"0 152 OFFCURVE",
"4 142 OFFCURVE",
"12 135 CURVE",
"20 127 OFFCURVE",
"30 123 OFFCURVE",
"41 123 CURVE SMOOTH",
"82 123 LINE SMOOTH",
"107 123 OFFCURVE",
"151 88 OFFCURVE",
"212 19 CURVE",
"215 15 OFFCURVE",
"217 13 OFFCURVE",
"217 13 CURVE",
"225 5 OFFCURVE",
"235 1 OFFCURVE",
"247 1 CURVE SMOOTH",
"258 1 OFFCURVE",
"268 5 OFFCURVE",
"276 13 CURVE",
"284 20 OFFCURVE",
"288 30 OFFCURVE",
"288 41 CURVE SMOOTH",
"288 407 LINE SMOOTH",
"288 418 OFFCURVE",
"284 428 OFFCURVE",
"276 436 CURVE SMOOTH",
"268 444 OFFCURVE",
"258 448 OFFCURVE",
"247 448 CURVE SMOOTH"
);
},
{
closed = 1;
nodes = (
"398 373 LINE",
"420 355 OFFCURVE",
"437 333 OFFCURVE",
"450 308 CURVE SMOOTH",
"463 282 OFFCURVE",
"469 254 OFFCURVE",
"469 225 CURVE SMOOTH",
"469 195 OFFCURVE",
"463 167 OFFCURVE",
"450 141 CURVE SMOOTH",
"437 115 OFFCURVE",
"420 93 OFFCURVE",
"398 75 CURVE",
"422 40 LINE",
"450 62 OFFCURVE",
"472 89 OFFCURVE",
"488 121 CURVE SMOOTH",
"504 153 OFFCURVE",
"512 188 OFFCURVE",
"512 225 CURVE SMOOTH",
"512 262 OFFCURVE",
"504 296 OFFCURVE",
"488 328 CURVE SMOOTH",
"472 360 OFFCURVE",
"450 387 OFFCURVE",
"422 409 CURVE"
);
},
{
closed = 1;
nodes = (
"350 302 LINE",
"373 281 OFFCURVE",
"384 255 OFFCURVE",
"384 225 CURVE SMOOTH",
"384 194 OFFCURVE",
"373 168 OFFCURVE",
"350 147 CURVE",
"374 111 LINE",
"409 141 OFFCURVE",
"427 179 OFFCURVE",
"427 225 CURVE SMOOTH",
"427 270 OFFCURVE",
"409 308 OFFCURVE",
"374 338 CURVE"
);
}
);
width = 512;
}
);
unicode = E010;
},
{
glyphname = uniE011;
layers = (
{
layerId = "EEF2BC8D-D964-4B49-BEB0-D3787712A5FD";
name = Regular;
paths = (
{
closed = 1;
nodes = (
"387 455 OFFCURVE",
"327 480 OFFCURVE",
"256 480 CURVE SMOOTH",
"185 480 OFFCURVE",
"125 455 OFFCURVE",
"75 405 CURVE SMOOTH",
"25 355 OFFCURVE",
"0 295 OFFCURVE",
"0 224 CURVE SMOOTH",
"0 153 OFFCURVE",
"25 93 OFFCURVE",
"75 43 CURVE SMOOTH",
"125 -7 OFFCURVE",
"185 -32 OFFCURVE",
"256 -32 CURVE SMOOTH",
"327 -32 OFFCURVE",
"387 -7 OFFCURVE",
"437 43 CURVE SMOOTH",
"487 93 OFFCURVE",
"512 153 OFFCURVE",
"512 224 CURVE SMOOTH",
"512 295 OFFCURVE",
"487 355 OFFCURVE",
"437 405 CURVE SMOOTH"
);
},
{
closed = 1;
nodes = (
"332 127 LINE",
"325 119 OFFCURVE",
"317 119 OFFCURVE",
"309 126 CURVE SMOOTH",
"223 200 LINE SMOOTH",
"215 207 OFFCURVE",
"211 215 OFFCURVE",
"212 226 CURVE SMOOTH",
"221 368 LINE",
"221 373 OFFCURVE",
"223 377 OFFCURVE",
"226 380 CURVE SMOOTH",
"229 383 OFFCURVE",
"233 384 OFFCURVE",
"238 384 CURVE SMOOTH",
"248 384 LINE SMOOTH",
"253 384 OFFCURVE",
"257 383 OFFCURVE",
"260 380 CURVE SMOOTH",
"263 377 OFFCURVE",
"265 373 OFFCURVE",
"265 368 CURVE",
"272 252 LINE SMOOTH",
"273 241 OFFCURVE",
"277 232 OFFCURVE",
"284 224 CURVE SMOOTH",
"340 157 LINE",
"347 150 OFFCURVE",
"347 142 OFFCURVE",
"339 134 CURVE SMOOTH"
);
}
);
width = 512;
}
);
unicode = E011;
},
{
glyphname = uniE012;
layers = (
{
layerId = "EEF2BC8D-D964-4B49-BEB0-D3787712A5FD";
name = Regular;
paths = (
{
closed = 1;
nodes = (
"226 400 OFFCURVE",
"195 394 OFFCURVE",
"166 382 CURVE SMOOTH",
"137 370 OFFCURVE",
"112 355 OFFCURVE",
"93 338 CURVE SMOOTH",
"74 321 OFFCURVE",
"57 303 OFFCURVE",
"43 286 CURVE SMOOTH",
"28 269 OFFCURVE",
"18 254 OFFCURVE",
"11 242 CURVE SMOOTH",
"1 224 LINE",
"2 219 OFFCURVE",
"5 212 OFFCURVE",
"9 205 CURVE",
"12 197 OFFCURVE",
"21 183 OFFCURVE",
"36 163 CURVE SMOOTH",
"51 142 OFFCURVE",
"67 124 OFFCURVE",
"85 109 CURVE",
"102 93 OFFCURVE",
"127 79 OFFCURVE",
"158 66 CURVE SMOOTH",
"189 53 OFFCURVE",
"222 47 OFFCURVE",
"257 47 CURVE SMOOTH",
"289 47 OFFCURVE",
"320 53 OFFCURVE",
"350 66 CURVE SMOOTH",
"379 78 OFFCURVE",
"404 92 OFFCURVE",
"423 109 CURVE SMOOTH",
"442 126 OFFCURVE",
"458 143 OFFCURVE",
"473 162 CURVE SMOOTH",
"488 180 OFFCURVE",
"498 194 OFFCURVE",
"504 205 CURVE",
"510 215 OFFCURVE",
"513 221 OFFCURVE",
"513 223 CURVE",
"511 228 OFFCURVE",
"508 234 OFFCURVE",
"504 242 CURVE",
"499 250 OFFCURVE",
"489 264 OFFCURVE",
"473 285 CURVE SMOOTH",
"457 305 OFFCURVE",
"440 323 OFFCURVE",
"422 339 CURVE",
"403 354 OFFCURVE",
"379 368 OFFCURVE",
"350 381 CURVE SMOOTH",
"320 394 OFFCURVE",
"289 400 OFFCURVE",
"257 400 CURVE SMOOTH"
);
},
{
closed = 1;
nodes = (
"314 124 OFFCURVE",
"289 113 OFFCURVE",
"258 113 CURVE SMOOTH",
"227 113 OFFCURVE",
"201 124 OFFCURVE",
"181 145 CURVE SMOOTH",
"161 166 OFFCURVE",
"151 193 OFFCURVE",
"151 224 CURVE SMOOTH",
"151 255 OFFCURVE",
"161 281 OFFCURVE",
"181 302 CURVE SMOOTH",
"201 323 OFFCURVE",
"227 334 OFFCURVE",
"258 334 CURVE SMOOTH",
"289 334 OFFCURVE",
"314 323 OFFCURVE",
"334 302 CURVE SMOOTH",
"354 281 OFFCURVE",
"364 255 OFFCURVE",
"364 224 CURVE SMOOTH",
"364 193 OFFCURVE",
"354 166 OFFCURVE",
"334 145 CURVE SMOOTH"
);
},
{
closed = 1;
nodes = (
"290 283 OFFCURVE",
"275 290 OFFCURVE",
"258 290 CURVE SMOOTH",
"240 290 OFFCURVE",
"225 283 OFFCURVE",
"212 270 CURVE SMOOTH",
"199 257 OFFCURVE",
"193 241 OFFCURVE",
"193 224 CURVE SMOOTH",
"193 206 OFFCURVE",
"199 190 OFFCURVE",
"212 177 CURVE SMOOTH",
"225 164 OFFCURVE",
"240 157 OFFCURVE",
"258 157 CURVE SMOOTH",
"275 157 OFFCURVE",
"290 164 OFFCURVE",
"303 177 CURVE",
"315 190 OFFCURVE",
"321 206 OFFCURVE",
"321 224 CURVE SMOOTH",
"321 241 OFFCURVE",
"315 257 OFFCURVE",
"303 270 CURVE"
);
}
);
width = 512;
}
);
unicode = E012;
},
{
glyphname = uniE013;
layers = (
{
layerId = "EEF2BC8D-D964-4B49-BEB0-D3787712A5FD";
name = Regular;
paths = (
{
closed = 1;
nodes = (
"374 -29 LINE",
"376 -31 OFFCURVE",
"378 -32 OFFCURVE",
"379 -32 CURVE SMOOTH",
"382 -32 OFFCURVE",
"384 -30 OFFCURVE",
"384 -25 CURVE SMOOTH",
"384 82 LINE SMOOTH",
"384 86 OFFCURVE",
"385 89 OFFCURVE",
"388 92 CURVE",
"390 95 OFFCURVE",
"393 96 OFFCURVE",
"396 96 CURVE SMOOTH",
"448 96 LINE SMOOTH",
"460 96 OFFCURVE",
"470 97 OFFCURVE",
"479 99 CURVE SMOOTH",
"488 101 OFFCURVE",
"494 104 OFFCURVE",
"498 107 CURVE SMOOTH",
"502 110 OFFCURVE",
"505 113 OFFCURVE",
"508 116 CURVE",
"510 119 OFFCURVE",
"511 121 OFFCURVE",
"512 124 CURVE",
"512 127 LINE",
"512 447 LINE SMOOTH",
"512 448 OFFCURVE",
"512 449 OFFCURVE",
"512 451 CURVE",
"511 452 OFFCURVE",
"510 455 OFFCURVE",
"508 459 CURVE",
"505 462 OFFCURVE",
"502 466 OFFCURVE",
"498 469 CURVE SMOOTH",
"494 472 OFFCURVE",
"488 474 OFFCURVE",
"479 477 CURVE",
"470 479 OFFCURVE",
"460 480 OFFCURVE",
"448 480 CURVE SMOOTH",
"64 480 LINE SMOOTH",
"52 480 OFFCURVE",
"42 479 OFFCURVE",
"33 477 CURVE",
"24 474 OFFCURVE",
"18 471 OFFCURVE",
"14 468 CURVE SMOOTH",
"10 465 OFFCURVE",
"7 462 OFFCURVE",
"5 459 CURVE",
"2 456 OFFCURVE",
"1 453 OFFCURVE",
"0 450 CURVE",
"0 447 LINE",
"0 127 LINE SMOOTH",
"0 126 OFFCURVE",
"0 124 OFFCURVE",
"1 123 CURVE",
"1 122 OFFCURVE",
"2 119 OFFCURVE",
"5 116 CURVE",
"7 113 OFFCURVE",
"10 110 OFFCURVE",
"14 107 CURVE SMOOTH",
"18 104 OFFCURVE",
"24 102 OFFCURVE",
"33 100 CURVE",
"42 97 OFFCURVE",
"52 96 OFFCURVE",
"64 96 CURVE SMOOTH",
"192 96 LINE",
"210 95 OFFCURVE",
"222 91 OFFCURVE",
"229 84 CURVE"
);
}
);
width = 512;
}
);
unicode = E013;
},
{
glyphname = uniE015;
layers = (
{
layerId = "EEF2BC8D-D964-4B49-BEB0-D3787712A5FD";
name = Regular;
paths = (
{
closed = 1;
nodes = (
"512 13 LINE SMOOTH",
"512 1 OFFCURVE",
"508 -9 OFFCURVE",
"499 -18 CURVE SMOOTH",
"490 -27 OFFCURVE",
"478 -32 OFFCURVE",
"465 -32 CURVE SMOOTH",
"320 -32 LINE",
"320 144 LINE SMOOTH",
"320 157 OFFCURVE",
"316 169 OFFCURVE",
"308 178 CURVE",
"299 187 OFFCURVE",
"289 192 OFFCURVE",
"277 192 CURVE SMOOTH",
"235 192 LINE SMOOTH",
"223 192 OFFCURVE",
"213 187 OFFCURVE",
"205 178 CURVE",
"196 169 OFFCURVE",
"192 157 OFFCURVE",
"192 144 CURVE SMOOTH",
"192 -32 LINE",
"47 -32 LINE SMOOTH",
"34 -32 OFFCURVE",
"23 -27 OFFCURVE",
"14 -18 CURVE SMOOTH",
"5 -9 OFFCURVE",
"0 1 OFFCURVE",
"0 13 CURVE SMOOTH",
"0 253 LINE SMOOTH",
"0 264 OFFCURVE",
"4 274 OFFCURVE",
"12 283 CURVE",
"12 284 LINE",
"225 471 LINE",
"233 477 OFFCURVE",
"243 480 OFFCURVE",
"256 480 CURVE SMOOTH",
"268 480 OFFCURVE",
"278 477 OFFCURVE",
"287 471 CURVE",
"500 284 LINE",
"500 283 LINE",
"508 274 OFFCURVE",
"512 264 OFFCURVE",
"512 253 CURVE SMOOTH"
);
}
);
width = 512;
}
);
unicode = E015;
},
{
glyphname = uniE01B;
layers = (
{
layerId = "EEF2BC8D-D964-4B49-BEB0-D3787712A5FD";
name = Regular;
paths = (
{
closed = 1;
nodes = (
"352 -32 LINE",
"352 32 LINE",
"448 32 LINE",
"448 352 LINE",
"64 352 LINE",
"64 32 LINE",
"160 32 LINE",
"160 -32 LINE",
"64 -32 LINE SMOOTH",
"47 -32 OFFCURVE",
"32 -26 OFFCURVE",
"19 -13 CURVE SMOOTH",
"6 0 OFFCURVE",
"0 15 OFFCURVE",
"0 32 CURVE SMOOTH",
"0 416 LINE SMOOTH",
"0 433 OFFCURVE",
"6 448 OFFCURVE",
"19 461 CURVE SMOOTH",
"32 474 OFFCURVE",
"47 480 OFFCURVE",
"64 480 CURVE SMOOTH",
"448 480 LINE SMOOTH",
"465 480 OFFCURVE",
"480 474 OFFCURVE",
"493 461 CURVE SMOOTH",
"506 448 OFFCURVE",
"512 433 OFFCURVE",
"512 416 CURVE SMOOTH",
"512 32 LINE SMOOTH",
"512 15 OFFCURVE",
"506 0 OFFCURVE",
"493 -13 CURVE SMOOTH",
"480 -26 OFFCURVE",
"465 -32 OFFCURVE",
"448 -32 CURVE SMOOTH"
);
},
{
closed = 1;
nodes = (
"64 407 OFFCURVE",
"67 400 OFFCURVE",
"74 394 CURVE",
"80 387 OFFCURVE",
"87 384 OFFCURVE",
"96 384 CURVE SMOOTH",
"105 384 OFFCURVE",
"112 387 OFFCURVE",
"119 394 CURVE SMOOTH",
"125 400 OFFCURVE",
"128 407 OFFCURVE",
"128 416 CURVE SMOOTH",
"128 425 OFFCURVE",
"125 432 OFFCURVE",
"119 439 CURVE",
"112 445 OFFCURVE",
"105 448 OFFCURVE",
"96 448 CURVE SMOOTH",
"87 448 OFFCURVE",
"80 445 OFFCURVE",
"74 439 CURVE SMOOTH",
"67 432 OFFCURVE",
"64 425 OFFCURVE",
"64 416 CURVE SMOOTH"
);
},
{
closed = 1;
nodes = (
"160 407 OFFCURVE",
"163 400 OFFCURVE",
"170 394 CURVE",
"176 387 OFFCURVE",
"183 384 OFFCURVE",
"192 384 CURVE SMOOTH",
"201 384 OFFCURVE",
"208 387 OFFCURVE",
"215 394 CURVE SMOOTH",
"221 400 OFFCURVE",
"224 407 OFFCURVE",
"224 416 CURVE SMOOTH",
"224 425 OFFCURVE",
"221 432 OFFCURVE",
"215 439 CURVE",
"208 445 OFFCURVE",
"201 448 OFFCURVE",
"192 448 CURVE SMOOTH",
"183 448 OFFCURVE",
"176 445 OFFCURVE",
"170 439 CURVE SMOOTH",
"163 432 OFFCURVE",
"160 425 OFFCURVE",
"160 416 CURVE SMOOTH"
);
},
{
closed = 1;
nodes = (
"234 247 LINE SMOOTH",
"237 250 OFFCURVE",
"240 252 OFFCURVE",
"245 254 CURVE",
"248 255 OFFCURVE",
"251 256 OFFCURVE",
"254 256 CURVE SMOOTH",
"255 256 OFFCURVE",
"256 256 OFFCURVE",
"257 256 CURVE SMOOTH",
"258 256 OFFCURVE",
"259 256 OFFCURVE",
"261 255 CURVE",
"268 254 OFFCURVE",
"273 251 OFFCURVE",
"277 247 CURVE SMOOTH",
"375 142 LINE",
"381 137 OFFCURVE",
"384 130 OFFCURVE",
"384 122 CURVE SMOOTH",
"384 113 OFFCURVE",
"381 106 OFFCURVE",
"376 101 CURVE SMOOTH",
"370 95 OFFCURVE",
"363 92 OFFCURVE",
"355 92 CURVE SMOOTH",
"347 92 OFFCURVE",
"340 95 OFFCURVE",
"335 100 CURVE",
"288 160 LINE",
"288 0 LINE SMOOTH",
"288 -9 OFFCURVE",
"285 -16 OFFCURVE",
"278 -22 CURVE",
"271 -29 OFFCURVE",
"264 -32 OFFCURVE",
"256 -32 CURVE SMOOTH",
"247 -32 OFFCURVE",
"240 -29 OFFCURVE",
"234 -22 CURVE",
"227 -16 OFFCURVE",
"224 -9 OFFCURVE",
"224 0 CURVE SMOOTH",
"224 160 LINE",
"176 100 LINE",
"171 95 OFFCURVE",
"164 92 OFFCURVE",
"156 92 CURVE SMOOTH",
"148 92 OFFCURVE",
"141 95 OFFCURVE",
"136 101 CURVE",
"131 106 OFFCURVE",
"128 113 OFFCURVE",
"128 122 CURVE SMOOTH",
"128 130 OFFCURVE",
"131 137 OFFCURVE",
"136 142 CURVE SMOOTH"
);
}
);
width = 512;
}
);
unicode = E01B;
},
{
glyphname = uniE01C;
layers = (
{
layerId = "EEF2BC8D-D964-4B49-BEB0-D3787712A5FD";
name = Regular;
paths = (
{
closed = 1;
nodes = (
"362 177 LINE SMOOTH",
"355 184 OFFCURVE",
"353 191 OFFCURVE",
"358 200 CURVE",
"373 235 OFFCURVE",
"381 264 OFFCURVE",
"381 289 CURVE SMOOTH",
"381 342 OFFCURVE",
"363 387 OFFCURVE",
"326 424 CURVE SMOOTH",
"289 461 OFFCURVE",
"244 480 OFFCURVE",
"191 480 CURVE SMOOTH",
"138 480 OFFCURVE",
"93 461 OFFCURVE",
"56 424 CURVE SMOOTH",
"19 387 OFFCURVE",
"0 342 OFFCURVE",
"0 289 CURVE SMOOTH",
"0 236 OFFCURVE",
"19 192 OFFCURVE",
"56 155 CURVE SMOOTH",
"93 118 OFFCURVE",
"138 99 OFFCURVE",
"191 99 CURVE SMOOTH",
"202 99 OFFCURVE",
"215 101 OFFCURVE",
"230 105 CURVE",
"245 108 OFFCURVE",
"257 112 OFFCURVE",
"266 116 CURVE SMOOTH",
"279 122 LINE",
"288 127 OFFCURVE",
"296 125 OFFCURVE",
"303 118 CURVE SMOOTH",
"449 -28 LINE SMOOTH",
"456 -35 OFFCURVE",
"462 -35 OFFCURVE",
"469 -28 CURVE SMOOTH",
"507 10 LINE SMOOTH",
"514 17 OFFCURVE",
"514 24 OFFCURVE",
"507 31 CURVE SMOOTH"
);
},
{
closed = 1;
nodes = (
"243 197 OFFCURVE",
"219 187 OFFCURVE",
"191 187 CURVE SMOOTH",
"162 187 OFFCURVE",
"138 197 OFFCURVE",
"118 217 CURVE SMOOTH",
"98 237 OFFCURVE",
"88 261 OFFCURVE",
"88 290 CURVE SMOOTH",
"88 318 OFFCURVE",
"98 342 OFFCURVE",
"118 362 CURVE SMOOTH",
"138 382 OFFCURVE",
"162 392 OFFCURVE",
"191 392 CURVE SMOOTH",
"219 392 OFFCURVE",
"243 382 OFFCURVE",
"263 362 CURVE SMOOTH",
"283 342 OFFCURVE",
"293 318 OFFCURVE",
"293 290 CURVE SMOOTH",
"293 261 OFFCURVE",
"283 237 OFFCURVE",
"263 217 CURVE SMOOTH"
);
}
);
width = 512;
}
);
unicode = E01C;
},
{
glyphname = uniE01D;
layers = (
{
layerId = "EEF2BC8D-D964-4B49-BEB0-D3787712A5FD";
name = Regular;
paths = (
{
closed = 1;
nodes = (
"208 307 OFFCURVE",
"230 298 OFFCURVE",
"257 298 CURVE SMOOTH",
"283 298 OFFCURVE",
"306 307 OFFCURVE",
"325 325 CURVE SMOOTH",
"344 342 OFFCURVE",
"353 364 OFFCURVE",
"353 389 CURVE SMOOTH",
"353 414 OFFCURVE",
"344 436 OFFCURVE",
"325 454 CURVE SMOOTH",
"306 471 OFFCURVE",
"283 480 OFFCURVE",
"257 480 CURVE SMOOTH",
"230 480 OFFCURVE",
"208 471 OFFCURVE",
"189 454 CURVE SMOOTH",
"170 436 OFFCURVE",
"160 414 OFFCURVE",
"160 389 CURVE SMOOTH",
"160 364 OFFCURVE",
"170 342 OFFCURVE",
"189 325 CURVE SMOOTH"
);
},
{
closed = 1;
nodes = (
"309 276 OFFCURVE",
"284 268 OFFCURVE",
"257 268 CURVE SMOOTH",
"229 268 OFFCURVE",
"204 276 OFFCURVE",
"181 292 CURVE",
"137 283 OFFCURVE",
"101 266 OFFCURVE",
"74 243 CURVE SMOOTH",
"46 220 OFFCURVE",
"32 194 OFFCURVE",
"32 165 CURVE SMOOTH",
"32 36 LINE SMOOTH",
"32 31 OFFCURVE",
"34 28 OFFCURVE",
"37 25 CURVE SMOOTH",
"40 22 OFFCURVE",
"43 20 OFFCURVE",
"48 20 CURVE SMOOTH",
"80 20 LINE SMOOTH",
"85 20 OFFCURVE",
"89 21 OFFCURVE",
"92 24 CURVE SMOOTH",
"95 27 OFFCURVE",
"96 30 OFFCURVE",
"96 34 CURVE SMOOTH",
"96 135 LINE SMOOTH",
"96 139 OFFCURVE",
"98 141 OFFCURVE",
"103 140 CURVE",
"104 140 OFFCURVE",
"106 140 OFFCURVE",
"107 140 CURVE SMOOTH",
"114 140 OFFCURVE",
"117 137 OFFCURVE",
"117 130 CURVE SMOOTH",
"118 40 LINE",
"120 12 OFFCURVE",
"123 -2 OFFCURVE",
"128 -3 CURVE",
"131 -6 OFFCURVE",
"135 -8 OFFCURVE",
"140 -11 CURVE SMOOTH",
"145 -14 OFFCURVE",
"159 -19 OFFCURVE",
"181 -24 CURVE SMOOTH",
"203 -29 OFFCURVE",
"228 -32 OFFCURVE",
"256 -32 CURVE SMOOTH",
"284 -32 OFFCURVE",
"309 -30 OFFCURVE",
"331 -25 CURVE SMOOTH",
"352 -20 OFFCURVE",
"366 -15 OFFCURVE",
"373 -10 CURVE",
"384 -3 LINE",
"389 -2 OFFCURVE",
"392 12 OFFCURVE",
"394 40 CURVE",
"395 130 LINE SMOOTH",
"395 137 OFFCURVE",
"399 140 OFFCURVE",
"406 140 CURVE SMOOTH",
"413 140 OFFCURVE",
"416 137 OFFCURVE",
"416 130 CURVE SMOOTH",
"416 34 LINE SMOOTH",
"416 30 OFFCURVE",
"418 27 OFFCURVE",
"421 24 CURVE SMOOTH",
"424 21 OFFCURVE",
"427 20 OFFCURVE",
"432 20 CURVE SMOOTH",
"464 20 LINE SMOOTH",
"469 20 OFFCURVE",
"473 22 OFFCURVE",
"476 25 CURVE SMOOTH",
"479 28 OFFCURVE",
"480 31 OFFCURVE",
"480 36 CURVE SMOOTH",
"480 165 LINE SMOOTH",
"480 194 OFFCURVE",
"466 220 OFFCURVE",
"439 243 CURVE SMOOTH",
"412 266 OFFCURVE",
"376 283 OFFCURVE",
"332 292 CURVE"
);
}
);
width = 512;
}
);
unicode = E01D;
},
{
glyphname = uniE01E;
layers = (
{
layerId = "EEF2BC8D-D964-4B49-BEB0-D3787712A5FD";
name = Regular;
paths = (
{
closed = 1;
nodes = (
"64 416 LINE SMOOTH",
"50 416 OFFCURVE",
"36 411 OFFCURVE",
"22 402 CURVE SMOOTH",
"7 393 OFFCURVE",
"0 382 OFFCURVE",
"0 371 CURVE SMOOTH",
"0 361 LINE",
"6 356 OFFCURVE",
"14 350 OFFCURVE",
"24 342 CURVE",
"33 334 OFFCURVE",
"51 320 OFFCURVE",
"78 299 CURVE SMOOTH",
"104 278 OFFCURVE",
"128 259 OFFCURVE",
"150 244 CURVE",
"171 228 OFFCURVE",
"193 214 OFFCURVE",
"214 201 CURVE SMOOTH",
"235 188 OFFCURVE",
"249 181 OFFCURVE",
"256 181 CURVE SMOOTH",
"263 181 OFFCURVE",
"278 187 OFFCURVE",
"299 200 CURVE SMOOTH",
"320 213 OFFCURVE",
"341 227 OFFCURVE",
"363 243 CURVE SMOOTH",
"384 259 OFFCURVE",
"408 277 OFFCURVE",
"434 298 CURVE SMOOTH",
"460 319 OFFCURVE",
"478 333 OFFCURVE",
"488 342 CURVE",
"498 350 OFFCURVE",
"506 356 OFFCURVE",
"512 361 CURVE",
"512 370 LINE SMOOTH",
"512 382 OFFCURVE",
"505 393 OFFCURVE",
"491 402 CURVE SMOOTH",
"476 411 OFFCURVE",
"462 416 OFFCURVE",
"448 416 CURVE SMOOTH"
);
},
{
closed = 1;
nodes = (
"0 32 LINE SMOOTH",
"0 31 OFFCURVE",
"0 30 OFFCURVE",
"1 29 CURVE",
"1 27 OFFCURVE",
"2 24 OFFCURVE",
"5 21 CURVE",
"7 17 OFFCURVE",
"10 14 OFFCURVE",
"14 11 CURVE SMOOTH",
"18 8 OFFCURVE",
"24 6 OFFCURVE",
"33 4 CURVE",
"42 1 OFFCURVE",
"52 0 OFFCURVE",
"64 0 CURVE SMOOTH",
"448 0 LINE SMOOTH",
"460 0 OFFCURVE",
"470 1 OFFCURVE",
"479 4 CURVE",
"488 6 OFFCURVE",
"494 8 OFFCURVE",
"498 11 CURVE SMOOTH",
"502 14 OFFCURVE",
"505 17 OFFCURVE",
"508 21 CURVE",
"510 24 OFFCURVE",
"511 27 OFFCURVE",
"512 29 CURVE",
"512 30 OFFCURVE",
"512 31 OFFCURVE",
"512 32 CURVE SMOOTH",
"512 289 LINE",
"507 285 OFFCURVE",
"501 279 OFFCURVE",
"492 272 CURVE SMOOTH",
"483 265 OFFCURVE",
"467 252 OFFCURVE",
"444 233 CURVE SMOOTH",
"420 214 OFFCURVE",
"398 198 OFFCURVE",
"378 184 CURVE SMOOTH",
"357 169 OFFCURVE",
"335 156 OFFCURVE",
"312 145 CURVE SMOOTH",
"289 133 OFFCURVE",
"270 127 OFFCURVE",
"256 127 CURVE SMOOTH",
"234 127 OFFCURVE",
"202 141 OFFCURVE",
"160 168 CURVE SMOOTH",
"118 195 OFFCURVE",
"81 221 OFFCURVE",
"48 248 CURVE SMOOTH",
"15 275 OFFCURVE",
"-1 288 OFFCURVE",
"0 288 CURVE"
);
}
);
width = 512;
}
);
unicode = E01E;
},
{
glyphname = uniE01F;
layers = (
{
layerId = "EEF2BC8D-D964-4B49-BEB0-D3787712A5FD";
name = Regular;
paths = (
{
closed = 1;
nodes = (
"64 -32 LINE SMOOTH",
"55 -32 OFFCURVE",
"48 -29 OFFCURVE",
"42 -22 CURVE",
"35 -16 OFFCURVE",
"32 -9 OFFCURVE",
"32 0 CURVE SMOOTH",
"32 224 LINE SMOOTH",
"32 233 OFFCURVE",
"35 240 OFFCURVE",
"42 247 CURVE SMOOTH",
"48 253 OFFCURVE",
"55 256 OFFCURVE",
"64 256 CURVE SMOOTH",
"96 256 LINE",
"96 320 LINE SMOOTH",
"96 364 OFFCURVE",
"112 402 OFFCURVE",
"143 433 CURVE SMOOTH",
"174 464 OFFCURVE",
"212 480 OFFCURVE",
"256 480 CURVE SMOOTH",
"300 480 OFFCURVE",
"338 464 OFFCURVE",
"369 433 CURVE SMOOTH",
"400 402 OFFCURVE",
"416 364 OFFCURVE",
"416 320 CURVE SMOOTH",
"416 256 LINE",
"448 256 LINE SMOOTH",
"457 256 OFFCURVE",
"464 253 OFFCURVE",
"471 247 CURVE",
"477 240 OFFCURVE",
"480 233 OFFCURVE",
"480 224 CURVE SMOOTH",
"480 0 LINE SMOOTH",
"480 -9 OFFCURVE",
"477 -16 OFFCURVE",
"471 -22 CURVE SMOOTH",
"464 -29 OFFCURVE",
"457 -32 OFFCURVE",
"448 -32 CURVE SMOOTH"
);
},
{
closed = 1;
nodes = (
"352 320 LINE SMOOTH",
"352 347 OFFCURVE",
"343 369 OFFCURVE",
"324 388 CURVE SMOOTH",
"305 407 OFFCURVE",
"283 416 OFFCURVE",
"256 416 CURVE SMOOTH",
"229 416 OFFCURVE",
"207 407 OFFCURVE",
"188 388 CURVE SMOOTH",
"169 369 OFFCURVE",
"160 347 OFFCURVE",
"160 320 CURVE SMOOTH",
"160 256 LINE",
"352 256 LINE"
);
}
);
width = 512;
}
);
unicode = E01F;
},
{
glyphname = uniE020;
layers = (
{
layerId = "EEF2BC8D-D964-4B49-BEB0-D3787712A5FD";
name = Regular;
paths = (
{
closed = 1;
nodes = (
"384 377 LINE",
"384 378 OFFCURVE",
"384 378 OFFCURVE",
"384 378 CURVE SMOOTH",
"383 378 OFFCURVE",
"383 378 OFFCURVE",
"383 379 CURVE",
"376 384 OFFCURVE",
"368 385 OFFCURVE",
"359 384 CURVE",
"350 382 OFFCURVE",
"344 377 OFFCURVE",
"339 370 CURVE SMOOTH",
"334 363 OFFCURVE",
"332 355 OFFCURVE",
"333 346 CURVE SMOOTH",
"334 337 OFFCURVE",
"339 331 OFFCURVE",
"346 326 CURVE",
"346 325 OFFCURVE",
"346 325 OFFCURVE",
"347 325 CURVE",
"368 310 OFFCURVE",
"385 291 OFFCURVE",
"398 268 CURVE SMOOTH",
"410 245 OFFCURVE",
"416 220 OFFCURVE",
"416 193 CURVE SMOOTH",
"416 148 OFFCURVE",
"400 110 OFFCURVE",
"369 79 CURVE SMOOTH",
"338 48 OFFCURVE",
"300 32 OFFCURVE",
"256 32 CURVE SMOOTH",
"212 32 OFFCURVE",
"174 48 OFFCURVE",
"143 79 CURVE SMOOTH",
"112 110 OFFCURVE",
"96 148 OFFCURVE",
"96 193 CURVE SMOOTH",
"96 220 OFFCURVE",
"102 245 OFFCURVE",
"115 268 CURVE SMOOTH",
"127 291 OFFCURVE",
"144 310 OFFCURVE",
"165 325 CURVE",
"165 325 LINE SMOOTH",
"165 325 OFFCURVE",
"165 325 OFFCURVE",
"166 326 CURVE",
"173 331 OFFCURVE",
"178 337 OFFCURVE",
"179 346 CURVE SMOOTH",
"180 355 OFFCURVE",
"179 363 OFFCURVE",
"174 370 CURVE SMOOTH",
"169 377 OFFCURVE",
"162 382 OFFCURVE",
"153 384 CURVE",
"144 385 OFFCURVE",
"136 384 OFFCURVE",
"129 379 CURVE",
"129 378 OFFCURVE",
"129 378 OFFCURVE",
"129 378 CURVE SMOOTH",
"128 378 OFFCURVE",
"128 378 OFFCURVE",
"128 377 CURVE",
"128 378 LINE",
"99 357 OFFCURVE",
"75 330 OFFCURVE",
"58 298 CURVE SMOOTH",
"41 265 OFFCURVE",
"32 230 OFFCURVE",
"32 193 CURVE SMOOTH",
"32 131 OFFCURVE",
"54 78 OFFCURVE",
"98 34 CURVE SMOOTH",
"141 -10 OFFCURVE",
"194 -32 OFFCURVE",
"256 -32 CURVE SMOOTH",
"318 -32 OFFCURVE",
"371 -10 OFFCURVE",
"415 34 CURVE SMOOTH",
"458 78 OFFCURVE",
"480 131 OFFCURVE",
"480 193 CURVE SMOOTH",
"480 230 OFFCURVE",
"471 265 OFFCURVE",
"454 298 CURVE SMOOTH",
"437 330 OFFCURVE",
"413 357 OFFCURVE",
"384 378 CURVE"
);
},
{
closed = 1;
nodes = (
"288 416 LINE SMOOTH",
"288 425 OFFCURVE",
"285 432 OFFCURVE",
"279 439 CURVE",
"272 445 OFFCURVE",
"265 448 OFFCURVE",
"256 448 CURVE SMOOTH",
"247 448 OFFCURVE",
"240 445 OFFCURVE",
"234 439 CURVE SMOOTH",
"227 432 OFFCURVE",
"224 425 OFFCURVE",
"224 416 CURVE SMOOTH",
"224 192 LINE SMOOTH",
"224 183 OFFCURVE",
"227 176 OFFCURVE",
"234 170 CURVE",
"240 163 OFFCURVE",
"247 160 OFFCURVE",
"256 160 CURVE SMOOTH",
"265 160 OFFCURVE",
"272 163 OFFCURVE",
"279 170 CURVE SMOOTH",
"285 176 OFFCURVE",
"288 183 OFFCURVE",
"288 192 CURVE SMOOTH"
);
}
);
width = 512;
}
);
unicode = E020;
},
{
glyphname = uniE021;
layers = (
{
layerId = "EEF2BC8D-D964-4B49-BEB0-D3787712A5FD";
name = Regular;
paths = (
{
closed = 1;
nodes = (
"144 224 OFFCURVE",
"224 304 OFFCURVE",
"240 448 CURVE",
"256 304 OFFCURVE",
"336 224 OFFCURVE",
"480 208 CURVE",
"336 192 OFFCURVE",
"256 112 OFFCURVE",
"240 -32 CURVE",
"224 112 OFFCURVE",
"144 192 OFFCURVE",
"0 208 CURVE"
);
}
);
width = 512;
}
);
unicode = E021;
},
{
glyphname = uniE023;
layers = (
{
layerId = "EEF2BC8D-D964-4B49-BEB0-D3787712A5FD";
name = Regular;
paths = (
{
closed = 1;
nodes = (
"176 285 OFFCURVE",
"169 288 OFFCURVE",
"160 288 CURVE SMOOTH",
"151 288 OFFCURVE",
"144 285 OFFCURVE",
"138 279 CURVE SMOOTH",
"131 272 OFFCURVE",
"128 265 OFFCURVE",
"128 256 CURVE SMOOTH",
"128 247 OFFCURVE",
"131 240 OFFCURVE",
"138 234 CURVE",
"144 227 OFFCURVE",
"151 224 OFFCURVE",
"160 224 CURVE SMOOTH",
"169 224 OFFCURVE",
"176 227 OFFCURVE",
"183 234 CURVE SMOOTH",
"189 240 OFFCURVE",
"192 247 OFFCURVE",
"192 256 CURVE SMOOTH",
"192 265 OFFCURVE",
"189 272 OFFCURVE",
"183 279 CURVE"
);
},
{
closed = 1;
nodes = (
"272 189 OFFCURVE",
"265 192 OFFCURVE",
"256 192 CURVE SMOOTH",
"247 192 OFFCURVE",
"240 189 OFFCURVE",
"234 183 CURVE SMOOTH",
"227 176 OFFCURVE",
"224 169 OFFCURVE",
"224 160 CURVE SMOOTH",
"224 151 OFFCURVE",
"227 144 OFFCURVE",
"234 138 CURVE",
"240 131 OFFCURVE",
"247 128 OFFCURVE",
"256 128 CURVE SMOOTH",
"265 128 OFFCURVE",
"272 131 OFFCURVE",
"279 138 CURVE SMOOTH",
"285 144 OFFCURVE",
"288 151 OFFCURVE",
"288 160 CURVE SMOOTH",
"288 169 OFFCURVE",
"285 176 OFFCURVE",
"279 183 CURVE"
);
},
{
closed = 1;
nodes = (
"176 189 OFFCURVE",
"169 192 OFFCURVE",
"160 192 CURVE SMOOTH",
"151 192 OFFCURVE",
"144 189 OFFCURVE",
"138 183 CURVE SMOOTH",
"131 176 OFFCURVE",
"128 169 OFFCURVE",
"128 160 CURVE SMOOTH",
"128 151 OFFCURVE",
"131 144 OFFCURVE",
"138 138 CURVE",
"144 131 OFFCURVE",
"151 128 OFFCURVE",
"160 128 CURVE SMOOTH",
"169 128 OFFCURVE",
"176 131 OFFCURVE",
"183 138 CURVE SMOOTH",
"189 144 OFFCURVE",
"192 151 OFFCURVE",
"192 160 CURVE SMOOTH",
"192 169 OFFCURVE",
"189 176 OFFCURVE",
"183 183 CURVE"
);
},
{
closed = 1;
nodes = (
"384 448 LINE",
"384 457 OFFCURVE",
"381 464 OFFCURVE",
"375 471 CURVE",
"368 477 OFFCURVE",
"361 480 OFFCURVE",
"352 480 CURVE SMOOTH",
"343 480 OFFCURVE",
"336 477 OFFCURVE",
"330 471 CURVE SMOOTH",
"323 464 OFFCURVE",
"320 457 OFFCURVE",
"320 448 CURVE",
"192 448 LINE",
"192 457 OFFCURVE",
"189 464 OFFCURVE",
"183 471 CURVE",
"176 477 OFFCURVE",
"169 480 OFFCURVE",
"160 480 CURVE SMOOTH",
"151 480 OFFCURVE",
"144 477 OFFCURVE",
"138 471 CURVE SMOOTH",
"131 464 OFFCURVE",
"128 457 OFFCURVE",
"128 448 CURVE",
"64 448 LINE SMOOTH",
"47 448 OFFCURVE",
"32 442 OFFCURVE",
"19 429 CURVE SMOOTH",
"6 416 OFFCURVE",
"0 401 OFFCURVE",
"0 384 CURVE SMOOTH",
"0 64 LINE SMOOTH",
"0 46 OFFCURVE",
"6 31 OFFCURVE",
"19 19 CURVE",
"31 6 OFFCURVE",
"46 0 OFFCURVE",
"64 0 CURVE SMOOTH",
"448 0 LINE SMOOTH",
"466 0 OFFCURVE",
"481 6 OFFCURVE",
"494 19 CURVE SMOOTH",
"506 31 OFFCURVE",
"512 46 OFFCURVE",
"512 64 CURVE SMOOTH",
"512 384 LINE SMOOTH",
"512 401 OFFCURVE",
"506 416 OFFCURVE",
"493 429 CURVE SMOOTH",
"480 442 OFFCURVE",
"465 448 OFFCURVE",
"448 448 CURVE SMOOTH"
);
},
{
closed = 1;
nodes = (
"448 64 LINE",
"64 64 LINE",
"64 384 LINE",
"128 384 LINE",
"128 375 OFFCURVE",
"131 368 OFFCURVE",
"138 362 CURVE",
"144 355 OFFCURVE",
"151 352 OFFCURVE",
"160 352 CURVE SMOOTH",
"169 352 OFFCURVE",
"176 355 OFFCURVE",
"183 362 CURVE SMOOTH",
"189 368 OFFCURVE",
"192 375 OFFCURVE",
"192 384 CURVE",
"320 384 LINE",
"320 375 OFFCURVE",
"323 368 OFFCURVE",
"330 362 CURVE",
"336 355 OFFCURVE",
"343 352 OFFCURVE",
"352 352 CURVE SMOOTH",
"361 352 OFFCURVE",
"368 355 OFFCURVE",
"375 362 CURVE SMOOTH",
"381 368 OFFCURVE",
"384 375 OFFCURVE",
"384 384 CURVE",
"448 384 LINE"
);
},
{
closed = 1;
nodes = (
"368 285 OFFCURVE",
"361 288 OFFCURVE",
"352 288 CURVE SMOOTH",
"343 288 OFFCURVE",
"336 285 OFFCURVE",
"330 279 CURVE SMOOTH",
"323 272 OFFCURVE",
"320 265 OFFCURVE",
"320 256 CURVE SMOOTH",
"320 247 OFFCURVE",
"323 240 OFFCURVE",
"330 234 CURVE",
"336 227 OFFCURVE",
"343 224 OFFCURVE",
"352 224 CURVE SMOOTH",
"361 224 OFFCURVE",
"368 227 OFFCURVE",
"375 234 CURVE SMOOTH",
"381 240 OFFCURVE",
"384 247 OFFCURVE",
"384 256 CURVE SMOOTH",
"384 265 OFFCURVE",
"381 272 OFFCURVE",
"375 279 CURVE"
);
},
{
closed = 1;
nodes = (
"272 285 OFFCURVE",
"265 288 OFFCURVE",
"256 288 CURVE SMOOTH",
"247 288 OFFCURVE",
"240 285 OFFCURVE",
"234 279 CURVE SMOOTH",
"227 272 OFFCURVE",
"224 265 OFFCURVE",
"224 256 CURVE SMOOTH",
"224 247 OFFCURVE",
"227 240 OFFCURVE",
"234 234 CURVE",
"240 227 OFFCURVE",
"247 224 OFFCURVE",
"256 224 CURVE SMOOTH",
"265 224 OFFCURVE",
"272 227 OFFCURVE",
"279 234 CURVE SMOOTH",
"285 240 OFFCURVE",
"288 247 OFFCURVE",
"288 256 CURVE SMOOTH",
"288 265 OFFCURVE",
"285 272 OFFCURVE",
"279 279 CURVE"
);
},
{
closed = 1;
nodes = (
"368 189 OFFCURVE",
"361 192 OFFCURVE",
"352 192 CURVE SMOOTH",
"343 192 OFFCURVE",
"336 189 OFFCURVE",
"330 183 CURVE SMOOTH",
"323 176 OFFCURVE",
"320 169 OFFCURVE",
"320 160 CURVE SMOOTH",
"320 151 OFFCURVE",
"323 144 OFFCURVE",
"330 138 CURVE",
"336 131 OFFCURVE",
"343 128 OFFCURVE",
"352 128 CURVE SMOOTH",
"361 128 OFFCURVE",
"368 131 OFFCURVE",
"375 138 CURVE SMOOTH",
"381 144 OFFCURVE",
"384 151 OFFCURVE",
"384 160 CURVE SMOOTH",
"384 169 OFFCURVE",
"381 176 OFFCURVE",
"375 183 CURVE"
);
}
);
width = 512;
}
);
unicode = E023;
},
{
glyphname = uniE024;
layers = (
{
layerId = "EEF2BC8D-D964-4B49-BEB0-D3787712A5FD";
name = Regular;
paths = (
{
closed = 1;
nodes = (
"459 264 LINE",
"448 265 OFFCURVE",
"441 271 OFFCURVE",
"438 281 CURVE",
"425 313 LINE",
"420 322 OFFCURVE",
"421 331 OFFCURVE",
"428 340 CURVE SMOOTH",
"449 368 LINE",
"455 377 OFFCURVE",
"455 385 OFFCURVE",
"448 392 CURVE SMOOTH",
"425 416 LINE",
"417 423 OFFCURVE",
"409 423 OFFCURVE",
"400 417 CURVE",
"372 396 LINE SMOOTH",
"363 389 OFFCURVE",
"354 388 OFFCURVE",
"345 393 CURVE",
"313 406 LINE",
"309 407 OFFCURVE",
"305 410 OFFCURVE",
"302 415 CURVE",
"298 419 OFFCURVE",
"296 423 OFFCURVE",
"296 427 CURVE",
"291 462 LINE",
"290 466 OFFCURVE",
"288 470 OFFCURVE",
"285 474 CURVE",
"281 477 OFFCURVE",
"277 479 OFFCURVE",
"272 479 CURVE",
"269 480 OFFCURVE",
"263 480 OFFCURVE",
"256 480 CURVE",
"240 479 LINE",
"235 479 OFFCURVE",
"231 477 OFFCURVE",
"228 474 CURVE SMOOTH",
"224 470 OFFCURVE",
"222 466 OFFCURVE",
"221 462 CURVE",
"216 427 LINE",
"216 423 OFFCURVE",
"214 419 OFFCURVE",
"211 415 CURVE SMOOTH",
"207 410 OFFCURVE",
"203 407 OFFCURVE",
"199 406 CURVE",
"167 393 LINE",
"158 388 OFFCURVE",
"149 389 OFFCURVE",
"140 396 CURVE SMOOTH",
"112 417 LINE SMOOTH",
"104 423 OFFCURVE",
"96 423 OFFCURVE",
"87 416 CURVE",
"64 393 LINE",
"57 385 OFFCURVE",
"57 377 OFFCURVE",
"63 368 CURVE",
"84 340 LINE SMOOTH",
"91 331 OFFCURVE",
"92 322 OFFCURVE",
"87 313 CURVE",
"74 281 LINE",
"71 271 OFFCURVE",
"64 265 OFFCURVE",
"53 264 CURVE",
"18 259 LINE",
"14 258 OFFCURVE",
"10 256 OFFCURVE",
"7 253 CURVE SMOOTH",
"3 249 OFFCURVE",
"1 245 OFFCURVE",
"1 240 CURVE",
"0 237 OFFCURVE",
"0 231 OFFCURVE",
"0 224 CURVE",
"1 208 LINE",
"1 203 OFFCURVE",
"3 199 OFFCURVE",
"7 196 CURVE",
"10 192 OFFCURVE",
"14 190 OFFCURVE",
"18 189 CURVE",
"53 184 LINE",
"57 184 OFFCURVE",
"61 182 OFFCURVE",
"66 179 CURVE",
"70 175 OFFCURVE",
"73 171 OFFCURVE",
"74 167 CURVE",
"87 135 LINE",
"92 126 OFFCURVE",
"91 117 OFFCURVE",
"85 108 CURVE",
"63 80 LINE",
"57 71 OFFCURVE",
"56 64 OFFCURVE",
"61 59 CURVE SMOOTH",
"62 58 OFFCURVE",
"63 56 OFFCURVE",
"66 53 CURVE",
"68 50 OFFCURVE",
"70 48 OFFCURVE",
"72 46 CURVE SMOOTH",
"74 44 OFFCURVE",
"75 43 OFFCURVE",
"75 43 CURVE SMOOTH",
"75 43 OFFCURVE",
"78 41 OFFCURVE",
"83 36 CURVE SMOOTH",
"86 33 OFFCURVE",
"90 31 OFFCURVE",
"97 30 CURVE SMOOTH",
"103 29 OFFCURVE",
"108 29 OFFCURVE",
"112 31 CURVE",
"140 52 LINE SMOOTH",
"149 59 OFFCURVE",
"158 60 OFFCURVE",
"167 55 CURVE",
"199 42 LINE",
"209 39 OFFCURVE",
"215 32 OFFCURVE",
"216 21 CURVE",
"221 -14 LINE",
"222 -18 OFFCURVE",
"224 -22 OFFCURVE",
"228 -25 CURVE",
"231 -29 OFFCURVE",
"235 -31 OFFCURVE",
"240 -31 CURVE",
"243 -32 OFFCURVE",
"249 -32 OFFCURVE",
"256 -32 CURVE",
"272 -31 LINE",
"277 -31 OFFCURVE",
"281 -29 OFFCURVE",
"285 -25 CURVE SMOOTH",
"288 -22 OFFCURVE",
"290 -18 OFFCURVE",
"291 -14 CURVE",
"296 21 LINE",
"297 32 OFFCURVE",
"303 39 OFFCURVE",
"313 42 CURVE",
"345 55 LINE",
"354 60 OFFCURVE",
"363 59 OFFCURVE",
"372 52 CURVE SMOOTH",
"400 31 LINE",
"409 25 OFFCURVE",
"417 25 OFFCURVE",
"425 32 CURVE",
"448 55 LINE",
"455 63 OFFCURVE",
"455 71 OFFCURVE",
"449 80 CURVE",
"428 108 LINE SMOOTH",
"421 117 OFFCURVE",
"420 126 OFFCURVE",
"425 135 CURVE",
"438 167 LINE",
"439 171 OFFCURVE",
"442 175 OFFCURVE",
"447 179 CURVE SMOOTH",
"451 182 OFFCURVE",
"455 184 OFFCURVE",
"459 184 CURVE",
"494 189 LINE",
"498 190 OFFCURVE",
"502 192 OFFCURVE",
"506 196 CURVE SMOOTH",
"509 199 OFFCURVE",
"511 203 OFFCURVE",
"511 208 CURVE",
"512 211 OFFCURVE",
"512 217 OFFCURVE",
"512 224 CURVE",
"511 240 LINE",
"511 245 OFFCURVE",
"509 249 OFFCURVE",
"506 253 CURVE",
"502 256 OFFCURVE",
"498 258 OFFCURVE",
"494 259 CURVE"
);
},
{
closed = 1;
nodes = (
"192 242 OFFCURVE",
"198 257 OFFCURVE",
"211 270 CURVE SMOOTH",
"223 282 OFFCURVE",
"238 288 OFFCURVE",
"256 288 CURVE SMOOTH",
"273 288 OFFCURVE",
"288 282 OFFCURVE",
"301 269 CURVE SMOOTH",
"314 256 OFFCURVE",
"320 241 OFFCURVE",
"320 224 CURVE SMOOTH",
"320 207 OFFCURVE",
"314 192 OFFCURVE",
"301 179 CURVE SMOOTH",
"288 166 OFFCURVE",
"273 160 OFFCURVE",
"256 160 CURVE SMOOTH",
"239 160 OFFCURVE",
"224 166 OFFCURVE",
"211 179 CURVE SMOOTH",
"198 192 OFFCURVE",
"192 207 OFFCURVE",
"192 224 CURVE SMOOTH"
);
}
);
width = 512;
}
);
unicode = E024;
},
{
glyphname = uniE025;
layers = (
{
layerId = "EEF2BC8D-D964-4B49-BEB0-D3787712A5FD";
name = Regular;
paths = (
{
closed = 1;
nodes = (
"384 349 LINE",
"448 349 LINE SMOOTH",
"457 349 OFFCURVE",
"464 346 OFFCURVE",
"471 340 CURVE",
"477 333 OFFCURVE",
"480 326 OFFCURVE",
"480 317 CURVE SMOOTH",
"480 -3 LINE SMOOTH",
"480 -12 OFFCURVE",
"477 -20 OFFCURVE",
"471 -26 CURVE",
"464 -32 OFFCURVE",
"457 -35 OFFCURVE",
"448 -35 CURVE SMOOTH",
"112 -35 LINE SMOOTH",
"90 -35 OFFCURVE",
"71 -27 OFFCURVE",
"56 -12 CURVE SMOOTH",
"40 3 OFFCURVE",
"32 22 OFFCURVE",
"32 45 CURVE SMOOTH",
"32 396 LINE SMOOTH",
"32 419 OFFCURVE",
"40 438 OFFCURVE",
"56 454 CURVE SMOOTH",
"71 469 OFFCURVE",
"90 477 OFFCURVE",
"112 477 CURVE SMOOTH",
"448 477 LINE SMOOTH",
"457 477 OFFCURVE",
"464 474 OFFCURVE",
"471 468 CURVE",
"477 461 OFFCURVE",
"480 454 OFFCURVE",
"480 445 CURVE SMOOTH",
"480 436 OFFCURVE",
"477 428 OFFCURVE",
"471 422 CURVE SMOOTH",
"464 415 OFFCURVE",
"457 412 OFFCURVE",
"448 412 CURVE SMOOTH",
"384 412 LINE",
"192 412 LINE",
"128 412 LINE SMOOTH",
"119 412 OFFCURVE",
"112 409 OFFCURVE",
"106 403 CURVE",
"99 397 OFFCURVE",
"96 390 OFFCURVE",
"96 381 CURVE SMOOTH",
"96 372 OFFCURVE",
"99 364 OFFCURVE",
"106 358 CURVE",
"112 351 OFFCURVE",
"119 348 OFFCURVE",
"128 348 CURVE SMOOTH",
"192 348 LINE",
"192 220 LINE",
"224 252 LINE",
"256 220 LINE",
"256 348 LINE",
"384 348 LINE"
);
}
);
width = 512;
}
);
unicode = E025;
},
{
glyphname = uniE026;
layers = (
{
layerId = "EEF2BC8D-D964-4B49-BEB0-D3787712A5FD";
name = Regular;
paths = (
{
closed = 1;
nodes = (
"32 128 LINE",
"96 128 LINE",
"96 32 LINE",
"416 32 LINE",
"416 416 LINE",
"96 416 LINE",
"96 320 LINE",
"32 320 LINE",
"32 416 LINE SMOOTH",
"32 433 OFFCURVE",
"38 448 OFFCURVE",
"51 461 CURVE SMOOTH",
"64 474 OFFCURVE",
"79 480 OFFCURVE",
"96 480 CURVE SMOOTH",
"416 480 LINE SMOOTH",
"434 480 OFFCURVE",
"449 474 OFFCURVE",
"462 462 CURVE",
"474 449 OFFCURVE",
"480 434 OFFCURVE",
"480 416 CURVE SMOOTH",
"480 32 LINE SMOOTH",
"480 14 OFFCURVE",
"474 -1 OFFCURVE",
"462 -13 CURVE SMOOTH",
"449 -26 OFFCURVE",
"434 -32 OFFCURVE",
"416 -32 CURVE SMOOTH",
"96 -32 LINE SMOOTH",
"78 -32 OFFCURVE",
"63 -26 OFFCURVE",
"51 -13 CURVE",
"38 -1 OFFCURVE",
"32 14 OFFCURVE",
"32 32 CURVE SMOOTH"
);
},
{
closed = 1;
nodes = (
"311 246 LINE SMOOTH",
"314 243 OFFCURVE",
"316 240 OFFCURVE",
"318 235 CURVE",
"319 232 OFFCURVE",
"320 229 OFFCURVE",
"320 226 CURVE SMOOTH",
"320 225 OFFCURVE",
"320 223 OFFCURVE",
"320 222 CURVE",
"320 222 OFFCURVE",
"320 221 OFFCURVE",
"319 219 CURVE",
"318 212 OFFCURVE",
"315 207 OFFCURVE",
"311 203 CURVE SMOOTH",
"206 105 LINE",
"201 99 OFFCURVE",
"194 96 OFFCURVE",
"186 96 CURVE SMOOTH",
"177 96 OFFCURVE",
"170 99 OFFCURVE",
"165 105 CURVE",
"159 110 OFFCURVE",
"156 117 OFFCURVE",
"156 125 CURVE SMOOTH",
"156 133 OFFCURVE",
"159 140 OFFCURVE",
"164 145 CURVE",
"224 192 LINE",
"64 192 LINE SMOOTH",
"55 192 OFFCURVE",
"48 195 OFFCURVE",
"42 202 CURVE",
"35 209 OFFCURVE",
"32 216 OFFCURVE",
"32 225 CURVE SMOOTH",
"32 233 OFFCURVE",
"35 240 OFFCURVE",
"42 247 CURVE SMOOTH",
"48 253 OFFCURVE",
"55 256 OFFCURVE",
"64 256 CURVE SMOOTH",
"224 256 LINE",
"164 304 LINE",
"159 309 OFFCURVE",
"156 316 OFFCURVE",
"156 324 CURVE SMOOTH",
"156 332 OFFCURVE",
"159 339 OFFCURVE",
"165 344 CURVE",
"170 349 OFFCURVE",
"177 352 OFFCURVE",
"186 352 CURVE SMOOTH",
"194 352 OFFCURVE",
"201 349 OFFCURVE",
"206 344 CURVE SMOOTH"
);
}
);
width = 512;
}
);
unicode = E026;
},
{
glyphname = uniE027;
layers = (
{
layerId = "EEF2BC8D-D964-4B49-BEB0-D3787712A5FD";
name = Regular;
paths = (
{
closed = 1;
nodes = (
"416 352 LINE",
"416 32 LINE SMOOTH",
"416 30 OFFCURVE",
"416 28 OFFCURVE",
"416 25 CURVE",
"415 22 OFFCURVE",
"414 17 OFFCURVE",
"412 10 CURVE",
"409 3 OFFCURVE",
"406 -4 OFFCURVE",
"402 -9 CURVE",
"398 -15 OFFCURVE",
"392 -20 OFFCURVE",
"383 -25 CURVE SMOOTH",
"374 -30 OFFCURVE",
"364 -32 OFFCURVE",
"352 -32 CURVE SMOOTH",
"128 -32 LINE SMOOTH",
"109 -32 OFFCURVE",
"94 -27 OFFCURVE",
"83 -16 CURVE SMOOTH",
"72 -5 OFFCURVE",
"67 5 OFFCURVE",
"66 16 CURVE SMOOTH",
"64 32 LINE",
"64 352 LINE",
"32 352 LINE SMOOTH",
"23 352 OFFCURVE",
"16 355 OFFCURVE",
"10 362 CURVE",
"3 368 OFFCURVE",
"0 375 OFFCURVE",
"0 384 CURVE SMOOTH",
"0 393 OFFCURVE",
"3 400 OFFCURVE",
"10 407 CURVE SMOOTH",
"16 413 OFFCURVE",
"23 416 OFFCURVE",
"32 416 CURVE SMOOTH",
"160 416 LINE",
"192 416 LINE",
"192 432 LINE SMOOTH",
"192 445 OFFCURVE",
"197 457 OFFCURVE",
"206 466 CURVE SMOOTH",
"215 475 OFFCURVE",
"227 480 OFFCURVE",
"240 480 CURVE SMOOTH",
"253 480 OFFCURVE",
"265 475 OFFCURVE",
"274 466 CURVE SMOOTH",
"283 457 OFFCURVE",
"288 445 OFFCURVE",
"288 432 CURVE SMOOTH",
"288 416 LINE",
"320 416 LINE",
"448 416 LINE SMOOTH",
"457 416 OFFCURVE",
"464 413 OFFCURVE",
"471 407 CURVE",
"477 400 OFFCURVE",
"480 393 OFFCURVE",
"480 384 CURVE SMOOTH",
"480 375 OFFCURVE",
"477 368 OFFCURVE",
"471 362 CURVE SMOOTH",
"464 355 OFFCURVE",
"457 352 OFFCURVE",
"448 352 CURVE SMOOTH"
);
},
{
closed = 1;
nodes = (
"352 352 LINE",
"128 352 LINE",
"128 32 LINE",
"352 32 LINE"
);
},
{
closed = 1;
nodes = (
"224 96 LINE SMOOTH",
"224 87 OFFCURVE",
"221 80 OFFCURVE",
"215 74 CURVE SMOOTH",
"208 67 OFFCURVE",
"201 64 OFFCURVE",
"192 64 CURVE SMOOTH",
"183 64 OFFCURVE",
"176 67 OFFCURVE",
"170 74 CURVE",
"163 80 OFFCURVE",
"160 87 OFFCURVE",
"160 96 CURVE SMOOTH",
"160 288 LINE SMOOTH",
"160 297 OFFCURVE",
"163 304 OFFCURVE",
"170 311 CURVE SMOOTH",
"176 317 OFFCURVE",
"183 320 OFFCURVE",
"192 320 CURVE SMOOTH",
"201 320 OFFCURVE",
"208 317 OFFCURVE",
"215 311 CURVE",
"221 304 OFFCURVE",
"224 297 OFFCURVE",
"224 288 CURVE SMOOTH"
);
},
{
closed = 1;
nodes = (
"320 96 LINE SMOOTH",
"320 87 OFFCURVE",
"317 80 OFFCURVE",
"311 74 CURVE SMOOTH",
"304 67 OFFCURVE",
"297 64 OFFCURVE",
"288 64 CURVE SMOOTH",
"279 64 OFFCURVE",
"272 67 OFFCURVE",
"266 74 CURVE",
"259 80 OFFCURVE",
"256 87 OFFCURVE",
"256 96 CURVE SMOOTH",
"256 288 LINE SMOOTH",
"256 297 OFFCURVE",
"259 304 OFFCURVE",
"266 311 CURVE SMOOTH",
"272 317 OFFCURVE",
"279 320 OFFCURVE",
"288 320 CURVE SMOOTH",
"297 320 OFFCURVE",
"304 317 OFFCURVE",
"311 311 CURVE",
"317 304 OFFCURVE",
"320 297 OFFCURVE",
"320 288 CURVE SMOOTH"
);
}
);
width = 512;
}
);
unicode = E027;
},
{
glyphname = uniE028;
layers = (
{
layerId = "EEF2BC8D-D964-4B49-BEB0-D3787712A5FD";
name = Regular;
paths = (
{
closed = 1;
nodes = (
"355 352 OFFCURVE",
"302 352 OFFCURVE",
"288 352 CURVE SMOOTH",
"281 352 OFFCURVE",
"270 363 OFFCURVE",
"255 384 CURVE SMOOTH",
"240 405 OFFCURVE",
"230 416 OFFCURVE",
"224 416 CURVE SMOOTH",
"64 416 LINE SMOOTH",
"46 416 OFFCURVE",
"31 410 OFFCURVE",
"19 398 CURVE SMOOTH",
"6 385 OFFCURVE",
"0 370 OFFCURVE",
"0 352 CURVE SMOOTH",
"0 32 LINE SMOOTH",
"0 20 OFFCURVE",
"2 10 OFFCURVE",
"7 1 CURVE SMOOTH",
"12 -8 OFFCURVE",
"17 -14 OFFCURVE",
"23 -18 CURVE",
"28 -22 OFFCURVE",
"35 -25 OFFCURVE",
"42 -27 CURVE",
"49 -30 OFFCURVE",
"54 -31 OFFCURVE",
"57 -31 CURVE",
"60 -32 OFFCURVE",
"62 -32 OFFCURVE",
"64 -32 CURVE SMOOTH",
"448 -32 LINE SMOOTH",
"465 -32 OFFCURVE",
"480 -26 OFFCURVE",
"493 -13 CURVE",
"506 -1 OFFCURVE",
"512 14 OFFCURVE",
"512 32 CURVE SMOOTH",
"512 288 LINE SMOOTH",
"512 305 OFFCURVE",
"506 320 OFFCURVE",
"493 333 CURVE SMOOTH",
"480 346 OFFCURVE",
"465 352 OFFCURVE",
"448 352 CURVE SMOOTH"
);
},
{
closed = 1;
nodes = (
"448 32 LINE",
"64 32 LINE",
"64 352 LINE",
"191 352 LINE SMOOTH",
"198 352 OFFCURVE",
"209 341 OFFCURVE",
"224 320 CURVE SMOOTH",
"239 299 OFFCURVE",
"249 288 OFFCURVE",
"255 288 CURVE SMOOTH",
"448 288 LINE"
);
}
);
width = 512;
}
);
unicode = E028;
},
{
glyphname = uniE029;
layers = (
{
layerId = "EEF2BC8D-D964-4B49-BEB0-D3787712A5FD";
name = Regular;
paths = (
{
closed = 1;
nodes = (
"64 480 LINE SMOOTH",
"52 480 OFFCURVE",
"42 478 OFFCURVE",
"33 474 CURVE",
"24 469 OFFCURVE",
"18 464 OFFCURVE",
"14 458 CURVE",
"10 451 OFFCURVE",
"7 445 OFFCURVE",
"5 439 CURVE",
"2 432 OFFCURVE",
"1 427 OFFCURVE",
"0 423 CURVE",
"0 416 LINE",
"0 160 LINE SMOOTH",
"0 158 OFFCURVE",
"0 156 OFFCURVE",
"1 153 CURVE",
"1 150 OFFCURVE",
"2 145 OFFCURVE",
"5 138 CURVE",
"7 131 OFFCURVE",
"10 124 OFFCURVE",
"14 119 CURVE",
"18 113 OFFCURVE",
"24 108 OFFCURVE",
"33 103 CURVE SMOOTH",
"42 98 OFFCURVE",
"52 96 OFFCURVE",
"64 96 CURVE SMOOTH",
"192 96 LINE",
"210 95 OFFCURVE",
"222 91 OFFCURVE",
"229 84 CURVE",
"373 -29 LINE",
"376 -31 OFFCURVE",
"378 -32 OFFCURVE",
"379 -32 CURVE SMOOTH",
"382 -32 OFFCURVE",
"384 -30 OFFCURVE",
"384 -25 CURVE SMOOTH",
"384 82 LINE SMOOTH",
"384 86 OFFCURVE",
"385 89 OFFCURVE",
"387 92 CURVE SMOOTH",
"389 95 OFFCURVE",
"392 96 OFFCURVE",
"395 96 CURVE SMOOTH",
"448 96 LINE SMOOTH",
"460 96 OFFCURVE",
"470 98 OFFCURVE",
"479 103 CURVE",
"488 107 OFFCURVE",
"494 112 OFFCURVE",
"498 119 CURVE",
"502 125 OFFCURVE",
"505 131 OFFCURVE",
"508 138 CURVE",
"510 144 OFFCURVE",
"511 149 OFFCURVE",
"511 153 CURVE",
"512 160 LINE",
"512 416 LINE SMOOTH",
"512 418 OFFCURVE",
"512 420 OFFCURVE",
"512 423 CURVE",
"511 426 OFFCURVE",
"510 431 OFFCURVE",
"508 438 CURVE",
"505 445 OFFCURVE",
"502 452 OFFCURVE",
"498 458 CURVE",
"494 463 OFFCURVE",
"488 468 OFFCURVE",
"479 473 CURVE SMOOTH",
"470 478 OFFCURVE",
"460 480 OFFCURVE",
"448 480 CURVE SMOOTH"
);
},
{
closed = 1;
nodes = (
"448 160 LINE",
"320 160 LINE",
"320 96 LINE",
"238 160 LINE",
"64 160 LINE",
"64 416 LINE",
"448 416 LINE"
);
}
);
width = 512;
}
);
unicode = E029;
},
{
glyphname = uniE02A;
layers = (
{
layerId = "EEF2BC8D-D964-4B49-BEB0-D3787712A5FD";
name = Regular;
paths = (
{
closed = 1;
nodes = (
"512 295 OFFCURVE",
"487 355 OFFCURVE",
"437 405 CURVE SMOOTH",
"387 455 OFFCURVE",
"327 480 OFFCURVE",
"256 480 CURVE SMOOTH",
"185 480 OFFCURVE",
"125 455 OFFCURVE",
"75 405 CURVE SMOOTH",
"25 355 OFFCURVE",
"0 295 OFFCURVE",
"0 224 CURVE SMOOTH",
"0 153 OFFCURVE",
"25 93 OFFCURVE",
"75 43 CURVE SMOOTH",
"125 -7 OFFCURVE",
"185 -32 OFFCURVE",
"256 -32 CURVE SMOOTH",
"327 -32 OFFCURVE",
"387 -7 OFFCURVE",
"437 43 CURVE SMOOTH",
"487 93 OFFCURVE",
"512 153 OFFCURVE",
"512 224 CURVE SMOOTH"
);
},
{
closed = 1;
nodes = (
"374 155 LINE SMOOTH",
"381 148 OFFCURVE",
"384 139 OFFCURVE",
"384 130 CURVE SMOOTH",
"384 121 OFFCURVE",
"381 113 OFFCURVE",
"374 106 CURVE SMOOTH",
"367 99 OFFCURVE",
"359 96 OFFCURVE",
"350 96 CURVE SMOOTH",
"341 96 OFFCURVE",
"333 99 OFFCURVE",
"326 106 CURVE SMOOTH",
"256 176 LINE",
"186 106 LINE SMOOTH",
"179 99 OFFCURVE",
"171 96 OFFCURVE",
"162 96 CURVE",
"152 95 OFFCURVE",
"144 98 OFFCURVE",
"137 105 CURVE SMOOTH",
"130 112 OFFCURVE",
"127 120 OFFCURVE",
"128 130 CURVE",
"128 139 OFFCURVE",
"131 147 OFFCURVE",
"138 154 CURVE SMOOTH",
"208 224 LINE",
"138 294 LINE SMOOTH",
"131 301 OFFCURVE",
"128 309 OFFCURVE",
"128 319 CURVE",
"127 328 OFFCURVE",
"130 336 OFFCURVE",
"137 343 CURVE SMOOTH",
"144 350 OFFCURVE",
"152 353 OFFCURVE",
"162 353 CURVE",
"171 352 OFFCURVE",
"179 349 OFFCURVE",
"186 342 CURVE SMOOTH",
"256 272 LINE",
"326 342 LINE SMOOTH",
"333 349 OFFCURVE",
"341 352 OFFCURVE",
"351 352 CURVE SMOOTH",
"360 352 OFFCURVE",
"368 349 OFFCURVE",
"375 343 CURVE",
"381 336 OFFCURVE",
"384 328 OFFCURVE",
"384 319 CURVE SMOOTH",
"384 309 OFFCURVE",
"381 301 OFFCURVE",
"374 294 CURVE SMOOTH",
"304 224 LINE"
);
}
);
width = 512;
}
);
unicode = E02A;
},
{
glyphname = uniE031;
layers = (
{
layerId = "EEF2BC8D-D964-4B49-BEB0-D3787712A5FD";
name = Regular;
paths = (
{
closed = 1;
nodes = (
"387 455 OFFCURVE",
"327 480 OFFCURVE",
"256 480 CURVE SMOOTH",
"185 480 OFFCURVE",
"125 455 OFFCURVE",
"75 405 CURVE SMOOTH",
"25 355 OFFCURVE",
"0 295 OFFCURVE",
"0 224 CURVE SMOOTH",
"0 153 OFFCURVE",
"25 93 OFFCURVE",
"75 43 CURVE SMOOTH",
"125 -7 OFFCURVE",
"185 -32 OFFCURVE",
"256 -32 CURVE SMOOTH",
"327 -32 OFFCURVE",
"387 -7 OFFCURVE",
"437 43 CURVE SMOOTH",
"487 93 OFFCURVE",
"512 153 OFFCURVE",
"512 224 CURVE SMOOTH",
"512 295 OFFCURVE",
"487 355 OFFCURVE",
"437 405 CURVE SMOOTH"
);
},
{
closed = 1;
nodes = (
"288 192 LINE",
"288 98 LINE SMOOTH",
"288 89 OFFCURVE",
"285 81 OFFCURVE",
"279 74 CURVE",
"272 67 OFFCURVE",
"265 64 OFFCURVE",
"256 64 CURVE SMOOTH",
"247 64 OFFCURVE",
"240 67 OFFCURVE",
"234 74 CURVE",
"227 81 OFFCURVE",
"224 89 OFFCURVE",
"224 98 CURVE SMOOTH",
"224 192 LINE",
"130 192 LINE SMOOTH",
"121 192 OFFCURVE",
"113 195 OFFCURVE",
"106 202 CURVE",
"99 208 OFFCURVE",
"96 215 OFFCURVE",
"96 224 CURVE SMOOTH",
"96 233 OFFCURVE",
"99 240 OFFCURVE",
"106 247 CURVE",
"113 253 OFFCURVE",
"121 256 OFFCURVE",
"130 256 CURVE SMOOTH",
"224 256 LINE",
"224 350 LINE SMOOTH",
"224 359 OFFCURVE",
"227 367 OFFCURVE",
"234 374 CURVE",
"240 381 OFFCURVE",
"247 384 OFFCURVE",
"256 384 CURVE SMOOTH",
"265 384 OFFCURVE",
"272 381 OFFCURVE",
"279 374 CURVE",
"285 367 OFFCURVE",
"288 359 OFFCURVE",
"288 350 CURVE SMOOTH",
"288 256 LINE",
"382 256 LINE SMOOTH",
"391 256 OFFCURVE",
"399 253 OFFCURVE",
"406 247 CURVE",
"413 240 OFFCURVE",
"416 233 OFFCURVE",
"416 224 CURVE SMOOTH",
"416 215 OFFCURVE",
"413 208 OFFCURVE",
"406 202 CURVE",
"399 195 OFFCURVE",
"391 192 OFFCURVE",
"382 192 CURVE SMOOTH"
);
}
);
width = 512;
}
);
unicode = E031;
},
{
glyphname = uniE014;
layers = (
{
layerId = "EEF2BC8D-D964-4B49-BEB0-D3787712A5FD";
name = Regular;
paths = (
{
closed = 1;
nodes = (
"448 32 LINE",
"64 32 LINE",
"64 416 LINE",
"224 416 LINE",
"224 480 LINE",
"45 480 LINE SMOOTH",
"32 480 OFFCURVE",
"22 476 OFFCURVE",
"13 467 CURVE SMOOTH",
"4 458 OFFCURVE",
"0 448 OFFCURVE",
"0 435 CURVE SMOOTH",
"0 12 LINE SMOOTH",
"0 0 OFFCURVE",
"4 -10 OFFCURVE",
"13 -19 CURVE SMOOTH",
"22 -28 OFFCURVE",
"32 -32 OFFCURVE",
"45 -32 CURVE SMOOTH",
"467 -32 LINE SMOOTH",
"480 -32 OFFCURVE",
"490 -28 OFFCURVE",
"499 -19 CURVE SMOOTH",
"508 -10 OFFCURVE",
"512 0 OFFCURVE",
"512 12 CURVE SMOOTH",
"512 192 LINE",
"448 192 LINE"
);
},
{
closed = 1;
nodes = (
"512 455 OFFCURVE",
"510 461 OFFCURVE",
"505 467 CURVE",
"504 467 OFFCURVE",
"504 467 OFFCURVE",
"504 468 CURVE",
"503 469 OFFCURVE",
"503 469 OFFCURVE",
"503 470 CURVE",
"503 470 OFFCURVE",
"503 470 OFFCURVE",
"503 471 CURVE",
"502 471 OFFCURVE",
"502 471 OFFCURVE",
"502 471 CURVE",
"501 472 OFFCURVE",
"499 473 OFFCURVE",
"495 475 CURVE",
"495 476 OFFCURVE",
"495 476 OFFCURVE",
"494 477 CURVE",
"493 477 OFFCURVE",
"493 477 OFFCURVE",
"492 477 CURVE",
"488 479 OFFCURVE",
"484 480 OFFCURVE",
"479 480 CURVE SMOOTH",
"478 480 LINE",
"322 480 LINE SMOOTH",
"313 480 OFFCURVE",
"305 477 OFFCURVE",
"298 471 CURVE",
"291 464 OFFCURVE",
"288 457 OFFCURVE",
"288 448 CURVE SMOOTH",
"288 439 OFFCURVE",
"291 432 OFFCURVE",
"298 426 CURVE",
"305 419 OFFCURVE",
"313 416 OFFCURVE",
"322 416 CURVE SMOOTH",
"403 416 LINE",
"201 214 LINE SMOOTH",
"195 208 OFFCURVE",
"192 201 OFFCURVE",
"192 192 CURVE SMOOTH",
"192 183 OFFCURVE",
"195 176 OFFCURVE",
"202 170 CURVE",
"208 163 OFFCURVE",
"215 160 OFFCURVE",
"224 160 CURVE SMOOTH",
"233 160 OFFCURVE",
"240 163 OFFCURVE",
"246 170 CURVE",
"448 371 LINE",
"448 290 LINE SMOOTH",
"448 281 OFFCURVE",
"451 273 OFFCURVE",
"458 266 CURVE",
"464 259 OFFCURVE",
"471 256 OFFCURVE",
"480 256 CURVE SMOOTH",
"489 256 OFFCURVE",
"496 259 OFFCURVE",
"503 266 CURVE",
"509 273 OFFCURVE",
"512 281 OFFCURVE",
"512 290 CURVE SMOOTH",
"512 446 LINE SMOOTH",
"512 447 OFFCURVE",
"512 447 OFFCURVE",
"512 447 CURVE SMOOTH",
"512 447 OFFCURVE",
"512 447 OFFCURVE",
"512 448 CURVE SMOOTH"
);
}
);
width = 512;
}
);
unicode = E014;
},
{
glyphname = uniE02B;
layers = (
{
layerId = "EEF2BC8D-D964-4B49-BEB0-D3787712A5FD";
name = Regular;
paths = (
{
closed = 1;
nodes = (
"387 455 OFFCURVE",
"327 480 OFFCURVE",
"256 480 CURVE SMOOTH",
"185 480 OFFCURVE",
"125 455 OFFCURVE",
"75 405 CURVE SMOOTH",
"25 355 OFFCURVE",
"0 295 OFFCURVE",
"0 224 CURVE SMOOTH",
"0 153 OFFCURVE",
"25 93 OFFCURVE",
"75 43 CURVE SMOOTH",
"125 -7 OFFCURVE",
"185 -32 OFFCURVE",
"256 -32 CURVE SMOOTH",
"327 -32 OFFCURVE",
"387 -7 OFFCURVE",
"437 43 CURVE SMOOTH",
"487 93 OFFCURVE",
"512 153 OFFCURVE",
"512 224 CURVE SMOOTH",
"512 295 OFFCURVE",
"487 355 OFFCURVE",
"437 405 CURVE SMOOTH"
);
},
{
closed = 1;
nodes = (
"335 85 OFFCURVE",
"299 70 OFFCURVE",
"256 70 CURVE SMOOTH",
"213 70 OFFCURVE",
"177 85 OFFCURVE",
"147 115 CURVE SMOOTH",
"117 145 OFFCURVE",
"102 181 OFFCURVE",
"102 224 CURVE SMOOTH",
"102 267 OFFCURVE",
"117 303 OFFCURVE",
"147 333 CURVE SMOOTH",
"177 363 OFFCURVE",
"213 378 OFFCURVE",
"256 378 CURVE SMOOTH",
"299 378 OFFCURVE",
"335 363 OFFCURVE",
"365 333 CURVE SMOOTH",
"395 303 OFFCURVE",
"410 267 OFFCURVE",
"410 224 CURVE SMOOTH",
"410 181 OFFCURVE",
"395 145 OFFCURVE",
"365 115 CURVE SMOOTH"
);
}
);
width = 512;
}
);
unicode = E02B;
},
{
glyphname = uniE032;
layers = (
{
layerId = "EEF2BC8D-D964-4B49-BEB0-D3787712A5FD";
name = Regular;
paths = (
{
closed = 1;
nodes = (
"387 455 OFFCURVE",
"327 480 OFFCURVE",
"256 480 CURVE SMOOTH",
"185 480 OFFCURVE",
"125 455 OFFCURVE",
"75 405 CURVE SMOOTH",
"25 355 OFFCURVE",
"0 295 OFFCURVE",
"0 224 CURVE SMOOTH",
"0 153 OFFCURVE",
"25 93 OFFCURVE",
"75 43 CURVE SMOOTH",
"125 -7 OFFCURVE",
"185 -32 OFFCURVE",
"256 -32 CURVE SMOOTH",
"327 -32 OFFCURVE",
"387 -7 OFFCURVE",
"437 43 CURVE SMOOTH",
"487 93 OFFCURVE",
"512 153 OFFCURVE",
"512 224 CURVE SMOOTH",
"512 295 OFFCURVE",
"487 355 OFFCURVE",
"437 405 CURVE SMOOTH"
);
},
{
closed = 1;
nodes = (
"335 85 OFFCURVE",
"299 70 OFFCURVE",
"256 70 CURVE SMOOTH",
"213 70 OFFCURVE",
"177 85 OFFCURVE",
"147 115 CURVE SMOOTH",
"117 145 OFFCURVE",
"102 181 OFFCURVE",
"102 224 CURVE SMOOTH",
"102 267 OFFCURVE",
"117 303 OFFCURVE",
"147 333 CURVE SMOOTH",
"177 363 OFFCURVE",
"213 378 OFFCURVE",
"256 378 CURVE SMOOTH",
"299 378 OFFCURVE",
"335 363 OFFCURVE",
"365 333 CURVE SMOOTH",
"395 303 OFFCURVE",
"410 267 OFFCURVE",
"410 224 CURVE SMOOTH",
"410 181 OFFCURVE",
"395 145 OFFCURVE",
"365 115 CURVE SMOOTH"
);
},
{
closed = 1;
nodes = (
"296 294 OFFCURVE",
"277 301 OFFCURVE",
"256 301 CURVE SMOOTH",
"235 301 OFFCURVE",
"217 294 OFFCURVE",
"202 279 CURVE SMOOTH",
"187 264 OFFCURVE",
"179 245 OFFCURVE",
"179 224 CURVE SMOOTH",
"179 203 OFFCURVE",
"187 185 OFFCURVE",
"202 170 CURVE SMOOTH",
"217 155 OFFCURVE",
"235 147 OFFCURVE",
"256 147 CURVE SMOOTH",
"277 147 OFFCURVE",
"296 155 OFFCURVE",
"311 170 CURVE SMOOTH",
"326 185 OFFCURVE",
"333 203 OFFCURVE",
"333 224 CURVE SMOOTH",
"333 245 OFFCURVE",
"326 264 OFFCURVE",
"311 279 CURVE SMOOTH"
);
}
);
width = 512;
}
);
unicode = E032;
},
{
glyphname = uniE033;
layers = (
{
layerId = "EEF2BC8D-D964-4B49-BEB0-D3787712A5FD";
name = Regular;
paths = (
{
closed = 1;
nodes = (
"384 480 LINE SMOOTH",
"419 480 OFFCURVE",
"450 468 OFFCURVE",
"475 443 CURVE SMOOTH",
"500 418 OFFCURVE",
"512 387 OFFCURVE",
"512 352 CURVE SMOOTH",
"512 96 LINE SMOOTH",
"512 61 OFFCURVE",
"500 31 OFFCURVE",
"475 6 CURVE SMOOTH",
"450 -19 OFFCURVE",
"419 -32 OFFCURVE",
"384 -32 CURVE SMOOTH",
"128 -32 LINE SMOOTH",
"93 -32 OFFCURVE",
"63 -19 OFFCURVE",
"38 6 CURVE SMOOTH",
"13 31 OFFCURVE",
"0 61 OFFCURVE",
"0 96 CURVE SMOOTH",
"0 352 LINE SMOOTH",
"0 387 OFFCURVE",
"13 418 OFFCURVE",
"38 443 CURVE SMOOTH",
"63 468 OFFCURVE",
"93 480 OFFCURVE",
"128 480 CURVE SMOOTH"
);
}
);
width = 512;
}
);
unicode = E033;
},
{
glyphname = uniE034;
layers = (
{
layerId = "EEF2BC8D-D964-4B49-BEB0-D3787712A5FD";
name = Regular;
paths = (
{
closed = 1;
nodes = (
"128 480 LINE SMOOTH",
"93 480 OFFCURVE",
"63 468 OFFCURVE",
"38 443 CURVE SMOOTH",
"13 418 OFFCURVE",
"0 387 OFFCURVE",
"0 352 CURVE SMOOTH",
"0 96 LINE SMOOTH",
"0 61 OFFCURVE",
"13 31 OFFCURVE",
"38 6 CURVE SMOOTH",
"63 -19 OFFCURVE",
"93 -32 OFFCURVE",
"128 -32 CURVE SMOOTH",
"384 -32 LINE SMOOTH",
"419 -32 OFFCURVE",
"450 -19 OFFCURVE",
"475 6 CURVE SMOOTH",
"500 31 OFFCURVE",
"512 61 OFFCURVE",
"512 96 CURVE SMOOTH",
"512 352 LINE SMOOTH",
"512 387 OFFCURVE",
"500 418 OFFCURVE",
"475 443 CURVE SMOOTH",
"450 468 OFFCURVE",
"419 480 OFFCURVE",
"384 480 CURVE SMOOTH"
);
},
{
closed = 1;
nodes = (
"238 92 LINE",
"233 88 OFFCURVE",
"229 88 OFFCURVE",
"224 92 CURVE",
"197 120 LINE SMOOTH",
"196 121 OFFCURVE",
"195 122 OFFCURVE",
"193 124 CURVE SMOOTH",
"191 126 OFFCURVE",
"189 128 OFFCURVE",
"188 130 CURVE",
"186 131 OFFCURVE",
"184 132 OFFCURVE",
"183 133 CURVE SMOOTH",
"120 200 LINE SMOOTH",
"118 202 OFFCURVE",
"117 204 OFFCURVE",
"117 207 CURVE SMOOTH",
"117 210 OFFCURVE",
"118 212 OFFCURVE",
"120 214 CURVE",
"148 239 LINE",
"150 240 OFFCURVE",
"152 241 OFFCURVE",
"155 241 CURVE SMOOTH",
"158 241 OFFCURVE",
"160 240 OFFCURVE",
"162 239 CURVE",
"224 175 LINE SMOOTH",
"229 170 OFFCURVE",
"233 170 OFFCURVE",
"238 175 CURVE SMOOTH",
"381 317 LINE SMOOTH",
"386 322 OFFCURVE",
"390 322 OFFCURVE",
"394 317 CURVE",
"421 290 LINE SMOOTH",
"426 285 OFFCURVE",
"426 281 OFFCURVE",
"421 276 CURVE SMOOTH"
);
}
);
width = 512;
}
);
unicode = E034;
},
{
glyphname = uniE035;
layers = (
{
layerId = "EEF2BC8D-D964-4B49-BEB0-D3787712A5FD";
name = Regular;
paths = (
{
closed = 1;
nodes = (
"341 277 OFFCURVE",
"331 277 OFFCURVE",
"318 278 CURVE",
"305 278 OFFCURVE",
"288 278 OFFCURVE",
"269 279 CURVE",
"249 279 OFFCURVE",
"233 279 OFFCURVE",
"220 279 CURVE",
"239 341 OFFCURVE",
"250 384 OFFCURVE",
"253 408 CURVE",
"273 408 OFFCURVE",
"296 408 OFFCURVE",
"322 408 CURVE SMOOTH",
"348 408 OFFCURVE",
"370 408 OFFCURVE",
"389 408 CURVE SMOOTH",
"408 408 OFFCURVE",
"418 408 OFFCURVE",
"421 408 CURVE SMOOTH",
"440 408 OFFCURVE",
"453 417 OFFCURVE",
"460 435 CURVE",
"461 438 OFFCURVE",
"463 442 OFFCURVE",
"466 448 CURVE",
"469 453 OFFCURVE",
"471 458 OFFCURVE",
"473 462 CURVE",
"474 466 OFFCURVE",
"475 469 OFFCURVE",
"475 471 CURVE SMOOTH",
"475 480 OFFCURVE",
"469 485 OFFCURVE",
"456 485 CURVE SMOOTH",
"449 485 OFFCURVE",
"421 486 OFFCURVE",
"371 487 CURVE SMOOTH",
"321 488 OFFCURVE",
"280 489 OFFCURVE",
"248 489 CURVE SMOOTH",
"178 489 OFFCURVE",
"119 478 OFFCURVE",
"72 456 CURVE SMOOTH",
"24 433 OFFCURVE",
"0 405 OFFCURVE",
"0 370 CURVE SMOOTH",
"0 361 OFFCURVE",
"2 353 OFFCURVE",
"5 348 CURVE",
"8 342 OFFCURVE",
"12 339 OFFCURVE",
"16 339 CURVE SMOOTH",
"19 339 OFFCURVE",
"21 340 OFFCURVE",
"23 342 CURVE SMOOTH",
"25 344 OFFCURVE",
"30 349 OFFCURVE",
"38 356 CURVE",
"45 363 OFFCURVE",
"51 368 OFFCURVE",
"54 371 CURVE SMOOTH",
"57 374 OFFCURVE",
"63 378 OFFCURVE",
"72 383 CURVE SMOOTH",
"81 388 OFFCURVE",
"89 392 OFFCURVE",
"96 395 CURVE SMOOTH",
"103 398 OFFCURVE",
"112 400 OFFCURVE",
"123 403 CURVE SMOOTH",
"134 406 OFFCURVE",
"146 407 OFFCURVE",
"159 408 CURVE",
"142 369 OFFCURVE",
"125 321 OFFCURVE",
"108 263 CURVE",
"77 255 OFFCURVE",
"54 245 OFFCURVE",
"39 234 CURVE SMOOTH",
"23 222 OFFCURVE",
"15 210 OFFCURVE",
"15 199 CURVE SMOOTH",
"15 194 OFFCURVE",
"18 192 OFFCURVE",
"24 192 CURVE SMOOTH",
"40 192 OFFCURVE",
"62 194 OFFCURVE",
"91 198 CURVE",
"71 121 OFFCURVE",
"61 64 OFFCURVE",
"61 26 CURVE SMOOTH",
"61 13 OFFCURVE",
"61 4 OFFCURVE",
"62 -2 CURVE",
"62 -9 OFFCURVE",
"63 -15 OFFCURVE",
"64 -22 CURVE SMOOTH",
"65 -29 OFFCURVE",
"68 -34 OFFCURVE",
"71 -37 CURVE SMOOTH",
"74 -40 OFFCURVE",
"79 -41 OFFCURVE",
"85 -41 CURVE SMOOTH",
"138 -41 OFFCURVE",
"164 -27 OFFCURVE",
"164 0 CURVE SMOOTH",
"164 52 OFFCURVE",
"176 122 OFFCURVE",
"200 209 CURVE",
"205 210 OFFCURVE",
"211 210 OFFCURVE",
"219 210 CURVE SMOOTH",
"226 210 OFFCURVE",
"244 209 OFFCURVE",
"274 208 CURVE SMOOTH",
"304 206 OFFCURVE",
"321 205 OFFCURVE",
"324 205 CURVE SMOOTH",
"336 205 OFFCURVE",
"344 214 OFFCURVE",
"349 231 CURVE",
"350 234 OFFCURVE",
"351 238 OFFCURVE",
"352 243 CURVE SMOOTH",
"353 248 OFFCURVE",
"355 252 OFFCURVE",
"356 256 CURVE SMOOTH",
"357 260 OFFCURVE",
"358 263 OFFCURVE",
"358 264 CURVE SMOOTH",
"358 273 OFFCURVE",
"354 277 OFFCURVE",
"346 277 CURVE SMOOTH"
);
},
{
closed = 1;
nodes = (
"1281 97 OFFCURVE",
"1265 83 OFFCURVE",
"1242 69 CURVE SMOOTH",
"1219 54 OFFCURVE",
"1203 47 OFFCURVE",
"1194 47 CURVE SMOOTH",
"1183 47 OFFCURVE",
"1178 63 OFFCURVE",
"1178 95 CURVE SMOOTH",
"1178 136 OFFCURVE",
"1183 185 OFFCURVE",
"1193 243 CURVE",
"1200 243 OFFCURVE",
"1213 242 OFFCURVE",
"1231 241 CURVE SMOOTH",
"1249 240 OFFCURVE",
"1259 239 OFFCURVE",
"1262 239 CURVE SMOOTH",
"1267 239 OFFCURVE",
"1271 245 OFFCURVE",
"1276 258 CURVE",
"1280 271 OFFCURVE",
"1282 280 OFFCURVE",
"1282 287 CURVE SMOOTH",
"1282 292 OFFCURVE",
"1282 295 OFFCURVE",
"1281 296 CURVE SMOOTH",
"1280 297 OFFCURVE",
"1277 298 OFFCURVE",
"1274 298 CURVE SMOOTH",
"1271 298 OFFCURVE",
"1248 298 OFFCURVE",
"1205 299 CURVE",
"1234 349 LINE",
"1231 361 OFFCURVE",
"1228 371 OFFCURVE",
"1226 378 CURVE",
"1223 385 OFFCURVE",
"1219 391 OFFCURVE",
"1213 397 CURVE",
"1206 403 OFFCURVE",
"1198 406 OFFCURVE",
"1189 406 CURVE SMOOTH",
"1166 406 OFFCURVE",
"1143 370 OFFCURVE",
"1121 299 CURVE",
"1110 298 OFFCURVE",
"1098 298 OFFCURVE",
"1083 298 CURVE",
"1076 289 OFFCURVE",
"1071 282 OFFCURVE",
"1069 275 CURVE",
"1066 268 OFFCURVE",
"1065 258 OFFCURVE",
"1065 246 CURVE SMOOTH",
"1065 241 OFFCURVE",
"1068 239 OFFCURVE",
"1074 239 CURVE SMOOTH",
"1105 239 LINE",
"1096 202 OFFCURVE",
"1091 166 OFFCURVE",
"1089 131 CURVE",
"1085 128 OFFCURVE",
"1076 119 OFFCURVE",
"1062 104 CURVE SMOOTH",
"1048 89 OFFCURVE",
"1034 76 OFFCURVE",
"1021 65 CURVE SMOOTH",
"1007 53 OFFCURVE",
"996 47 OFFCURVE",
"989 47 CURVE SMOOTH",
"979 47 OFFCURVE",
"974 66 OFFCURVE",
"974 104 CURVE SMOOTH",
"974 144 OFFCURVE",
"976 174 OFFCURVE",
"980 194 CURVE",
"991 213 OFFCURVE",
"1001 231 OFFCURVE",
"1008 249 CURVE",
"1008 261 OFFCURVE",
"1001 274 OFFCURVE",
"986 289 CURVE SMOOTH",
"971 303 OFFCURVE",
"956 310 OFFCURVE",
"942 310 CURVE SMOOTH",
"933 310 OFFCURVE",
"925 303 OFFCURVE",
"918 290 CURVE",
"914 292 OFFCURVE",
"907 294 OFFCURVE",
"898 297 CURVE",
"883 300 OFFCURVE",
"869 301 OFFCURVE",
"856 301 CURVE SMOOTH",
"829 301 OFFCURVE",
"804 294 OFFCURVE",
"780 280 CURVE SMOOTH",
"755 266 OFFCURVE",
"734 248 OFFCURVE",
"717 227 CURVE SMOOTH",
"689 193 OFFCURVE",
"672 151 OFFCURVE",
"667 101 CURVE",
"638 66 OFFCURVE",
"605 48 OFFCURVE",
"570 48 CURVE SMOOTH",
"552 48 OFFCURVE",
"538 54 OFFCURVE",
"527 67 CURVE SMOOTH",
"516 80 OFFCURVE",
"511 98 OFFCURVE",
"511 123 CURVE SMOOTH",
"511 151 LINE",
"528 173 OFFCURVE",
"549 199 OFFCURVE",
"576 228 CURVE SMOOTH",
"603 257 OFFCURVE",
"624 281 OFFCURVE",
"641 299 CURVE SMOOTH",
"657 317 OFFCURVE",
"671 337 OFFCURVE",
"684 360 CURVE SMOOTH",
"697 383 OFFCURVE",
"703 404 OFFCURVE",
"703 424 CURVE SMOOTH",
"703 443 OFFCURVE",
"697 459 OFFCURVE",
"686 470 CURVE SMOOTH",
"675 481 OFFCURVE",
"659 486 OFFCURVE",
"640 486 CURVE SMOOTH",
"605 486 OFFCURVE",
"573 474 OFFCURVE",
"544 451 CURVE SMOOTH",
"515 427 OFFCURVE",
"491 396 OFFCURVE",
"472 359 CURVE SMOOTH",
"453 322 OFFCURVE",
"439 281 OFFCURVE",
"428 237 CURVE SMOOTH",
"417 192 OFFCURVE",
"412 148 OFFCURVE",
"412 105 CURVE SMOOTH",
"412 59 OFFCURVE",
"426 25 OFFCURVE",
"455 2 CURVE SMOOTH",
"483 -21 OFFCURVE",
"518 -32 OFFCURVE",
"560 -32 CURVE SMOOTH",
"581 -32 OFFCURVE",
"601 -27 OFFCURVE",
"622 -16 CURVE SMOOTH",
"642 -5 OFFCURVE",
"659 9 OFFCURVE",
"674 27 CURVE",
"682 7 OFFCURVE",
"695 -8 OFFCURVE",
"713 -19 CURVE SMOOTH",
"730 -30 OFFCURVE",
"751 -36 OFFCURVE",
"774 -36 CURVE SMOOTH",
"829 -36 OFFCURVE",
"871 -13 OFFCURVE",
"898 32 CURVE",
"907 -11 OFFCURVE",
"923 -32 OFFCURVE",
"947 -32 CURVE SMOOTH",
"973 -32 OFFCURVE",
"1000 -23 OFFCURVE",
"1028 -5 CURVE SMOOTH",
"1055 12 OFFCURVE",
"1076 33 OFFCURVE",
"1091 58 CURVE",
"1098 -2 OFFCURVE",
"1119 -32 OFFCURVE",
"1153 -32 CURVE SMOOTH",
"1190 -32 OFFCURVE",
"1229 -16 OFFCURVE",
"1268 15 CURVE SMOOTH",
"1307 46 OFFCURVE",
"1327 77 OFFCURVE",
"1327 107 CURVE SMOOTH",
"1327 123 OFFCURVE",
"1324 131 OFFCURVE",
"1317 131 CURVE SMOOTH",
"1310 131 OFFCURVE",
"1302 124 OFFCURVE",
"1292 111 CURVE SMOOTH"
);
},
{
closed = 1;
nodes = (
"625 418 OFFCURVE",
"629 413 OFFCURVE",
"629 403 CURVE SMOOTH",
"629 390 OFFCURVE",
"625 378 OFFCURVE",
"617 365 CURVE",
"608 352 OFFCURVE",
"594 334 OFFCURVE",
"574 310 CURVE SMOOTH",
"554 286 OFFCURVE",
"536 262 OFFCURVE",
"520 237 CURVE",
"529 291 OFFCURVE",
"544 335 OFFCURVE",
"563 368 CURVE SMOOTH",
"582 401 OFFCURVE",
"600 418 OFFCURVE",
"617 418 CURVE SMOOTH"
);
},
{
closed = 1;
nodes = (
"885 93 OFFCURVE",
"873 72 OFFCURVE",
"857 59 CURVE",
"841 45 OFFCURVE",
"824 38 OFFCURVE",
"807 38 CURVE SMOOTH",
"780 38 OFFCURVE",
"767 56 OFFCURVE",
"767 92 CURVE SMOOTH",
"767 135 OFFCURVE",
"781 171 OFFCURVE",
"809 200 CURVE SMOOTH",
"837 229 OFFCURVE",
"870 247 OFFCURVE",
"907 254 CURVE",
"899 220 OFFCURVE",
"894 176 OFFCURVE",
"893 121 CURVE"
);
}
);
width = 1326;
}
);
unicode = E035;
},
{
glyphname = uniE022;
layers = (
{
layerId = "EEF2BC8D-D964-4B49-BEB0-D3787712A5FD";
name = Regular;
paths = (
{
closed = 1;
nodes = (
"0 288 LINE",
"0 342 LINE SMOOTH",
"0 353 OFFCURVE",
"4 363 OFFCURVE",
"13 372 CURVE SMOOTH",
"21 380 OFFCURVE",
"31 384 OFFCURVE",
"43 384 CURVE SMOOTH",
"96 384 LINE",
"96 429 LINE SMOOTH",
"96 436 OFFCURVE",
"99 447 OFFCURVE",
"104 460 CURVE SMOOTH",
"109 473 OFFCURVE",
"115 480 OFFCURVE",
"120 480 CURVE SMOOTH",
"169 480 LINE SMOOTH",
"174 480 OFFCURVE",
"180 473 OFFCURVE",
"185 460 CURVE SMOOTH",
"190 447 OFFCURVE",
"193 436 OFFCURVE",
"193 429 CURVE SMOOTH",
"193 384 LINE",
"352 384 LINE",
"352 429 LINE SMOOTH",
"352 436 OFFCURVE",
"355 447 OFFCURVE",
"360 460 CURVE SMOOTH",
"365 473 OFFCURVE",
"371 480 OFFCURVE",
"376 480 CURVE SMOOTH",
"425 480 LINE SMOOTH",
"430 480 OFFCURVE",
"436 473 OFFCURVE",
"441 460 CURVE SMOOTH",
"446 447 OFFCURVE",
"449 436 OFFCURVE",
"449 429 CURVE SMOOTH",
"449 384 LINE",
"469 384 LINE SMOOTH",
"481 384 OFFCURVE",
"491 380 OFFCURVE",
"500 372 CURVE",
"508 363 OFFCURVE",
"512 353 OFFCURVE",
"512 342 CURVE SMOOTH",
"512 288 LINE"
);
},
{
closed = 1;
nodes = (
"512 256 LINE",
"512 10 LINE SMOOTH",
"512 -2 OFFCURVE",
"508 -12 OFFCURVE",
"500 -20 CURVE",
"491 -28 OFFCURVE",
"481 -32 OFFCURVE",
"469 -32 CURVE SMOOTH",
"43 -32 LINE SMOOTH",
"31 -32 OFFCURVE",
"21 -28 OFFCURVE",
"13 -20 CURVE",
"4 -12 OFFCURVE",
"0 -2 OFFCURVE",
"0 10 CURVE SMOOTH",
"0 256 LINE"
);
}
);
width = 512;
}
);
unicode = E022;
},
{
glyphname = uniE036;
layers = (
{
layerId = "EEF2BC8D-D964-4B49-BEB0-D3787712A5FD";
name = Regular;
paths = (
{
closed = 1;
nodes = (
"512 224 LINE",
"322 160 LINE",
"316 -32 LINE",
"194 120 LINE",
"0 66 LINE",
"114 224 LINE",
"0 382 LINE",
"194 328 LINE",
"316 480 LINE",
"322 288 LINE"
);
}
);
width = 512;
}
);
unicode = E036;
},
{
glyphname = uniE037;
layers = (
{
layerId = "EEF2BC8D-D964-4B49-BEB0-D3787712A5FD";
name = Regular;
paths = (
{
closed = 1;
nodes = (
"369 67 OFFCURVE",
"376 64 OFFCURVE",
"385 64 CURVE SMOOTH",
"394 64 OFFCURVE",
"401 67 OFFCURVE",
"408 74 CURVE SMOOTH",
"414 80 OFFCURVE",
"417 87 OFFCURVE",
"417 96 CURVE SMOOTH",
"417 105 OFFCURVE",
"414 112 OFFCURVE",
"408 119 CURVE",
"401 125 OFFCURVE",
"394 128 OFFCURVE",
"385 128 CURVE SMOOTH",
"376 128 OFFCURVE",
"369 125 OFFCURVE",
"363 119 CURVE SMOOTH",
"356 112 OFFCURVE",
"353 105 OFFCURVE",
"353 96 CURVE SMOOTH",
"353 87 OFFCURVE",
"356 80 OFFCURVE",
"363 74 CURVE"
);
},
{
closed = 1;
nodes = (
"44 384 LINE SMOOTH",
"32 384 OFFCURVE",
"22 380 OFFCURVE",
"14 372 CURVE SMOOTH",
"5 363 OFFCURVE",
"1 353 OFFCURVE",
"1 341 CURVE SMOOTH",
"1 11 LINE SMOOTH",
"1 -1 OFFCURVE",
"5 -11 OFFCURVE",
"14 -19 CURVE",
"22 -28 OFFCURVE",
"32 -32 OFFCURVE",
"44 -32 CURVE SMOOTH",
"470 -32 LINE SMOOTH",
"482 -32 OFFCURVE",
"492 -28 OFFCURVE",
"501 -19 CURVE SMOOTH",
"509 -11 OFFCURVE",
"513 -1 OFFCURVE",
"513 11 CURVE SMOOTH",
"513 341 LINE SMOOTH",
"513 353 OFFCURVE",
"509 363 OFFCURVE",
"501 372 CURVE",
"492 380 OFFCURVE",
"482 384 OFFCURVE",
"470 384 CURVE SMOOTH"
);
},
{
closed = 1;
nodes = (
"449 32 LINE",
"65 32 LINE",
"65 160 LINE",
"449 160 LINE"
);
},
{
closed = 1;
nodes = (
"449 256 LINE",
"65 256 LINE",
"65 320 LINE",
"449 320 LINE"
);
}
);
width = 512;
}
);
unicode = E037;
},
{
glyphname = uniE038;
layers = (
{
layerId = "EEF2BC8D-D964-4B49-BEB0-D3787712A5FD";
name = Regular;
paths = (
{
closed = 1;
nodes = (
"42 214 LINE SMOOTH",
"14 186 OFFCURVE",
"0 152 OFFCURVE",
"0 112 CURVE SMOOTH",
"0 72 OFFCURVE",
"14 38 OFFCURVE",
"42 10 CURVE SMOOTH",
"70 -18 OFFCURVE",
"104 -32 OFFCURVE",
"144 -32 CURVE SMOOTH",
"184 -32 OFFCURVE",
"218 -18 OFFCURVE",
"246 10 CURVE SMOOTH",
"293 56 LINE",
"268 57 OFFCURVE",
"246 64 OFFCURVE",
"225 79 CURVE",
"201 55 LINE SMOOTH",
"185 40 OFFCURVE",
"166 32 OFFCURVE",
"144 32 CURVE SMOOTH",
"122 32 OFFCURVE",
"103 40 OFFCURVE",
"88 56 CURVE",
"72 71 OFFCURVE",
"64 90 OFFCURVE",
"64 112 CURVE SMOOTH",
"64 134 OFFCURVE",
"72 153 OFFCURVE",
"87 169 CURVE SMOOTH",
"311 393 LINE SMOOTH",
"327 408 OFFCURVE",
"346 416 OFFCURVE",
"368 416 CURVE SMOOTH",
"390 416 OFFCURVE",
"409 408 OFFCURVE",
"425 393 CURVE",
"440 377 OFFCURVE",
"448 358 OFFCURVE",
"448 336 CURVE SMOOTH",
"448 314 OFFCURVE",
"440 295 OFFCURVE",
"425 279 CURVE SMOOTH",
"313 167 LINE SMOOTH",
"308 162 OFFCURVE",
"303 160 OFFCURVE",
"296 160 CURVE SMOOTH",
"289 160 OFFCURVE",
"284 162 OFFCURVE",
"279 167 CURVE SMOOTH",
"274 172 OFFCURVE",
"272 177 OFFCURVE",
"272 184 CURVE SMOOTH",
"272 191 OFFCURVE",
"274 196 OFFCURVE",
"279 201 CURVE SMOOTH",
"363 286 LINE",
"371 293 OFFCURVE",
"371 301 OFFCURVE",
"363 309 CURVE SMOOTH",
"341 331 LINE SMOOTH",
"333 339 OFFCURVE",
"325 339 OFFCURVE",
"318 331 CURVE",
"234 246 LINE SMOOTH",
"217 229 OFFCURVE",
"208 208 OFFCURVE",
"208 184 CURVE SMOOTH",
"208 160 OFFCURVE",
"217 139 OFFCURVE",
"234 122 CURVE SMOOTH",
"251 105 OFFCURVE",
"272 96 OFFCURVE",
"296 96 CURVE SMOOTH",
"320 96 OFFCURVE",
"341 105 OFFCURVE",
"358 122 CURVE SMOOTH",
"470 234 LINE SMOOTH",
"498 262 OFFCURVE",
"512 296 OFFCURVE",
"512 336 CURVE SMOOTH",
"512 376 OFFCURVE",
"498 410 OFFCURVE",
"470 438 CURVE SMOOTH",
"442 466 OFFCURVE",
"408 480 OFFCURVE",
"368 480 CURVE SMOOTH",
"328 480 OFFCURVE",
"294 466 OFFCURVE",
"266 438 CURVE SMOOTH"
);
}
);
width = 512;
}
);
unicode = E038;
},
{
glyphname = uniE039;
layers = (
{
layerId = "EEF2BC8D-D964-4B49-BEB0-D3787712A5FD";
name = Regular;
paths = (
{
closed = 1;
nodes = (
"206 377 OFFCURVE",
"174 345 OFFCURVE",
"171 342 CURVE SMOOTH",
"143 314 OFFCURVE",
"129 280 OFFCURVE",
"129 240 CURVE SMOOTH",
"129 200 OFFCURVE",
"143 166 OFFCURVE",
"171 138 CURVE SMOOTH",
"183 126 LINE SMOOTH",
"186 123 OFFCURVE",
"190 122 OFFCURVE",
"195 122 CURVE SMOOTH",
"199 122 OFFCURVE",
"203 123 OFFCURVE",
"206 126 CURVE SMOOTH",
"228 149 LINE SMOOTH",
"235 156 OFFCURVE",
"235 164 OFFCURVE",
"228 172 CURVE",
"216 183 LINE",
"201 198 OFFCURVE",
"193 217 OFFCURVE",
"193 239 CURVE SMOOTH",
"193 261 OFFCURVE",
"201 280 OFFCURVE",
"216 296 CURVE",
"216 296 OFFCURVE",
"219 299 OFFCURVE",
"226 306 CURVE SMOOTH",
"233 313 OFFCURVE",
"241 321 OFFCURVE",
"250 330 CURVE SMOOTH",
"259 339 OFFCURVE",
"269 349 OFFCURVE",
"279 359 CURVE SMOOTH",
"288 368 OFFCURVE",
"296 376 OFFCURVE",
"303 383 CURVE",
"312 393 LINE",
"328 408 OFFCURVE",
"347 416 OFFCURVE",
"369 416 CURVE SMOOTH",
"391 416 OFFCURVE",
"410 408 OFFCURVE",
"426 393 CURVE",
"441 377 OFFCURVE",
"449 358 OFFCURVE",
"449 336 CURVE SMOOTH",
"449 314 OFFCURVE",
"441 295 OFFCURVE",
"426 279 CURVE",
"421 275 LINE",
"429 252 OFFCURVE",
"433 230 OFFCURVE",
"433 208 CURVE SMOOTH",
"433 207 OFFCURVE",
"433 205 OFFCURVE",
"433 202 CURVE",
"432 199 OFFCURVE",
"432 196 OFFCURVE",
"432 195 CURVE",
"471 234 LINE SMOOTH",
"499 262 OFFCURVE",
"513 296 OFFCURVE",
"513 336 CURVE SMOOTH",
"513 376 OFFCURVE",
"499 410 OFFCURVE",
"471 438 CURVE SMOOTH",
"443 466 OFFCURVE",
"409 480 OFFCURVE",
"369 480 CURVE SMOOTH",
"329 480 OFFCURVE",
"295 466 OFFCURVE",
"267 438 CURVE SMOOTH"
);
},
{
closed = 1;
nodes = (
"331 322 LINE SMOOTH",
"328 325 OFFCURVE",
"324 326 OFFCURVE",
"320 326 CURVE SMOOTH",
"315 326 OFFCURVE",
"311 325 OFFCURVE",
"308 322 CURVE SMOOTH",
"286 299 LINE",
"278 292 OFFCURVE",
"278 284 OFFCURVE",
"286 276 CURVE",
"298 265 LINE",
"313 250 OFFCURVE",
"321 231 OFFCURVE",
"321 209 CURVE SMOOTH",
"321 187 OFFCURVE",
"313 168 OFFCURVE",
"298 152 CURVE",
"298 152 OFFCURVE",
"295 149 OFFCURVE",
"288 142 CURVE SMOOTH",
"281 135 OFFCURVE",
"273 127 OFFCURVE",
"264 118 CURVE SMOOTH",
"255 109 OFFCURVE",
"245 99 OFFCURVE",
"236 90 CURVE SMOOTH",
"226 80 OFFCURVE",
"218 72 OFFCURVE",
"212 65 CURVE",
"205 58 OFFCURVE",
"202 55 OFFCURVE",
"202 55 CURVE",
"186 40 OFFCURVE",
"167 32 OFFCURVE",
"145 32 CURVE SMOOTH",
"123 32 OFFCURVE",
"104 40 OFFCURVE",
"89 56 CURVE",
"73 71 OFFCURVE",
"65 90 OFFCURVE",
"65 112 CURVE SMOOTH",
"65 134 OFFCURVE",
"73 153 OFFCURVE",
"88 169 CURVE",
"93 173 LINE",
"85 196 OFFCURVE",
"81 218 OFFCURVE",
"81 240 CURVE SMOOTH",
"81 242 OFFCURVE",
"81 245 OFFCURVE",
"82 248 CURVE",
"82 251 OFFCURVE",
"82 252 OFFCURVE",
"82 253 CURVE",
"43 214 LINE SMOOTH",
"15 186 OFFCURVE",
"1 152 OFFCURVE",
"1 112 CURVE SMOOTH",
"1 72 OFFCURVE",
"15 38 OFFCURVE",
"43 10 CURVE SMOOTH",
"71 -18 OFFCURVE",
"105 -32 OFFCURVE",
"145 -32 CURVE SMOOTH",
"185 -32 OFFCURVE",
"219 -18 OFFCURVE",
"247 10 CURVE SMOOTH",
"308 71 OFFCURVE",
"340 103 OFFCURVE",
"343 106 CURVE SMOOTH",
"371 134 OFFCURVE",
"385 168 OFFCURVE",
"385 208 CURVE SMOOTH",
"385 248 OFFCURVE",
"371 282 OFFCURVE",
"343 310 CURVE SMOOTH"
);
}
);
width = 512;
}
);
unicode = E039;
},
{
glyphname = uniE03B;
layers = (
{
layerId = "EEF2BC8D-D964-4B49-BEB0-D3787712A5FD";
name = Regular;
paths = (
{
closed = 1;
nodes = (
"32 480 LINE SMOOTH",
"23 480 OFFCURVE",
"16 477 OFFCURVE",
"10 471 CURVE SMOOTH",
"3 464 OFFCURVE",
"0 457 OFFCURVE",
"0 448 CURVE SMOOTH",
"0 0 LINE SMOOTH",
"0 -9 OFFCURVE",
"3 -16 OFFCURVE",
"10 -22 CURVE",
"16 -29 OFFCURVE",
"23 -32 OFFCURVE",
"32 -32 CURVE SMOOTH",
"128 -32 LINE SMOOTH",
"137 -32 OFFCURVE",
"144 -29 OFFCURVE",
"151 -22 CURVE SMOOTH",
"157 -16 OFFCURVE",
"160 -9 OFFCURVE",
"160 0 CURVE SMOOTH",
"160 448 LINE SMOOTH",
"160 457 OFFCURVE",
"157 464 OFFCURVE",
"151 471 CURVE",
"144 477 OFFCURVE",
"137 480 OFFCURVE",
"128 480 CURVE SMOOTH"
);
},
{
closed = 1;
nodes = (
"352 480 LINE SMOOTH",
"343 480 OFFCURVE",
"336 477 OFFCURVE",
"330 471 CURVE SMOOTH",
"323 464 OFFCURVE",
"320 457 OFFCURVE",
"320 448 CURVE SMOOTH",
"320 0 LINE SMOOTH",
"320 -9 OFFCURVE",
"323 -16 OFFCURVE",
"330 -22 CURVE",
"336 -29 OFFCURVE",
"343 -32 OFFCURVE",
"352 -32 CURVE SMOOTH",
"448 -32 LINE SMOOTH",
"457 -32 OFFCURVE",
"464 -29 OFFCURVE",
"471 -22 CURVE SMOOTH",
"477 -16 OFFCURVE",
"480 -9 OFFCURVE",
"480 0 CURVE SMOOTH",
"480 448 LINE SMOOTH",
"480 457 OFFCURVE",
"477 464 OFFCURVE",
"471 471 CURVE",
"464 477 OFFCURVE",
"457 480 OFFCURVE",
"448 480 CURVE SMOOTH"
);
}
);
width = 512;
}
);
unicode = E03B;
},
{
glyphname = uniE03C;
layers = (
{
layerId = "EEF2BC8D-D964-4B49-BEB0-D3787712A5FD";
name = Regular;
paths = (
{
closed = 1;
nodes = (
"24 478 LINE SMOOTH",
"19 481 OFFCURVE",
"13 481 OFFCURVE",
"8 478 CURVE SMOOTH",
"3 475 OFFCURVE",
"0 470 OFFCURVE",
"0 464 CURVE SMOOTH",
"0 -16 LINE SMOOTH",
"0 -22 OFFCURVE",
"3 -27 OFFCURVE",
"8 -30 CURVE",
"11 -31 OFFCURVE",
"13 -32 OFFCURVE",
"16 -32 CURVE SMOOTH",
"19 -32 OFFCURVE",
"21 -31 OFFCURVE",
"24 -30 CURVE",
"440 210 LINE SMOOTH",
"445 213 OFFCURVE",
"448 218 OFFCURVE",
"448 224 CURVE SMOOTH",
"448 230 OFFCURVE",
"445 235 OFFCURVE",
"440 238 CURVE SMOOTH"
);
}
);
width = 512;
}
);
unicode = E03C;
},
{
glyphname = uniE03D;
layers = (
{
layerId = "EEF2BC8D-D964-4B49-BEB0-D3787712A5FD";
name = Regular;
paths = (
{
closed = 1;
nodes = (
"386 370 LINE",
"379 379 OFFCURVE",
"370 384 OFFCURVE",
"359 384 CURVE SMOOTH",
"32 384 LINE SMOOTH",
"23 384 OFFCURVE",
"16 381 OFFCURVE",
"10 375 CURVE SMOOTH",
"3 368 OFFCURVE",
"0 361 OFFCURVE",
"0 352 CURVE SMOOTH",
"0 0 LINE SMOOTH",
"0 -9 OFFCURVE",
"3 -16 OFFCURVE",
"10 -22 CURVE",
"16 -29 OFFCURVE",
"23 -32 OFFCURVE",
"32 -32 CURVE SMOOTH",
"359 -32 LINE SMOOTH",
"370 -32 OFFCURVE",
"379 -27 OFFCURVE",
"386 -18 CURVE",
"506 158 LINE",
"515 170 OFFCURVE",
"515 182 OFFCURVE",
"506 194 CURVE"
);
},
{
closed = 1;
nodes = (
"393 133 OFFCURVE",
"381 128 OFFCURVE",
"368 128 CURVE SMOOTH",
"355 128 OFFCURVE",
"343 133 OFFCURVE",
"334 142 CURVE SMOOTH",
"325 151 OFFCURVE",
"320 163 OFFCURVE",
"320 176 CURVE SMOOTH",
"320 189 OFFCURVE",
"325 201 OFFCURVE",
"334 210 CURVE SMOOTH",
"343 219 OFFCURVE",
"355 224 OFFCURVE",
"368 224 CURVE SMOOTH",
"381 224 OFFCURVE",
"393 219 OFFCURVE",
"402 210 CURVE SMOOTH",
"411 201 OFFCURVE",
"416 189 OFFCURVE",
"416 176 CURVE SMOOTH",
"416 163 OFFCURVE",
"411 151 OFFCURVE",
"402 142 CURVE SMOOTH"
);
}
);
width = 512;
}
);
unicode = E03D;
},
{
glyphname = uniE03E;
layers = (
{
layerId = "EEF2BC8D-D964-4B49-BEB0-D3787712A5FD";
name = Regular;
paths = (
{
closed = 1;
nodes = (
"43 480 LINE SMOOTH",
"32 480 OFFCURVE",
"22 477 OFFCURVE",
"13 470 CURVE SMOOTH",
"4 463 OFFCURVE",
"0 455 OFFCURVE",
"0 448 CURVE SMOOTH",
"0 21 LINE SMOOTH",
"0 4 OFFCURVE",
"4 -9 OFFCURVE",
"13 -18 CURVE",
"21 -27 OFFCURVE",
"31 -32 OFFCURVE",
"43 -32 CURVE SMOOTH",
"373 -32 LINE SMOOTH",
"385 -32 OFFCURVE",
"395 -28 OFFCURVE",
"404 -19 CURVE SMOOTH",
"412 -11 OFFCURVE",
"416 -1 OFFCURVE",
"416 11 CURVE SMOOTH",
"416 437 LINE SMOOTH",
"416 449 OFFCURVE",
"412 459 OFFCURVE",
"404 468 CURVE",
"395 476 OFFCURVE",
"385 480 OFFCURVE",
"373 480 CURVE SMOOTH"
);
},
{
closed = 1;
nodes = (
"96 64 LINE SMOOTH",
"87 64 OFFCURVE",
"80 67 OFFCURVE",
"74 74 CURVE",
"67 80 OFFCURVE",
"64 87 OFFCURVE",
"64 96 CURVE SMOOTH",
"64 105 OFFCURVE",
"67 112 OFFCURVE",
"74 119 CURVE SMOOTH",
"80 125 OFFCURVE",
"87 128 OFFCURVE",
"96 128 CURVE SMOOTH",
"224 128 LINE SMOOTH",
"233 128 OFFCURVE",
"240 125 OFFCURVE",
"247 119 CURVE",
"253 112 OFFCURVE",
"256 105 OFFCURVE",
"256 96 CURVE SMOOTH",
"256 87 OFFCURVE",
"253 80 OFFCURVE",
"247 74 CURVE SMOOTH",
"240 67 OFFCURVE",
"233 64 OFFCURVE",
"224 64 CURVE SMOOTH"
);
},
{
closed = 1;
nodes = (
"96 192 LINE SMOOTH",
"87 192 OFFCURVE",
"80 195 OFFCURVE",
"74 202 CURVE",
"67 208 OFFCURVE",
"64 215 OFFCURVE",
"64 224 CURVE SMOOTH",
"64 233 OFFCURVE",
"67 240 OFFCURVE",
"74 247 CURVE SMOOTH",
"80 253 OFFCURVE",
"87 256 OFFCURVE",
"96 256 CURVE SMOOTH",
"320 256 LINE SMOOTH",
"329 256 OFFCURVE",
"336 253 OFFCURVE",
"343 247 CURVE",
"349 240 OFFCURVE",
"352 233 OFFCURVE",
"352 224 CURVE SMOOTH",
"352 215 OFFCURVE",
"349 208 OFFCURVE",
"343 202 CURVE SMOOTH",
"336 195 OFFCURVE",
"329 192 OFFCURVE",
"320 192 CURVE SMOOTH"
);
},
{
closed = 1;
nodes = (
"96 320 LINE SMOOTH",
"87 320 OFFCURVE",
"80 323 OFFCURVE",
"74 330 CURVE",
"67 336 OFFCURVE",
"64 343 OFFCURVE",
"64 352 CURVE SMOOTH",
"64 361 OFFCURVE",
"67 368 OFFCURVE",
"74 375 CURVE SMOOTH",
"80 381 OFFCURVE",
"87 384 OFFCURVE",
"96 384 CURVE SMOOTH",
"320 384 LINE SMOOTH",
"329 384 OFFCURVE",
"336 381 OFFCURVE",
"343 375 CURVE",
"349 368 OFFCURVE",
"352 361 OFFCURVE",
"352 352 CURVE SMOOTH",
"352 343 OFFCURVE",
"349 336 OFFCURVE",
"343 330 CURVE SMOOTH",
"336 323 OFFCURVE",
"329 320 OFFCURVE",
"320 320 CURVE SMOOTH"
);
}
);
width = 512;
}
);
unicode = E03E;
},
{
glyphname = uniE03A;
layers = (
{
layerId = "EEF2BC8D-D964-4B49-BEB0-D3787712A5FD";
name = Regular;
paths = (
{
closed = 1;
nodes = (
"43 -32 LINE SMOOTH",
"31 -32 OFFCURVE",
"21 -28 OFFCURVE",
"13 -20 CURVE",
"4 -12 OFFCURVE",
"0 -2 OFFCURVE",
"0 10 CURVE SMOOTH",
"0 342 LINE SMOOTH",
"0 354 OFFCURVE",
"4 364 OFFCURVE",
"13 372 CURVE",
"21 380 OFFCURVE",
"31 384 OFFCURVE",
"43 384 CURVE SMOOTH",
"469 384 LINE SMOOTH",
"481 384 OFFCURVE",
"491 380 OFFCURVE",
"500 372 CURVE",
"508 364 OFFCURVE",
"512 354 OFFCURVE",
"512 342 CURVE SMOOTH",
"512 10 LINE SMOOTH",
"512 -2 OFFCURVE",
"508 -12 OFFCURVE",
"500 -20 CURVE",
"491 -28 OFFCURVE",
"481 -32 OFFCURVE",
"469 -32 CURVE SMOOTH"
);
},
{
closed = 1;
nodes = (
"448 320 LINE",
"64 320 LINE",
"64 64 LINE",
"85 85 OFFCURVE",
"107 107 OFFCURVE",
"128 128 CURVE SMOOTH",
"137 137 OFFCURVE",
"147 142 OFFCURVE",
"158 142 CURVE SMOOTH",
"169 142 OFFCURVE",
"177 140 OFFCURVE",
"183 136 CURVE SMOOTH",
"189 132 OFFCURVE",
"192 129 OFFCURVE",
"192 128 CURVE",
"224 96 LINE",
"263 137 OFFCURVE",
"295 169 OFFCURVE",
"320 192 CURVE",
"330 202 OFFCURVE",
"340 207 OFFCURVE",
"351 207 CURVE",
"362 206 OFFCURVE",
"370 204 OFFCURVE",
"376 200 CURVE",
"381 196 OFFCURVE",
"384 193 OFFCURVE",
"384 192 CURVE",
"448 128 LINE"
);
},
{
closed = 1;
nodes = (
"176 195 OFFCURVE",
"169 192 OFFCURVE",
"160 192 CURVE SMOOTH",
"151 192 OFFCURVE",
"144 195 OFFCURVE",
"138 202 CURVE",
"131 208 OFFCURVE",
"128 215 OFFCURVE",
"128 224 CURVE SMOOTH",
"128 233 OFFCURVE",
"131 240 OFFCURVE",
"138 247 CURVE SMOOTH",
"144 253 OFFCURVE",
"151 256 OFFCURVE",
"160 256 CURVE SMOOTH",
"169 256 OFFCURVE",
"176 253 OFFCURVE",
"183 247 CURVE",
"189 240 OFFCURVE",
"192 233 OFFCURVE",
"192 224 CURVE SMOOTH",
"192 215 OFFCURVE",
"189 208 OFFCURVE",
"183 202 CURVE SMOOTH"
);
}
);
width = 512;
}
);
unicode = E03A;
},
{
glyphname = uniE03F;
layers = (
{
layerId = "EEF2BC8D-D964-4B49-BEB0-D3787712A5FD";
name = Regular;
paths = (
{
closed = 1;
nodes = (
"29 480 LINE SMOOTH",
"21 480 OFFCURVE",
"14 477 OFFCURVE",
"9 472 CURVE SMOOTH",
"3 466 OFFCURVE",
"0 459 OFFCURVE",
"0 451 CURVE SMOOTH",
"0 -3 LINE SMOOTH",
"0 -11 OFFCURVE",
"3 -18 OFFCURVE",
"9 -23 CURVE",
"14 -29 OFFCURVE",
"21 -32 OFFCURVE",
"29 -32 CURVE SMOOTH",
"483 -32 LINE SMOOTH",
"491 -32 OFFCURVE",
"498 -29 OFFCURVE",
"504 -23 CURVE SMOOTH",
"509 -18 OFFCURVE",
"512 -11 OFFCURVE",
"512 -3 CURVE SMOOTH",
"512 451 LINE SMOOTH",
"512 459 OFFCURVE",
"509 466 OFFCURVE",
"504 472 CURVE",
"498 477 OFFCURVE",
"491 480 OFFCURVE",
"483 480 CURVE SMOOTH"
);
},
{
closed = 1;
nodes = (
"435 193 LINE",
"364 193 LINE",
"364 5 LINE",
"293 5 LINE",
"293 193 LINE",
"243 193 LINE",
"243 261 LINE",
"293 261 LINE",
"293 318 LINE SMOOTH",
"293 343 OFFCURVE",
"301 364 OFFCURVE",
"318 381 CURVE SMOOTH",
"334 398 OFFCURVE",
"358 406 OFFCURVE",
"390 406 CURVE",
"437 403 LINE",
"436 340 LINE",
"422 340 OFFCURVE",
"408 340 OFFCURVE",
"393 340 CURVE SMOOTH",
"381 340 OFFCURVE",
"373 338 OFFCURVE",
"370 333 CURVE",
"366 328 OFFCURVE",
"364 321 OFFCURVE",
"364 310 CURVE SMOOTH",
"364 307 LINE",
"364 261 LINE",
"438 261 LINE"
);
}
);
width = 512;
}
);
unicode = E03F;
},
{
glyphname = uniE040;
layers = (
{
layerId = "EEF2BC8D-D964-4B49-BEB0-D3787712A5FD";
name = Regular;
paths = (
{
closed = 1;
nodes = (
"83 416 LINE",
"83 416 OFFCURVE",
"83 416 OFFCURVE",
"83 415 CURVE"
);
},
{
closed = 1;
nodes = (
"509 310 OFFCURVE",
"502 327 OFFCURVE",
"487 342 CURVE SMOOTH",
"472 356 OFFCURVE",
"455 363 OFFCURVE",
"435 363 CURVE",
"378 366 OFFCURVE",
"319 367 OFFCURVE",
"256 367 CURVE SMOOTH",
"193 367 OFFCURVE",
"133 366 OFFCURVE",
"77 363 CURVE",
"57 363 OFFCURVE",
"40 356 OFFCURVE",
"25 342 CURVE SMOOTH",
"10 327 OFFCURVE",
"3 310 OFFCURVE",
"3 289 CURVE",
"1 257 OFFCURVE",
"0 224 OFFCURVE",
"0 191 CURVE SMOOTH",
"0 158 OFFCURVE",
"1 125 OFFCURVE",
"3 93 CURVE",
"3 72 OFFCURVE",
"10 55 OFFCURVE",
"25 40 CURVE SMOOTH",
"40 25 OFFCURVE",
"57 18 OFFCURVE",
"77 18 CURVE SMOOTH",
"135 16 OFFCURVE",
"195 15 OFFCURVE",
"256 15 CURVE SMOOTH",
"317 15 OFFCURVE",
"377 16 OFFCURVE",
"435 18 CURVE SMOOTH",
"455 18 OFFCURVE",
"472 25 OFFCURVE",
"487 40 CURVE SMOOTH",
"502 55 OFFCURVE",
"509 72 OFFCURVE",
"509 93 CURVE",
"511 124 OFFCURVE",
"512 157 OFFCURVE",
"512 191 CURVE SMOOTH",
"512 225 OFFCURVE",
"511 258 OFFCURVE",
"509 289 CURVE"
);
},
{
closed = 1;
nodes = (
"192 79 LINE",
"192 303 LINE",
"352 191 LINE"
);
}
);
width = 512;
}
);
unicode = E040;
},
{
glyphname = uniE041;
layers = (
{
layerId = "EEF2BC8D-D964-4B49-BEB0-D3787712A5FD";
name = Regular;
paths = (
{
closed = 1;
nodes = (
"366 418 OFFCURVE",
"318 378 OFFCURVE",
"293 295 CURVE",
"306 300 OFFCURVE",
"318 303 OFFCURVE",
"331 303 CURVE SMOOTH",
"357 303 OFFCURVE",
"368 288 OFFCURVE",
"365 259 CURVE",
"364 241 OFFCURVE",
"352 215 OFFCURVE",
"331 181 CURVE SMOOTH",
"309 147 OFFCURVE",
"293 130 OFFCURVE",
"282 130 CURVE SMOOTH",
"269 130 OFFCURVE",
"256 156 OFFCURVE",
"244 209 CURVE",
"241 225 OFFCURVE",
"234 265 OFFCURVE",
"224 328 CURVE SMOOTH",
"215 387 OFFCURVE",
"190 414 OFFCURVE",
"150 410 CURVE",
"133 409 OFFCURVE",
"108 393 OFFCURVE",
"75 364 CURVE SMOOTH",
"48 339 OFFCURVE",
"23 317 OFFCURVE",
"0 296 CURVE",
"24 265 LINE",
"47 281 OFFCURVE",
"60 289 OFFCURVE",
"64 289 CURVE SMOOTH",
"82 289 OFFCURVE",
"99 261 OFFCURVE",
"114 205 CURVE SMOOTH",
"119 186 OFFCURVE",
"126 160 OFFCURVE",
"135 125 CURVE SMOOTH",
"144 90 OFFCURVE",
"151 65 OFFCURVE",
"155 52 CURVE",
"176 -4 OFFCURVE",
"201 -32 OFFCURVE",
"231 -32 CURVE SMOOTH",
"279 -32 OFFCURVE",
"338 14 OFFCURVE",
"407 105 CURVE SMOOTH",
"474 193 OFFCURVE",
"509 262 OFFCURVE",
"512 312 CURVE SMOOTH",
"515 380 OFFCURVE",
"490 415 OFFCURVE",
"437 416 CURVE SMOOTH"
);
}
);
width = 512;
}
);
unicode = E041;
},
{
glyphname = uniE042;
layers = (
{
layerId = "EEF2BC8D-D964-4B49-BEB0-D3787712A5FD";
name = Regular;
paths = (
{
closed = 1;
nodes = (
"83 480 LINE",
"83 480 OFFCURVE",
"83 480 OFFCURVE",
"83 479 CURVE"
);
},
{
closed = 1;
nodes = (
"493 405 OFFCURVE",
"473 400 OFFCURVE",
"452 397 CURVE",
"475 410 OFFCURVE",
"490 430 OFFCURVE",
"498 455 CURVE",
"477 443 OFFCURVE",
"455 435 OFFCURVE",
"431 430 CURVE",
"410 452 OFFCURVE",
"385 463 OFFCURVE",
"354 463 CURVE SMOOTH",
"325 463 OFFCURVE",
"301 453 OFFCURVE",
"280 432 CURVE SMOOTH",
"259 411 OFFCURVE",
"249 387 OFFCURVE",
"249 358 CURVE SMOOTH",
"249 350 OFFCURVE",
"250 342 OFFCURVE",
"252 334 CURVE",
"209 336 OFFCURVE",
"169 347 OFFCURVE",
"132 366 CURVE SMOOTH",
"94 385 OFFCURVE",
"62 411 OFFCURVE",
"36 444 CURVE",
"26 427 OFFCURVE",
"21 410 OFFCURVE",
"21 391 CURVE SMOOTH",
"21 354 OFFCURVE",
"37 324 OFFCURVE",
"68 303 CURVE",
"51 304 OFFCURVE",
"36 308 OFFCURVE",
"21 317 CURVE",
"21 315 LINE SMOOTH",
"21 290 OFFCURVE",
"29 268 OFFCURVE",
"45 249 CURVE SMOOTH",
"60 230 OFFCURVE",
"80 217 OFFCURVE",
"105 212 CURVE",
"96 210 OFFCURVE",
"86 209 OFFCURVE",
"77 209 CURVE SMOOTH",
"70 209 OFFCURVE",
"64 209 OFFCURVE",
"57 210 CURVE",
"64 189 OFFCURVE",
"76 172 OFFCURVE",
"94 159 CURVE",
"112 145 OFFCURVE",
"132 138 OFFCURVE",
"155 138 CURVE",
"117 108 OFFCURVE",
"74 93 OFFCURVE",
"25 93 CURVE SMOOTH",
"16 93 OFFCURVE",
"8 93 OFFCURVE",
"0 94 CURVE",
"49 63 OFFCURVE",
"103 47 OFFCURVE",
"161 47 CURVE SMOOTH",
"208 47 OFFCURVE",
"250 56 OFFCURVE",
"289 74 CURVE SMOOTH",
"328 92 OFFCURVE",
"359 116 OFFCURVE",
"384 145 CURVE SMOOTH",
"408 174 OFFCURVE",
"427 206 OFFCURVE",
"440 241 CURVE SMOOTH",
"453 276 OFFCURVE",
"460 311 OFFCURVE",
"460 346 CURVE SMOOTH",
"460 351 OFFCURVE",
"460 355 OFFCURVE",
"460 359 CURVE",
"481 374 OFFCURVE",
"498 393 OFFCURVE",
"512 414 CURVE"
);
}
);
width = 512;
}
);
unicode = E042;
},
{
glyphname = uniE043;
layers = (
{
layerId = "EEF2BC8D-D964-4B49-BEB0-D3787712A5FD";
name = Regular;
paths = (
{
closed = 1;
nodes = (
"387 455 OFFCURVE",
"327 480 OFFCURVE",
"256 480 CURVE SMOOTH",
"185 480 OFFCURVE",
"125 455 OFFCURVE",
"75 405 CURVE SMOOTH",
"25 355 OFFCURVE",
"0 295 OFFCURVE",
"0 224 CURVE SMOOTH",
"0 153 OFFCURVE",
"25 93 OFFCURVE",
"75 43 CURVE SMOOTH",
"125 -7 OFFCURVE",
"185 -32 OFFCURVE",
"256 -32 CURVE SMOOTH",
"327 -32 OFFCURVE",
"387 -7 OFFCURVE",
"437 43 CURVE SMOOTH",
"487 93 OFFCURVE",
"512 153 OFFCURVE",
"512 224 CURVE SMOOTH",
"512 295 OFFCURVE",
"487 355 OFFCURVE",
"437 405 CURVE SMOOTH"
);
},
{
closed = 1;
nodes = (
"238 177 LINE",
"237 159 OFFCURVE",
"231 144 OFFCURVE",
"218 132 CURVE",
"205 119 OFFCURVE",
"190 113 OFFCURVE",
"172 113 CURVE SMOOTH",
"154 113 OFFCURVE",
"139 119 OFFCURVE",
"126 132 CURVE SMOOTH",
"113 145 OFFCURVE",
"107 160 OFFCURVE",
"107 178 CURVE SMOOTH",
"107 219 LINE",
"157 219 LINE",
"157 179 LINE SMOOTH",
"157 174 OFFCURVE",
"159 171 OFFCURVE",
"162 168 CURVE SMOOTH",
"165 165 OFFCURVE",
"168 163 OFFCURVE",
"173 163 CURVE SMOOTH",
"177 163 OFFCURVE",
"181 165 OFFCURVE",
"184 168 CURVE SMOOTH",
"187 171 OFFCURVE",
"188 174 OFFCURVE",
"188 179 CURVE SMOOTH",
"188 273 LINE",
"189 291 OFFCURVE",
"195 306 OFFCURVE",
"208 318 CURVE SMOOTH",
"221 330 OFFCURVE",
"236 336 OFFCURVE",
"254 336 CURVE SMOOTH",
"271 336 OFFCURVE",
"286 330 OFFCURVE",
"299 318 CURVE",
"312 305 OFFCURVE",
"318 290 OFFCURVE",
"319 273 CURVE",
"319 252 LINE",
"289 243 LINE",
"269 253 LINE",
"269 271 LINE SMOOTH",
"269 275 OFFCURVE",
"268 279 OFFCURVE",
"265 282 CURVE SMOOTH",
"262 285 OFFCURVE",
"258 286 OFFCURVE",
"254 286 CURVE SMOOTH",
"249 286 OFFCURVE",
"246 285 OFFCURVE",
"243 282 CURVE SMOOTH",
"240 279 OFFCURVE",
"238 275 OFFCURVE",
"238 270 CURVE SMOOTH"
);
},
{
closed = 1;
nodes = (
"400 160 OFFCURVE",
"394 145 OFFCURVE",
"381 132 CURVE SMOOTH",
"368 119 OFFCURVE",
"352 113 OFFCURVE",
"334 113 CURVE SMOOTH",
"316 113 OFFCURVE",
"301 119 OFFCURVE",
"288 132 CURVE",
"275 144 OFFCURVE",
"269 159 OFFCURVE",
"269 177 CURVE SMOOTH",
"269 218 LINE",
"289 209 LINE",
"319 218 LINE",
"319 177 LINE SMOOTH",
"319 172 OFFCURVE",
"321 169 OFFCURVE",
"324 166 CURVE SMOOTH",
"327 163 OFFCURVE",
"330 161 OFFCURVE",
"334 161 CURVE SMOOTH",
"338 161 OFFCURVE",
"342 163 OFFCURVE",
"345 166 CURVE SMOOTH",
"348 169 OFFCURVE",
"350 172 OFFCURVE",
"350 177 CURVE SMOOTH",
"350 219 LINE",
"400 219 LINE",
"400 219 OFFCURVE",
"400 205 OFFCURVE",
"400 178 CURVE SMOOTH"
);
}
);
width = 512;
}
);
unicode = E043;
},
{
glyphname = uniE044;
layers = (
{
layerId = "EEF2BC8D-D964-4B49-BEB0-D3787712A5FD";
name = Regular;
paths = (
{
closed = 1;
nodes = (
"111 58 OFFCURVE",
"137 81 OFFCURVE",
"168 98 CURVE SMOOTH",
"199 115 OFFCURVE",
"233 123 OFFCURVE",
"270 123 CURVE SMOOTH",
"303 123 OFFCURVE",
"334 116 OFFCURVE",
"363 102 CURVE SMOOTH",
"392 88 OFFCURVE",
"417 69 OFFCURVE",
"438 44 CURVE",
"487 94 OFFCURVE",
"512 154 OFFCURVE",
"512 224 CURVE SMOOTH",
"512 295 OFFCURVE",
"487 355 OFFCURVE",
"437 405 CURVE SMOOTH",
"387 455 OFFCURVE",
"327 480 OFFCURVE",
"256 480 CURVE SMOOTH",
"185 480 OFFCURVE",
"125 455 OFFCURVE",
"75 405 CURVE SMOOTH",
"25 355 OFFCURVE",
"0 295 OFFCURVE",
"0 224 CURVE SMOOTH",
"0 185 OFFCURVE",
"8 149 OFFCURVE",
"24 116 CURVE SMOOTH",
"40 82 OFFCURVE",
"62 53 OFFCURVE",
"90 29 CURVE"
);
},
{
closed = 1;
nodes = (
"389 139 OFFCURVE",
"383 137 OFFCURVE",
"375 141 CURVE",
"339 157 OFFCURVE",
"302 165 OFFCURVE",
"263 165 CURVE SMOOTH",
"222 165 OFFCURVE",
"184 157 OFFCURVE",
"148 140 CURVE",
"141 136 OFFCURVE",
"135 139 OFFCURVE",
"132 148 CURVE SMOOTH",
"129 157 OFFCURVE",
"131 163 OFFCURVE",
"138 166 CURVE",
"177 185 OFFCURVE",
"219 194 OFFCURVE",
"263 194 CURVE SMOOTH",
"309 194 OFFCURVE",
"350 185 OFFCURVE",
"385 167 CURVE",
"388 165 OFFCURVE",
"391 162 OFFCURVE",
"393 159 CURVE",
"394 155 OFFCURVE",
"394 151 OFFCURVE",
"393 147 CURVE"
);
},
{
closed = 1;
nodes = (
"415 213 LINE",
"412 208 OFFCURVE",
"408 206 OFFCURVE",
"403 206 CURVE SMOOTH",
"402 206 OFFCURVE",
"401 206 OFFCURVE",
"399 207 CURVE",
"356 226 OFFCURVE",
"310 236 OFFCURVE",
"263 236 CURVE SMOOTH",
"216 236 OFFCURVE",
"170 227 OFFCURVE",
"127 208 CURVE",
"125 207 OFFCURVE",
"123 207 OFFCURVE",
"122 207 CURVE SMOOTH",
"117 207 OFFCURVE",
"113 209 OFFCURVE",
"110 213 CURVE",
"108 221 LINE",
"108 226 OFFCURVE",
"110 229 OFFCURVE",
"113 232 CURVE",
"160 253 OFFCURVE",
"210 264 OFFCURVE",
"263 264 CURVE SMOOTH",
"315 264 OFFCURVE",
"365 253 OFFCURVE",
"412 232 CURVE",
"415 229 OFFCURVE",
"417 226 OFFCURVE",
"418 221 CURVE"
);
},
{
closed = 1;
nodes = (
"148 338 OFFCURVE",
"204 349 OFFCURVE",
"263 349 CURVE SMOOTH",
"320 349 OFFCURVE",
"376 338 OFFCURVE",
"430 317 CURVE",
"438 313 OFFCURVE",
"442 307 OFFCURVE",
"442 298 CURVE SMOOTH",
"442 292 OFFCURVE",
"440 287 OFFCURVE",
"436 283 CURVE SMOOTH",
"431 278 OFFCURVE",
"426 276 OFFCURVE",
"420 276 CURVE SMOOTH",
"419 276 OFFCURVE",
"418 276 OFFCURVE",
"415 277 CURVE",
"366 296 OFFCURVE",
"316 306 OFFCURVE",
"263 306 CURVE SMOOTH",
"210 306 OFFCURVE",
"159 296 OFFCURVE",
"110 277 CURVE",
"107 276 OFFCURVE",
"106 276 OFFCURVE",
"105 276 CURVE SMOOTH",
"99 276 OFFCURVE",
"94 278 OFFCURVE",
"90 283 CURVE",
"86 287 OFFCURVE",
"84 292 OFFCURVE",
"84 298 CURVE SMOOTH",
"84 306 OFFCURVE",
"87 312 OFFCURVE",
"94 316 CURVE"
);
},
{
closed = 1;
nodes = (
"226 38 OFFCURVE",
"190 21 OFFCURVE",
"163 -14 CURVE",
"194 -26 OFFCURVE",
"225 -32 OFFCURVE",
"256 -32 CURVE SMOOTH",
"295 -32 OFFCURVE",
"333 -23 OFFCURVE",
"369 -6 CURVE",
"342 23 OFFCURVE",
"309 38 OFFCURVE",
"270 38 CURVE SMOOTH"
);
}
);
width = 512;
}
);
unicode = E044;
},
{
glyphname = uniE045;
layers = (
{
layerId = "EEF2BC8D-D964-4B49-BEB0-D3787712A5FD";
name = Regular;
paths = (
{
closed = 1;
nodes = (
"83 465 LINE",
"83 465 OFFCURVE",
"83 465 OFFCURVE",
"83 464 CURVE"
);
},
{
closed = 1;
nodes = (
"493 200 OFFCURVE",
"494 212 OFFCURVE",
"494 224 CURVE SMOOTH",
"494 289 OFFCURVE",
"471 345 OFFCURVE",
"424 392 CURVE SMOOTH",
"377 439 OFFCURVE",
"321 462 OFFCURVE",
"256 462 CURVE SMOOTH",
"244 462 OFFCURVE",
"232 461 OFFCURVE",
"219 459 CURVE",
"196 473 OFFCURVE",
"171 480 OFFCURVE",
"144 480 CURVE SMOOTH",
"104 480 OFFCURVE",
"70 466 OFFCURVE",
"42 438 CURVE SMOOTH",
"14 410 OFFCURVE",
"0 376 OFFCURVE",
"0 336 CURVE SMOOTH",
"0 309 OFFCURVE",
"7 284 OFFCURVE",
"21 261 CURVE",
"19 248 OFFCURVE",
"18 236 OFFCURVE",
"18 224 CURVE SMOOTH",
"18 159 OFFCURVE",
"41 103 OFFCURVE",
"88 57 CURVE SMOOTH",
"135 10 OFFCURVE",
"191 -13 OFFCURVE",
"256 -13 CURVE SMOOTH",
"269 -13 OFFCURVE",
"281 -12 OFFCURVE",
"293 -11 CURVE",
"316 -25 OFFCURVE",
"341 -32 OFFCURVE",
"368 -32 CURVE SMOOTH",
"408 -32 OFFCURVE",
"442 -18 OFFCURVE",
"470 10 CURVE SMOOTH",
"498 38 OFFCURVE",
"512 72 OFFCURVE",
"512 112 CURVE SMOOTH",
"512 139 OFFCURVE",
"505 164 OFFCURVE",
"491 187 CURVE"
);
},
{
closed = 1;
nodes = (
"359 101 OFFCURVE",
"344 90 OFFCURVE",
"325 82 CURVE SMOOTH",
"306 74 OFFCURVE",
"283 70 OFFCURVE",
"256 70 CURVE SMOOTH",
"224 70 OFFCURVE",
"198 76 OFFCURVE",
"178 87 CURVE SMOOTH",
"163 95 OFFCURVE",
"151 106 OFFCURVE",
"142 119 CURVE SMOOTH",
"133 132 OFFCURVE",
"128 145 OFFCURVE",
"128 158 CURVE SMOOTH",
"128 165 OFFCURVE",
"131 172 OFFCURVE",
"137 178 CURVE SMOOTH",
"142 183 OFFCURVE",
"149 186 OFFCURVE",
"158 186 CURVE SMOOTH",
"165 186 OFFCURVE",
"171 184 OFFCURVE",
"176 180 CURVE",
"181 175 OFFCURVE",
"185 169 OFFCURVE",
"188 161 CURVE",
"192 152 OFFCURVE",
"197 144 OFFCURVE",
"202 138 CURVE",
"207 131 OFFCURVE",
"213 126 OFFCURVE",
"221 122 CURVE SMOOTH",
"229 118 OFFCURVE",
"240 116 OFFCURVE",
"254 116 CURVE SMOOTH",
"273 116 OFFCURVE",
"289 120 OFFCURVE",
"300 128 CURVE",
"312 136 OFFCURVE",
"318 146 OFFCURVE",
"318 158 CURVE SMOOTH",
"318 168 OFFCURVE",
"315 176 OFFCURVE",
"309 182 CURVE",
"302 188 OFFCURVE",
"294 193 OFFCURVE",
"284 196 CURVE SMOOTH",
"274 199 OFFCURVE",
"260 202 OFFCURVE",
"243 206 CURVE SMOOTH",
"220 211 OFFCURVE",
"201 216 OFFCURVE",
"185 223 CURVE SMOOTH",
"170 230 OFFCURVE",
"157 239 OFFCURVE",
"148 251 CURVE",
"139 262 OFFCURVE",
"134 277 OFFCURVE",
"134 294 CURVE SMOOTH",
"134 311 OFFCURVE",
"139 326 OFFCURVE",
"149 339 CURVE",
"158 352 OFFCURVE",
"172 361 OFFCURVE",
"191 368 CURVE SMOOTH",
"209 375 OFFCURVE",
"230 378 OFFCURVE",
"255 378 CURVE SMOOTH",
"275 378 OFFCURVE",
"292 376 OFFCURVE",
"306 371 CURVE SMOOTH",
"321 366 OFFCURVE",
"333 360 OFFCURVE",
"342 353 CURVE",
"352 346 OFFCURVE",
"359 338 OFFCURVE",
"364 330 CURVE",
"368 321 OFFCURVE",
"370 313 OFFCURVE",
"370 305 CURVE SMOOTH",
"370 298 OFFCURVE",
"367 291 OFFCURVE",
"362 285 CURVE",
"356 279 OFFCURVE",
"349 276 OFFCURVE",
"340 276 CURVE SMOOTH",
"333 276 OFFCURVE",
"327 278 OFFCURVE",
"323 281 CURVE SMOOTH",
"319 284 OFFCURVE",
"315 290 OFFCURVE",
"310 298 CURVE",
"304 309 OFFCURVE",
"297 318 OFFCURVE",
"289 324 CURVE SMOOTH",
"281 330 OFFCURVE",
"268 333 OFFCURVE",
"251 333 CURVE SMOOTH",
"234 333 OFFCURVE",
"221 330 OFFCURVE",
"211 323 CURVE SMOOTH",
"201 316 OFFCURVE",
"196 309 OFFCURVE",
"196 300 CURVE SMOOTH",
"196 294 OFFCURVE",
"198 289 OFFCURVE",
"201 285 CURVE SMOOTH",
"204 281 OFFCURVE",
"209 277 OFFCURVE",
"215 274 CURVE",
"222 271 OFFCURVE",
"228 268 OFFCURVE",
"234 267 CURVE SMOOTH",
"239 266 OFFCURVE",
"249 263 OFFCURVE",
"264 259 CURVE",
"283 255 OFFCURVE",
"299 251 OFFCURVE",
"313 246 CURVE SMOOTH",
"328 241 OFFCURVE",
"340 236 OFFCURVE",
"351 229 CURVE",
"361 222 OFFCURVE",
"369 214 OFFCURVE",
"375 204 CURVE",
"381 193 OFFCURVE",
"384 180 OFFCURVE",
"384 165 CURVE SMOOTH",
"384 147 OFFCURVE",
"379 131 OFFCURVE",
"369 116 CURVE SMOOTH"
);
}
);
width = 512;
}
);
unicode = E045;
},
{
glyphname = uniE046;
layers = (
{
layerId = "EEF2BC8D-D964-4B49-BEB0-D3787712A5FD";
name = Regular;
paths = (
{
closed = 1;
nodes = (
"83 465 LINE",
"83 465 OFFCURVE",
"83 465 OFFCURVE",
"83 464 CURVE"
);
},
{
closed = 1;
nodes = (
"0 173 OFFCURVE",
"14 126 OFFCURVE",
"43 84 CURVE SMOOTH",
"71 41 OFFCURVE",
"108 10 OFFCURVE",
"153 -10 CURVE",
"152 13 OFFCURVE",
"154 32 OFFCURVE",
"158 48 CURVE SMOOTH",
"180 141 OFFCURVE",
"191 187 OFFCURVE",
"191 188 CURVE",
"185 199 OFFCURVE",
"182 212 OFFCURVE",
"182 228 CURVE SMOOTH",
"182 247 OFFCURVE",
"187 263 OFFCURVE",
"197 276 CURVE",
"206 289 OFFCURVE",
"218 295 OFFCURVE",
"232 295 CURVE SMOOTH",
"243 295 OFFCURVE",
"252 291 OFFCURVE",
"258 284 CURVE",
"263 277 OFFCURVE",
"266 267 OFFCURVE",
"266 256 CURVE SMOOTH",
"266 249 OFFCURVE",
"265 241 OFFCURVE",
"263 231 CURVE",
"260 221 OFFCURVE",
"257 210 OFFCURVE",
"253 197 CURVE",
"248 184 OFFCURVE",
"245 173 OFFCURVE",
"244 165 CURVE",
"241 152 OFFCURVE",
"243 140 OFFCURVE",
"252 131 CURVE",
"260 121 OFFCURVE",
"271 116 OFFCURVE",
"284 116 CURVE SMOOTH",
"308 116 OFFCURVE",
"328 129 OFFCURVE",
"343 156 CURVE SMOOTH",
"358 182 OFFCURVE",
"365 214 OFFCURVE",
"365 252 CURVE SMOOTH",
"365 281 OFFCURVE",
"356 304 OFFCURVE",
"337 323 CURVE SMOOTH",
"318 341 OFFCURVE",
"292 350 OFFCURVE",
"259 350 CURVE SMOOTH",
"221 350 OFFCURVE",
"191 338 OFFCURVE",
"168 314 CURVE SMOOTH",
"145 290 OFFCURVE",
"133 261 OFFCURVE",
"133 228 CURVE SMOOTH",
"133 207 OFFCURVE",
"139 190 OFFCURVE",
"150 177 CURVE",
"153 173 OFFCURVE",
"154 168 OFFCURVE",
"153 163 CURVE",
"153 162 OFFCURVE",
"152 158 OFFCURVE",
"151 153 CURVE SMOOTH",
"150 148 OFFCURVE",
"149 144 OFFCURVE",
"148 143 CURVE",
"146 136 OFFCURVE",
"142 133 OFFCURVE",
"135 136 CURVE SMOOTH",
"118 143 OFFCURVE",
"105 156 OFFCURVE",
"96 173 CURVE SMOOTH",
"87 190 OFFCURVE",
"83 211 OFFCURVE",
"83 234 CURVE SMOOTH",
"83 275 OFFCURVE",
"99 312 OFFCURVE",
"132 345 CURVE SMOOTH",
"165 378 OFFCURVE",
"209 394 OFFCURVE",
"266 394 CURVE SMOOTH",
"313 394 OFFCURVE",
"352 379 OFFCURVE",
"383 350 CURVE SMOOTH",
"413 321 OFFCURVE",
"428 286 OFFCURVE",
"428 247 CURVE SMOOTH",
"428 196 OFFCURVE",
"415 155 OFFCURVE",
"390 122 CURVE SMOOTH",
"364 89 OFFCURVE",
"331 72 OFFCURVE",
"290 72 CURVE SMOOTH",
"277 72 OFFCURVE",
"264 75 OFFCURVE",
"252 82 CURVE",
"240 88 OFFCURVE",
"232 95 OFFCURVE",
"227 104 CURVE",
"217 65 OFFCURVE",
"211 41 OFFCURVE",
"209 33 CURVE",
"204 17 OFFCURVE",
"196 -1 OFFCURVE",
"184 -21 CURVE",
"207 -28 OFFCURVE",
"231 -32 OFFCURVE",
"256 -32 CURVE SMOOTH",
"327 -32 OFFCURVE",
"387 -7 OFFCURVE",
"437 43 CURVE SMOOTH",
"487 93 OFFCURVE",
"512 153 OFFCURVE",
"512 224 CURVE SMOOTH",
"512 295 OFFCURVE",
"487 355 OFFCURVE",
"437 405 CURVE SMOOTH",
"387 455 OFFCURVE",
"327 480 OFFCURVE",
"256 480 CURVE SMOOTH",
"185 480 OFFCURVE",
"125 455 OFFCURVE",
"75 405 CURVE SMOOTH",
"25 355 OFFCURVE",
"0 295 OFFCURVE",
"0 224 CURVE SMOOTH"
);
}
);
width = 512;
}
);
unicode = E046;
},
{
glyphname = uniE047;
layers = (
{
layerId = "EEF2BC8D-D964-4B49-BEB0-D3787712A5FD";
name = Regular;
paths = (
{
closed = 1;
nodes = (
"94 444 OFFCURVE",
"66 426 OFFCURVE",
"45 401 CURVE SMOOTH",
"24 376 OFFCURVE",
"10 347 OFFCURVE",
"4 313 CURVE SMOOTH",
"-5 267 OFFCURVE",
"0 225 OFFCURVE",
"18 188 CURVE SMOOTH",
"22 179 OFFCURVE",
"27 170 OFFCURVE",
"32 163 CURVE SMOOTH",
"35 159 OFFCURVE",
"39 155 OFFCURVE",
"42 152 CURVE",
"47 154 OFFCURVE",
"53 157 OFFCURVE",
"58 160 CURVE SMOOTH",
"65 164 OFFCURVE",
"71 169 OFFCURVE",
"78 174 CURVE",
"84 179 OFFCURVE",
"91 185 OFFCURVE",
"99 192 CURVE",
"106 199 OFFCURVE",
"112 205 OFFCURVE",
"116 208 CURVE",
"96 234 OFFCURVE",
"88 260 OFFCURVE",
"92 285 CURVE SMOOTH",
"96 310 OFFCURVE",
"109 333 OFFCURVE",
"130 354 CURVE SMOOTH",
"151 374 OFFCURVE",
"176 387 OFFCURVE",
"205 394 CURVE",
"232 399 OFFCURVE",
"260 400 OFFCURVE",
"288 396 CURVE SMOOTH",
"316 392 OFFCURVE",
"342 381 OFFCURVE",
"366 364 CURVE SMOOTH",
"390 347 OFFCURVE",
"406 325 OFFCURVE",
"414 299 CURVE SMOOTH",
"419 283 OFFCURVE",
"420 266 OFFCURVE",
"416 249 CURVE SMOOTH",
"412 231 OFFCURVE",
"403 216 OFFCURVE",
"390 204 CURVE SMOOTH",
"375 191 OFFCURVE",
"358 183 OFFCURVE",
"338 180 CURVE SMOOTH",
"327 178 OFFCURVE",
"315 178 OFFCURVE",
"304 179 CURVE",
"297 180 OFFCURVE",
"291 181 OFFCURVE",
"285 182 CURVE",
"284 182 OFFCURVE",
"283 182 OFFCURVE",
"280 183 CURVE SMOOTH",
"277 184 OFFCURVE",
"275 184 OFFCURVE",
"274 185 CURVE",
"273 185 OFFCURVE",
"271 186 OFFCURVE",
"270 187 CURVE",
"268 188 OFFCURVE",
"267 189 OFFCURVE",
"267 190 CURVE",
"266 191 OFFCURVE",
"266 193 OFFCURVE",
"266 195 CURVE SMOOTH",
"266 284 LINE",
"266 328 LINE SMOOTH",
"266 333 OFFCURVE",
"266 335 OFFCURVE",
"266 336 CURVE",
"265 336 OFFCURVE",
"263 336 OFFCURVE",
"259 336 CURVE",
"253 337 OFFCURVE",
"247 337 OFFCURVE",
"241 338 CURVE",
"214 340 OFFCURVE",
"193 340 OFFCURVE",
"178 337 CURVE",
"177 337 OFFCURVE",
"176 337 OFFCURVE",
"175 337 CURVE",
"172 336 OFFCURVE",
"171 336 OFFCURVE",
"171 335 CURVE",
"170 334 OFFCURVE",
"170 332 OFFCURVE",
"170 329 CURVE SMOOTH",
"170 308 LINE",
"170 259 LINE SMOOTH",
"170 248 OFFCURVE",
"170 226 OFFCURVE",
"171 191 CURVE SMOOTH",
"172 156 OFFCURVE",
"172 129 OFFCURVE",
"171 110 CURVE SMOOTH",
"170 76 OFFCURVE",
"164 57 OFFCURVE",
"154 53 CURVE",
"146 51 OFFCURVE",
"140 51 OFFCURVE",
"136 52 CURVE",
"131 53 OFFCURVE",
"125 55 OFFCURVE",
"118 59 CURVE",
"110 63 OFFCURVE",
"104 65 OFFCURVE",
"100 66 CURVE",
"101 62 OFFCURVE",
"100 53 OFFCURVE",
"99 38 CURVE SMOOTH",
"98 23 OFFCURVE",
"98 10 OFFCURVE",
"100 0 CURVE SMOOTH",
"102 -10 OFFCURVE",
"107 -17 OFFCURVE",
"116 -21 CURVE SMOOTH",
"146 -34 OFFCURVE",
"174 -36 OFFCURVE",
"201 -27 CURVE SMOOTH",
"228 -18 OFFCURVE",
"248 0 OFFCURVE",
"260 27 CURVE SMOOTH",
"271 54 OFFCURVE",
"275 82 OFFCURVE",
"271 112 CURVE",
"316 98 OFFCURVE",
"360 101 OFFCURVE",
"403 121 CURVE SMOOTH",
"446 140 OFFCURVE",
"478 170 OFFCURVE",
"497 211 CURVE SMOOTH",
"510 240 OFFCURVE",
"515 271 OFFCURVE",
"510 304 CURVE SMOOTH",
"505 337 OFFCURVE",
"493 366 OFFCURVE",
"472 391 CURVE SMOOTH",
"447 420 OFFCURVE",
"414 443 OFFCURVE",
"373 458 CURVE SMOOTH",
"332 473 OFFCURVE",
"291 481 OFFCURVE",
"248 480 CURVE SMOOTH",
"205 479 OFFCURVE",
"164 472 OFFCURVE",
"127 457 CURVE SMOOTH"
);
}
);
width = 512;
}
);
unicode = E047;
},
{
glyphname = uniE048;
layers = (
{
layerId = "EEF2BC8D-D964-4B49-BEB0-D3787712A5FD";
name = Regular;
paths = (
{
closed = 1;
nodes = (
"383 213 OFFCURVE",
"402 205 OFFCURVE",
"424 205 CURVE SMOOTH",
"446 205 OFFCURVE",
"465 213 OFFCURVE",
"481 229 CURVE SMOOTH",
"496 244 OFFCURVE",
"504 263 OFFCURVE",
"504 285 CURVE SMOOTH",
"504 307 OFFCURVE",
"496 326 OFFCURVE",
"481 341 CURVE SMOOTH",
"465 356 OFFCURVE",
"446 364 OFFCURVE",
"424 364 CURVE SMOOTH",
"402 364 OFFCURVE",
"383 356 OFFCURVE",
"368 341 CURVE SMOOTH",
"352 326 OFFCURVE",
"344 307 OFFCURVE",
"344 285 CURVE SMOOTH",
"344 263 OFFCURVE",
"352 244 OFFCURVE",
"368 229 CURVE"
);
},
{
closed = 1;
nodes = (
"430 187 OFFCURVE",
"430 187 OFFCURVE",
"430 187 CURVE SMOOTH",
"429 187 OFFCURVE",
"429 187 OFFCURVE",
"428 187 CURVE SMOOTH",
"427 187 OFFCURVE",
"425 187 OFFCURVE",
"424 187 CURVE SMOOTH",
"424 187 LINE SMOOTH",
"423 187 OFFCURVE",
"422 187 OFFCURVE",
"420 187 CURVE SMOOTH",
"419 187 OFFCURVE",
"419 187 OFFCURVE",
"419 187 CURVE SMOOTH",
"419 187 OFFCURVE",
"419 187 OFFCURVE",
"419 187 CURVE SMOOTH",
"418 187 OFFCURVE",
"418 187 OFFCURVE",
"417 187 CURVE",
"394 185 OFFCURVE",
"375 175 OFFCURVE",
"360 158 CURVE SMOOTH",
"345 140 OFFCURVE",
"337 120 OFFCURVE",
"337 97 CURVE SMOOTH",
"337 66 LINE SMOOTH",
"337 61 OFFCURVE",
"340 58 OFFCURVE",
"345 58 CURVE SMOOTH",
"347 58 LINE",
"501 58 LINE",
"504 58 LINE SMOOTH",
"509 58 OFFCURVE",
"512 61 OFFCURVE",
"512 66 CURVE SMOOTH",
"512 97 LINE SMOOTH",
"512 120 OFFCURVE",
"504 140 OFFCURVE",
"489 158 CURVE",
"473 175 OFFCURVE",
"454 185 OFFCURVE",
"431 187 CURVE"
);
},
{
closed = 1;
nodes = (
"203 197 OFFCURVE",
"220 190 OFFCURVE",
"240 190 CURVE SMOOTH",
"259 190 OFFCURVE",
"276 197 OFFCURVE",
"290 211 CURVE SMOOTH",
"304 225 OFFCURVE",
"311 242 OFFCURVE",
"311 262 CURVE SMOOTH",
"311 282 OFFCURVE",
"304 299 OFFCURVE",
"290 313 CURVE SMOOTH",
"276 327 OFFCURVE",
"259 334 OFFCURVE",
"240 334 CURVE SMOOTH",
"220 334 OFFCURVE",
"203 327 OFFCURVE",
"189 313 CURVE SMOOTH",
"174 299 OFFCURVE",
"167 282 OFFCURVE",
"167 262 CURVE SMOOTH",
"167 242 OFFCURVE",
"174 225 OFFCURVE",
"189 211 CURVE SMOOTH"
);
},
{
closed = 1;
nodes = (
"245 174 OFFCURVE",
"245 174 OFFCURVE",
"245 174 CURVE SMOOTH",
"244 174 OFFCURVE",
"244 174 OFFCURVE",
"244 174 CURVE SMOOTH",
"243 174 OFFCURVE",
"243 174 OFFCURVE",
"243 174 CURVE SMOOTH",
"242 174 OFFCURVE",
"242 174 OFFCURVE",
"241 174 CURVE SMOOTH",
"240 174 OFFCURVE",
"240 174 OFFCURVE",
"239 174 CURVE SMOOTH",
"239 174 LINE SMOOTH",
"239 174 OFFCURVE",
"239 174 OFFCURVE",
"238 174 CURVE SMOOTH",
"237 174 OFFCURVE",
"236 174 OFFCURVE",
"236 174 CURVE SMOOTH",
"235 174 OFFCURVE",
"235 174 OFFCURVE",
"235 174 CURVE SMOOTH",
"234 174 OFFCURVE",
"234 174 OFFCURVE",
"234 174 CURVE SMOOTH",
"233 174 OFFCURVE",
"233 174 OFFCURVE",
"233 174 CURVE",
"213 172 OFFCURVE",
"196 163 OFFCURVE",
"182 148 CURVE SMOOTH",
"167 132 OFFCURVE",
"160 114 OFFCURVE",
"160 93 CURVE SMOOTH",
"160 65 LINE SMOOTH",
"160 60 OFFCURVE",
"162 58 OFFCURVE",
"167 58 CURVE SMOOTH",
"170 58 LINE",
"308 58 LINE",
"311 58 LINE SMOOTH",
"316 58 OFFCURVE",
"318 60 OFFCURVE",
"318 65 CURVE SMOOTH",
"318 93 LINE SMOOTH",
"318 114 OFFCURVE",
"311 132 OFFCURVE",
"297 148 CURVE SMOOTH",
"283 163 OFFCURVE",
"266 172 OFFCURVE",
"246 174 CURVE"
);
},
{
closed = 1;
nodes = (
"38 183 OFFCURVE",
"53 177 OFFCURVE",
"71 177 CURVE SMOOTH",
"89 177 OFFCURVE",
"104 183 OFFCURVE",
"117 196 CURVE SMOOTH",
"130 209 OFFCURVE",
"136 224 OFFCURVE",
"136 242 CURVE SMOOTH",
"136 259 OFFCURVE",
"130 274 OFFCURVE",
"117 287 CURVE SMOOTH",
"104 300 OFFCURVE",
"89 306 OFFCURVE",
"71 306 CURVE SMOOTH",
"53 306 OFFCURVE",
"38 300 OFFCURVE",
"25 287 CURVE SMOOTH",
"12 274 OFFCURVE",
"6 259 OFFCURVE",
"6 242 CURVE SMOOTH",
"6 224 OFFCURVE",
"12 209 OFFCURVE",
"25 196 CURVE SMOOTH"
);
},
{
closed = 1;
nodes = (
"77 162 OFFCURVE",
"77 162 OFFCURVE",
"77 162 CURVE SMOOTH",
"76 162 OFFCURVE",
"76 162 OFFCURVE",
"76 162 CURVE SMOOTH",
"75 162 OFFCURVE",
"75 162 OFFCURVE",
"74 162 CURVE SMOOTH",
"73 162 OFFCURVE",
"72 162 OFFCURVE",
"71 162 CURVE SMOOTH",
"71 162 LINE SMOOTH",
"70 162 OFFCURVE",
"69 162 OFFCURVE",
"68 162 CURVE SMOOTH",
"67 162 OFFCURVE",
"67 162 OFFCURVE",
"67 162 CURVE SMOOTH",
"67 162 OFFCURVE",
"67 162 OFFCURVE",
"67 162 CURVE SMOOTH",
"66 162 OFFCURVE",
"66 162 OFFCURVE",
"65 162 CURVE",
"47 161 OFFCURVE",
"32 153 OFFCURVE",
"19 139 CURVE SMOOTH",
"6 124 OFFCURVE",
"0 108 OFFCURVE",
"0 89 CURVE SMOOTH",
"0 64 LINE SMOOTH",
"0 60 OFFCURVE",
"2 58 OFFCURVE",
"6 58 CURVE SMOOTH",
"9 58 LINE",
"133 58 LINE",
"136 58 LINE SMOOTH",
"140 58 OFFCURVE",
"142 60 OFFCURVE",
"142 64 CURVE SMOOTH",
"142 89 LINE SMOOTH",
"142 108 OFFCURVE",
"136 124 OFFCURVE",
"123 139 CURVE SMOOTH",
"110 153 OFFCURVE",
"95 161 OFFCURVE",
"77 162 CURVE"
);
}
);
width = 512;
}
);
unicode = E048;
},
{
glyphname = uniE049;
layers = (
{
layerId = "EEF2BC8D-D964-4B49-BEB0-D3787712A5FD";
name = Regular;
paths = (
{
closed = 1;
nodes = (
"83 465 LINE",
"83 465 OFFCURVE",
"83 465 OFFCURVE",
"83 464 CURVE"
);
},
{
closed = 1;
nodes = (
"463 480 LINE",
"49 480 LINE",
"32 480 LINE SMOOTH",
"23 480 OFFCURVE",
"16 477 OFFCURVE",
"10 471 CURVE SMOOTH",
"3 464 OFFCURVE",
"0 457 OFFCURVE",
"0 448 CURVE SMOOTH",
"0 431 LINE",
"0 17 LINE",
"0 0 LINE SMOOTH",
"0 -9 OFFCURVE",
"3 -16 OFFCURVE",
"10 -22 CURVE",
"16 -29 OFFCURVE",
"23 -32 OFFCURVE",
"32 -32 CURVE SMOOTH",
"49 -32 LINE",
"463 -32 LINE",
"480 -32 LINE SMOOTH",
"489 -32 OFFCURVE",
"496 -29 OFFCURVE",
"503 -22 CURVE SMOOTH",
"509 -16 OFFCURVE",
"512 -9 OFFCURVE",
"512 0 CURVE SMOOTH",
"512 17 LINE",
"512 431 LINE",
"512 448 LINE SMOOTH",
"512 457 OFFCURVE",
"509 464 OFFCURVE",
"503 471 CURVE",
"496 477 OFFCURVE",
"489 480 OFFCURVE",
"480 480 CURVE SMOOTH"
);
},
{
closed = 1;
nodes = (
"439 65 LINE",
"367 65 LINE",
"367 180 LINE SMOOTH",
"367 213 OFFCURVE",
"355 229 OFFCURVE",
"332 229 CURVE SMOOTH",
"315 229 OFFCURVE",
"302 220 OFFCURVE",
"295 203 CURVE",
"294 199 OFFCURVE",
"293 193 OFFCURVE",
"293 185 CURVE SMOOTH",
"293 65 LINE",
"218 65 LINE",
"219 199 OFFCURVE",
"219 273 OFFCURVE",
"218 286 CURVE",
"293 286 LINE",
"293 256 LINE",
"308 279 OFFCURVE",
"330 291 OFFCURVE",
"358 291 CURVE SMOOTH",
"382 291 OFFCURVE",
"402 282 OFFCURVE",
"417 264 CURVE SMOOTH",
"432 246 OFFCURVE",
"439 221 OFFCURVE",
"439 188 CURVE SMOOTH"
);
},
{
closed = 1;
nodes = (
"167 335 OFFCURVE",
"164 326 OFFCURVE",
"157 319 CURVE SMOOTH",
"150 312 OFFCURVE",
"142 308 OFFCURVE",
"131 308 CURVE SMOOTH",
"120 308 OFFCURVE",
"111 312 OFFCURVE",
"104 319 CURVE SMOOTH",
"97 326 OFFCURVE",
"94 335 OFFCURVE",
"94 345 CURVE SMOOTH",
"94 356 OFFCURVE",
"97 365 OFFCURVE",
"104 372 CURVE SMOOTH",
"111 379 OFFCURVE",
"120 382 OFFCURVE",
"131 382 CURVE SMOOTH",
"142 382 OFFCURVE",
"150 379 OFFCURVE",
"157 372 CURVE",
"163 365 OFFCURVE",
"166 356 OFFCURVE",
"167 345 CURVE"
);
},
{
closed = 1;
nodes = (
"171 285 LINE",
"171 65 LINE",
"98 65 LINE",
"98 285 LINE"
);
}
);
width = 512;
}
);
unicode = E049;
},
{
glyphname = uniE04A;
layers = (
{
layerId = "EEF2BC8D-D964-4B49-BEB0-D3787712A5FD";
name = Regular;
paths = (
{
closed = 1;
nodes = (
"0 69 LINE",
"19 78 OFFCURVE",
"38 84 OFFCURVE",
"59 88 CURVE",
"86 92 OFFCURVE",
"108 94 OFFCURVE",
"126 94 CURVE",
"121 102 OFFCURVE",
"116 110 OFFCURVE",
"112 118 CURVE",
"107 126 OFFCURVE",
"104 136 OFFCURVE",
"104 147 CURVE SMOOTH",
"104 154 OFFCURVE",
"105 160 OFFCURVE",
"107 165 CURVE",
"107 166 OFFCURVE",
"109 170 OFFCURVE",
"112 178 CURVE",
"103 177 OFFCURVE",
"95 177 OFFCURVE",
"87 177 CURVE SMOOTH",
"50 177 OFFCURVE",
"21 187 OFFCURVE",
"0 208 CURVE"
);
},
{
closed = 1;
nodes = (
"187 308 OFFCURVE",
"179 338 OFFCURVE",
"164 369 CURVE SMOOTH",
"157 384 OFFCURVE",
"147 397 OFFCURVE",
"135 406 CURVE SMOOTH",
"123 415 OFFCURVE",
"109 419 OFFCURVE",
"93 420 CURVE",
"72 419 OFFCURVE",
"55 411 OFFCURVE",
"41 395 CURVE",
"30 378 OFFCURVE",
"24 358 OFFCURVE",
"25 337 CURVE",
"25 308 OFFCURVE",
"33 279 OFFCURVE",
"49 249 CURVE SMOOTH",
"57 234 OFFCURVE",
"67 222 OFFCURVE",
"80 213 CURVE",
"92 203 OFFCURVE",
"106 198 OFFCURVE",
"122 198 CURVE",
"143 199 OFFCURVE",
"160 206 OFFCURVE",
"173 220 CURVE",
"180 230 OFFCURVE",
"184 240 OFFCURVE",
"186 250 CURVE",
"187 261 OFFCURVE",
"187 270 OFFCURVE",
"187 277 CURVE SMOOTH"
);
},
{
closed = 1;
nodes = (
"143 73 OFFCURVE",
"137 73 OFFCURVE",
"130 73 CURVE",
"126 74 OFFCURVE",
"116 73 OFFCURVE",
"100 72 CURVE",
"84 69 OFFCURVE",
"68 66 OFFCURVE",
"51 61 CURVE",
"47 59 OFFCURVE",
"41 57 OFFCURVE",
"34 54 CURVE SMOOTH",
"27 51 OFFCURVE",
"20 46 OFFCURVE",
"13 40 CURVE",
"8 35 OFFCURVE",
"4 30 OFFCURVE",
"0 25 CURVE",
"0 4 LINE SMOOTH",
"0 -6 OFFCURVE",
"4 -14 OFFCURVE",
"11 -21 CURVE SMOOTH",
"18 -28 OFFCURVE",
"26 -32 OFFCURVE",
"36 -32 CURVE SMOOTH",
"230 -32 LINE",
"230 -32 OFFCURVE",
"230 -32 OFFCURVE",
"230 -31 CURVE SMOOTH",
"230 -11 OFFCURVE",
"224 6 OFFCURVE",
"211 21 CURVE SMOOTH",
"198 35 OFFCURVE",
"176 52 OFFCURVE",
"147 72 CURVE"
);
},
{
closed = 1;
nodes = (
"384 480 LINE",
"256 480 LINE",
"126 480 LINE",
"36 480 LINE SMOOTH",
"26 480 OFFCURVE",
"18 477 OFFCURVE",
"11 470 CURVE SMOOTH",
"4 463 OFFCURVE",
"0 454 OFFCURVE",
"0 444 CURVE SMOOTH",
"0 405 LINE",
"0 396 LINE",
"3 398 OFFCURVE",
"5 400 OFFCURVE",
"7 403 CURVE",
"29 421 OFFCURVE",
"52 433 OFFCURVE",
"75 439 CURVE",
"99 444 OFFCURVE",
"121 446 OFFCURVE",
"141 446 CURVE SMOOTH",
"295 446 LINE",
"248 418 LINE",
"200 418 LINE",
"205 415 OFFCURVE",
"210 410 OFFCURVE",
"217 404 CURVE",
"222 398 OFFCURVE",
"228 391 OFFCURVE",
"234 382 CURVE SMOOTH",
"239 374 OFFCURVE",
"244 364 OFFCURVE",
"248 352 CURVE",
"251 341 OFFCURVE",
"253 328 OFFCURVE",
"253 313 CURVE",
"252 285 OFFCURVE",
"246 263 OFFCURVE",
"235 246 CURVE",
"229 238 OFFCURVE",
"223 230 OFFCURVE",
"216 223 CURVE SMOOTH",
"209 216 OFFCURVE",
"202 209 OFFCURVE",
"194 202 CURVE",
"189 197 OFFCURVE",
"185 192 OFFCURVE",
"181 186 CURVE",
"176 180 OFFCURVE",
"174 173 OFFCURVE",
"174 164 CURVE SMOOTH",
"174 156 OFFCURVE",
"176 149 OFFCURVE",
"181 144 CURVE",
"185 139 OFFCURVE",
"189 135 OFFCURVE",
"193 131 CURVE",
"219 109 LINE SMOOTH",
"235 96 OFFCURVE",
"249 81 OFFCURVE",
"262 64 CURVE",
"273 48 OFFCURVE",
"279 27 OFFCURVE",
"280 0 CURVE",
"280 -11 OFFCURVE",
"278 -22 OFFCURVE",
"275 -32 CURVE",
"476 -32 LINE SMOOTH",
"486 -32 OFFCURVE",
"495 -28 OFFCURVE",
"502 -21 CURVE SMOOTH",
"509 -14 OFFCURVE",
"512 -6 OFFCURVE",
"512 4 CURVE SMOOTH",
"512 405 LINE",
"512 444 LINE SMOOTH",
"512 454 OFFCURVE",
"509 463 OFFCURVE",
"502 470 CURVE SMOOTH",
"495 477 OFFCURVE",
"486 480 OFFCURVE",
"476 480 CURVE SMOOTH"
);
},
{
closed = 1;
nodes = (
"504 321 LINE",
"423 321 LINE",
"423 239 LINE",
"384 239 LINE",
"384 321 LINE",
"303 321 LINE",
"303 361 LINE",
"384 361 LINE",
"384 442 LINE",
"423 442 LINE",
"423 361 LINE",
"504 361 LINE"
);
}
);
width = 512;
}
);
unicode = E04A;
},
{
glyphname = uniE04C;
layers = (
{
layerId = "EEF2BC8D-D964-4B49-BEB0-D3787712A5FD";
name = Regular;
paths = (
{
closed = 1;
nodes = (
"387 455 OFFCURVE",
"327 480 OFFCURVE",
"256 480 CURVE SMOOTH",
"185 480 OFFCURVE",
"125 455 OFFCURVE",
"75 405 CURVE SMOOTH",
"25 355 OFFCURVE",
"0 295 OFFCURVE",
"0 224 CURVE SMOOTH",
"0 153 OFFCURVE",
"25 93 OFFCURVE",
"75 43 CURVE SMOOTH",
"125 -7 OFFCURVE",
"185 -32 OFFCURVE",
"256 -32 CURVE SMOOTH",
"327 -32 OFFCURVE",
"387 -7 OFFCURVE",
"437 43 CURVE SMOOTH",
"487 93 OFFCURVE",
"512 153 OFFCURVE",
"512 224 CURVE SMOOTH",
"512 295 OFFCURVE",
"487 355 OFFCURVE",
"437 405 CURVE SMOOTH"
);
},
{
closed = 1;
nodes = (
"440 314 OFFCURVE",
"454 276 OFFCURVE",
"455 233 CURVE",
"426 239 OFFCURVE",
"399 242 OFFCURVE",
"374 242 CURVE SMOOTH",
"374 242 LINE SMOOTH",
"355 242 OFFCURVE",
"335 240 OFFCURVE",
"316 237 CURVE",
"311 248 OFFCURVE",
"307 259 OFFCURVE",
"302 269 CURVE",
"347 288 OFFCURVE",
"384 314 OFFCURVE",
"413 347 CURVE"
);
},
{
closed = 1;
nodes = (
"303 424 OFFCURVE",
"344 409 OFFCURVE",
"381 380 CURVE",
"356 351 OFFCURVE",
"323 327 OFFCURVE",
"282 310 CURVE",
"261 351 OFFCURVE",
"239 387 OFFCURVE",
"214 419 CURVE",
"228 422 OFFCURVE",
"242 424 OFFCURVE",
"256 424 CURVE SMOOTH"
);
},
{
closed = 1;
nodes = (
"193 374 OFFCURVE",
"216 337 OFFCURVE",
"239 294 CURVE",
"190 279 OFFCURVE",
"137 272 OFFCURVE",
"81 272 CURVE SMOOTH",
"78 272 LINE SMOOTH",
"73 272 OFFCURVE",
"68 272 OFFCURVE",
"62 272 CURVE",
"69 301 OFFCURVE",
"82 326 OFFCURVE",
"101 349 CURVE SMOOTH",
"120 372 OFFCURVE",
"142 390 OFFCURVE",
"168 403 CURVE"
);
},
{
closed = 1;
nodes = (
"56 225 OFFCURVE",
"56 226 OFFCURVE",
"56 227 CURVE",
"63 226 OFFCURVE",
"71 226 OFFCURVE",
"78 226 CURVE SMOOTH",
"145 227 OFFCURVE",
"206 236 OFFCURVE",
"259 253 CURVE",
"264 243 OFFCURVE",
"268 234 OFFCURVE",
"271 226 CURVE",
"230 212 OFFCURVE",
"192 190 OFFCURVE",
"159 160 CURVE SMOOTH",
"137 140 OFFCURVE",
"118 118 OFFCURVE",
"103 95 CURVE",
"72 132 OFFCURVE",
"56 175 OFFCURVE",
"56 224 CURVE SMOOTH"
);
},
{
closed = 1;
nodes = (
"212 24 OFFCURVE",
"172 37 OFFCURVE",
"137 64 CURVE",
"150 84 OFFCURVE",
"165 103 OFFCURVE",
"184 121 CURVE SMOOTH",
"215 150 OFFCURVE",
"249 171 OFFCURVE",
"287 183 CURVE",
"304 137 OFFCURVE",
"317 88 OFFCURVE",
"327 37 CURVE",
"304 28 OFFCURVE",
"281 24 OFFCURVE",
"256 24 CURVE SMOOTH"
);
},
{
closed = 1;
nodes = (
"360 105 OFFCURVE",
"347 150 OFFCURVE",
"332 194 CURVE",
"345 196 OFFCURVE",
"359 197 OFFCURVE",
"373 197 CURVE SMOOTH",
"374 197 LINE",
"374 197 LINE",
"399 197 OFFCURVE",
"425 194 OFFCURVE",
"452 187 CURVE",
"442 134 OFFCURVE",
"414 91 OFFCURVE",
"369 60 CURVE"
);
}
);
width = 512;
}
);
unicode = E04C;
},
{
glyphname = uniE04D;
layers = (
{
layerId = "EEF2BC8D-D964-4B49-BEB0-D3787712A5FD";
name = Regular;
paths = (
{
closed = 1;
nodes = (
"84 480 LINE SMOOTH",
"61 480 OFFCURVE",
"42 472 OFFCURVE",
"25 455 CURVE SMOOTH",
"8 438 OFFCURVE",
"0 419 OFFCURVE",
"0 396 CURVE SMOOTH",
"0 52 LINE SMOOTH",
"0 29 OFFCURVE",
"8 10 OFFCURVE",
"25 -7 CURVE SMOOTH",
"42 -24 OFFCURVE",
"61 -32 OFFCURVE",
"84 -32 CURVE SMOOTH",
"428 -32 LINE SMOOTH",
"451 -32 OFFCURVE",
"470 -24 OFFCURVE",
"487 -7 CURVE SMOOTH",
"504 10 OFFCURVE",
"512 29 OFFCURVE",
"512 52 CURVE SMOOTH",
"512 396 LINE SMOOTH",
"512 419 OFFCURVE",
"504 438 OFFCURVE",
"487 455 CURVE SMOOTH",
"470 472 OFFCURVE",
"451 480 OFFCURVE",
"428 480 CURVE SMOOTH"
);
},
{
closed = 1;
nodes = (
"411 167 LINE SMOOTH",
"411 140 OFFCURVE",
"401 116 OFFCURVE",
"382 97 CURVE SMOOTH",
"363 78 OFFCURVE",
"339 68 OFFCURVE",
"312 68 CURVE SMOOTH",
"198 68 LINE SMOOTH",
"171 68 OFFCURVE",
"147 78 OFFCURVE",
"128 97 CURVE SMOOTH",
"109 116 OFFCURVE",
"99 140 OFFCURVE",
"99 167 CURVE SMOOTH",
"99 283 LINE SMOOTH",
"99 310 OFFCURVE",
"109 334 OFFCURVE",
"128 353 CURVE SMOOTH",
"147 372 OFFCURVE",
"171 382 OFFCURVE",
"198 382 CURVE SMOOTH",
"268 382 LINE",
"281 381 OFFCURVE",
"296 375 OFFCURVE",
"311 365 CURVE",
"326 354 OFFCURVE",
"337 342 OFFCURVE",
"344 328 CURVE",
"348 319 OFFCURVE",
"351 307 OFFCURVE",
"353 294 CURVE SMOOTH",
"355 279 OFFCURVE",
"358 270 OFFCURVE",
"361 267 CURVE",
"364 265 OFFCURVE",
"371 264 OFFCURVE",
"383 264 CURVE",
"395 263 OFFCURVE",
"402 262 OFFCURVE",
"404 261 CURVE",
"408 257 LINE",
"411 252 LINE",
"412 247 LINE"
);
},
{
closed = 1;
nodes = (
"254 263 LINE SMOOTH",
"259 263 OFFCURVE",
"264 265 OFFCURVE",
"268 269 CURVE SMOOTH",
"271 272 OFFCURVE",
"273 277 OFFCURVE",
"273 282 CURVE SMOOTH",
"273 287 OFFCURVE",
"271 292 OFFCURVE",
"268 296 CURVE",
"264 299 OFFCURVE",
"259 301 OFFCURVE",
"254 301 CURVE SMOOTH",
"200 301 LINE SMOOTH",
"195 301 OFFCURVE",
"190 299 OFFCURVE",
"187 296 CURVE SMOOTH",
"183 292 OFFCURVE",
"181 287 OFFCURVE",
"181 282 CURVE SMOOTH",
"181 277 OFFCURVE",
"183 272 OFFCURVE",
"187 269 CURVE",
"190 265 OFFCURVE",
"195 263 OFFCURVE",
"200 263 CURVE SMOOTH"
);
},
{
closed = 1;
nodes = (
"200 188 LINE SMOOTH",
"195 188 OFFCURVE",
"190 186 OFFCURVE",
"187 182 CURVE",
"183 178 OFFCURVE",
"181 174 OFFCURVE",
"181 169 CURVE SMOOTH",
"181 164 OFFCURVE",
"183 159 OFFCURVE",
"187 156 CURVE",
"190 152 OFFCURVE",
"195 150 OFFCURVE",
"200 150 CURVE SMOOTH",
"311 150 LINE SMOOTH",
"316 150 OFFCURVE",
"321 152 OFFCURVE",
"325 156 CURVE SMOOTH",
"328 159 OFFCURVE",
"330 164 OFFCURVE",
"330 169 CURVE SMOOTH",
"330 174 OFFCURVE",
"328 178 OFFCURVE",
"325 182 CURVE",
"321 186 OFFCURVE",
"316 188 OFFCURVE",
"311 188 CURVE SMOOTH"
);
}
);
width = 512;
}
);
unicode = E04D;
},
{
glyphname = uniE04E;
layers = (
{
layerId = "EEF2BC8D-D964-4B49-BEB0-D3787712A5FD";
name = Regular;
paths = (
{
closed = 1;
nodes = (
"462 243 LINE",
"334 243 LINE",
"334 275 LINE",
"462 275 LINE"
);
},
{
closed = 1;
nodes = (
"261 46 OFFCURVE",
"256 29 OFFCURVE",
"247 14 CURVE SMOOTH",
"241 4 OFFCURVE",
"233 -5 OFFCURVE",
"224 -12 CURVE",
"214 -19 OFFCURVE",
"202 -24 OFFCURVE",
"189 -27 CURVE SMOOTH",
"175 -30 OFFCURVE",
"160 -32 OFFCURVE",
"144 -32 CURVE SMOOTH",
"0 -32 LINE",
"0 288 LINE",
"154 288 LINE SMOOTH",
"193 287 OFFCURVE",
"220 276 OFFCURVE",
"236 254 CURVE SMOOTH",
"246 240 OFFCURVE",
"251 224 OFFCURVE",
"251 205 CURVE SMOOTH",
"251 186 OFFCURVE",
"246 170 OFFCURVE",
"236 158 CURVE",
"231 151 OFFCURVE",
"223 145 OFFCURVE",
"212 140 CURVE",
"228 134 OFFCURVE",
"240 125 OFFCURVE",
"249 112 CURVE",
"257 99 OFFCURVE",
"261 83 OFFCURVE",
"261 65 CURVE SMOOTH"
);
},
{
closed = 1;
nodes = (
"73 162 LINE",
"141 162 LINE SMOOTH",
"154 162 OFFCURVE",
"166 165 OFFCURVE",
"175 170 CURVE",
"183 175 OFFCURVE",
"187 185 OFFCURVE",
"187 198 CURVE SMOOTH",
"187 213 OFFCURVE",
"181 223 OFFCURVE",
"170 228 CURVE",
"160 231 OFFCURVE",
"148 233 OFFCURVE",
"133 233 CURVE SMOOTH",
"73 233 LINE"
);
},
{
closed = 1;
nodes = (
"194 86 OFFCURVE",
"187 97 OFFCURVE",
"174 103 CURVE",
"167 107 OFFCURVE",
"156 109 OFFCURVE",
"142 109 CURVE SMOOTH",
"73 109 LINE",
"73 24 LINE",
"141 24 LINE SMOOTH",
"155 24 OFFCURVE",
"166 26 OFFCURVE",
"173 29 CURVE",
"187 36 OFFCURVE",
"194 50 OFFCURVE",
"194 69 CURVE SMOOTH"
);
},
{
closed = 1;
nodes = (
"511 110 OFFCURVE",
"512 95 OFFCURVE",
"512 76 CURVE",
"346 76 LINE",
"347 53 OFFCURVE",
"355 36 OFFCURVE",
"370 27 CURVE SMOOTH",
"379 22 OFFCURVE",
"390 19 OFFCURVE",
"403 19 CURVE SMOOTH",
"416 19 OFFCURVE",
"427 22 OFFCURVE",
"436 29 CURVE",
"440 33 OFFCURVE",
"444 38 OFFCURVE",
"448 45 CURVE",
"509 45 LINE",
"507 32 OFFCURVE",
"500 18 OFFCURVE",
"487 4 CURVE SMOOTH",
"466 -19 OFFCURVE",
"438 -30 OFFCURVE",
"401 -30 CURVE SMOOTH",
"370 -30 OFFCURVE",
"344 -20 OFFCURVE",
"321 -1 CURVE SMOOTH",
"298 18 OFFCURVE",
"286 48 OFFCURVE",
"286 90 CURVE SMOOTH",
"286 130 OFFCURVE",
"297 161 OFFCURVE",
"318 182 CURVE SMOOTH",
"339 203 OFFCURVE",
"366 213 OFFCURVE",
"399 213 CURVE SMOOTH",
"419 213 OFFCURVE",
"437 210 OFFCURVE",
"453 203 CURVE SMOOTH",
"468 196 OFFCURVE",
"481 184 OFFCURVE",
"492 169 CURVE",
"501 155 OFFCURVE",
"507 139 OFFCURVE",
"510 121 CURVE"
);
},
{
closed = 1;
nodes = (
"450 115 LINE",
"449 131 OFFCURVE",
"443 143 OFFCURVE",
"434 152 CURVE",
"425 160 OFFCURVE",
"413 164 OFFCURVE",
"399 164 CURVE SMOOTH",
"384 164 OFFCURVE",
"372 160 OFFCURVE",
"363 151 CURVE SMOOTH",
"354 142 OFFCURVE",
"349 130 OFFCURVE",
"347 115 CURVE"
);
}
);
width = 512;
}
);
unicode = E04E;
},
{
glyphname = uniE04B;
layers = (
{
layerId = "EEF2BC8D-D964-4B49-BEB0-D3787712A5FD";
name = Regular;
paths = (
{
closed = 1;
nodes = (
"16 416 LINE SMOOTH",
"11 416 OFFCURVE",
"8 415 OFFCURVE",
"5 412 CURVE SMOOTH",
"2 409 OFFCURVE",
"0 405 OFFCURVE",
"0 400 CURVE SMOOTH",
"0 240 LINE SMOOTH",
"0 235 OFFCURVE",
"2 232 OFFCURVE",
"5 229 CURVE SMOOTH",
"8 226 OFFCURVE",
"11 224 OFFCURVE",
"16 224 CURVE SMOOTH",
"176 224 LINE SMOOTH",
"181 224 OFFCURVE",
"185 226 OFFCURVE",
"188 229 CURVE SMOOTH",
"191 232 OFFCURVE",
"192 235 OFFCURVE",
"192 240 CURVE SMOOTH",
"192 400 LINE SMOOTH",
"192 405 OFFCURVE",
"191 409 OFFCURVE",
"188 412 CURVE SMOOTH",
"185 415 OFFCURVE",
"181 416 OFFCURVE",
"176 416 CURVE SMOOTH"
);
},
{
closed = 1;
nodes = (
"16 160 LINE SMOOTH",
"11 160 OFFCURVE",
"8 159 OFFCURVE",
"5 156 CURVE SMOOTH",
"2 153 OFFCURVE",
"0 149 OFFCURVE",
"0 144 CURVE SMOOTH",
"0 -16 LINE SMOOTH",
"0 -21 OFFCURVE",
"2 -24 OFFCURVE",
"5 -27 CURVE SMOOTH",
"8 -30 OFFCURVE",
"11 -32 OFFCURVE",
"16 -32 CURVE SMOOTH",
"176 -32 LINE SMOOTH",
"181 -32 OFFCURVE",
"185 -30 OFFCURVE",
"188 -27 CURVE SMOOTH",
"191 -24 OFFCURVE",
"192 -21 OFFCURVE",
"192 -16 CURVE SMOOTH",
"192 144 LINE SMOOTH",
"192 149 OFFCURVE",
"191 153 OFFCURVE",
"188 156 CURVE SMOOTH",
"185 159 OFFCURVE",
"181 160 OFFCURVE",
"176 160 CURVE SMOOTH"
);
},
{
closed = 1;
nodes = (
"272 416 LINE SMOOTH",
"267 416 OFFCURVE",
"264 415 OFFCURVE",
"261 412 CURVE SMOOTH",
"258 409 OFFCURVE",
"256 405 OFFCURVE",
"256 400 CURVE SMOOTH",
"256 368 LINE SMOOTH",
"256 363 OFFCURVE",
"258 360 OFFCURVE",
"261 357 CURVE SMOOTH",
"264 354 OFFCURVE",
"267 352 OFFCURVE",
"272 352 CURVE SMOOTH",
"496 352 LINE SMOOTH",
"501 352 OFFCURVE",
"505 354 OFFCURVE",
"508 357 CURVE SMOOTH",
"511 360 OFFCURVE",
"512 363 OFFCURVE",
"512 368 CURVE SMOOTH",
"512 400 LINE SMOOTH",
"512 405 OFFCURVE",
"511 409 OFFCURVE",
"508 412 CURVE SMOOTH",
"505 415 OFFCURVE",
"501 416 OFFCURVE",
"496 416 CURVE SMOOTH"
);
},
{
closed = 1;
nodes = (
"272 288 LINE SMOOTH",
"267 288 OFFCURVE",
"264 287 OFFCURVE",
"261 284 CURVE SMOOTH",
"258 281 OFFCURVE",
"256 277 OFFCURVE",
"256 272 CURVE SMOOTH",
"256 240 LINE SMOOTH",
"256 235 OFFCURVE",
"258 232 OFFCURVE",
"261 229 CURVE SMOOTH",
"264 226 OFFCURVE",
"267 224 OFFCURVE",
"272 224 CURVE SMOOTH",
"496 224 LINE SMOOTH",
"501 224 OFFCURVE",
"505 226 OFFCURVE",
"508 229 CURVE SMOOTH",
"511 232 OFFCURVE",
"512 235 OFFCURVE",
"512 240 CURVE SMOOTH",
"512 272 LINE SMOOTH",
"512 277 OFFCURVE",
"511 281 OFFCURVE",
"508 284 CURVE SMOOTH",
"505 287 OFFCURVE",
"501 288 OFFCURVE",
"496 288 CURVE SMOOTH"
);
},
{
closed = 1;
nodes = (
"272 160 LINE SMOOTH",
"267 160 OFFCURVE",
"264 159 OFFCURVE",
"261 156 CURVE SMOOTH",
"258 153 OFFCURVE",
"256 149 OFFCURVE",
"256 144 CURVE SMOOTH",
"256 112 LINE SMOOTH",
"256 107 OFFCURVE",
"258 104 OFFCURVE",
"261 101 CURVE SMOOTH",
"264 98 OFFCURVE",
"267 96 OFFCURVE",
"272 96 CURVE SMOOTH",
"496 96 LINE SMOOTH",
"501 96 OFFCURVE",
"505 98 OFFCURVE",
"508 101 CURVE SMOOTH",
"511 104 OFFCURVE",
"512 107 OFFCURVE",
"512 112 CURVE SMOOTH",
"512 144 LINE SMOOTH",
"512 149 OFFCURVE",
"511 153 OFFCURVE",
"508 156 CURVE SMOOTH",
"505 159 OFFCURVE",
"501 160 OFFCURVE",
"496 160 CURVE SMOOTH"
);
},
{
closed = 1;
nodes = (
"272 32 LINE SMOOTH",
"267 32 OFFCURVE",
"264 31 OFFCURVE",
"261 28 CURVE SMOOTH",
"258 25 OFFCURVE",
"256 21 OFFCURVE",
"256 16 CURVE SMOOTH",
"256 -16 LINE SMOOTH",
"256 -21 OFFCURVE",
"258 -24 OFFCURVE",
"261 -27 CURVE SMOOTH",
"264 -30 OFFCURVE",
"267 -32 OFFCURVE",
"272 -32 CURVE SMOOTH",
"496 -32 LINE SMOOTH",
"501 -32 OFFCURVE",
"505 -30 OFFCURVE",
"508 -27 CURVE SMOOTH",
"511 -24 OFFCURVE",
"512 -21 OFFCURVE",
"512 -16 CURVE SMOOTH",
"512 16 LINE SMOOTH",
"512 21 OFFCURVE",
"511 25 OFFCURVE",
"508 28 CURVE SMOOTH",
"505 31 OFFCURVE",
"501 32 OFFCURVE",
"496 32 CURVE SMOOTH"
);
}
);
width = 512;
}
);
unicode = E04B;
},
{
glyphname = uniE04F;
layers = (
{
layerId = "EEF2BC8D-D964-4B49-BEB0-D3787712A5FD";
name = Regular;
paths = (
{
closed = 1;
nodes = (
"16 416 LINE SMOOTH",
"11 416 OFFCURVE",
"8 415 OFFCURVE",
"5 412 CURVE SMOOTH",
"2 409 OFFCURVE",
"0 405 OFFCURVE",
"0 400 CURVE SMOOTH",
"0 304 LINE SMOOTH",
"0 299 OFFCURVE",
"2 296 OFFCURVE",
"5 293 CURVE SMOOTH",
"8 290 OFFCURVE",
"11 288 OFFCURVE",
"16 288 CURVE SMOOTH",
"112 288 LINE SMOOTH",
"117 288 OFFCURVE",
"121 290 OFFCURVE",
"124 293 CURVE SMOOTH",
"127 296 OFFCURVE",
"128 299 OFFCURVE",
"128 304 CURVE SMOOTH",
"128 400 LINE SMOOTH",
"128 405 OFFCURVE",
"127 409 OFFCURVE",
"124 412 CURVE SMOOTH",
"121 415 OFFCURVE",
"117 416 OFFCURVE",
"112 416 CURVE SMOOTH"
);
},
{
closed = 1;
nodes = (
"16 256 LINE SMOOTH",
"11 256 OFFCURVE",
"8 255 OFFCURVE",
"5 252 CURVE SMOOTH",
"2 249 OFFCURVE",
"0 245 OFFCURVE",
"0 240 CURVE SMOOTH",
"0 144 LINE SMOOTH",
"0 139 OFFCURVE",
"2 136 OFFCURVE",
"5 133 CURVE SMOOTH",
"8 130 OFFCURVE",
"11 128 OFFCURVE",
"16 128 CURVE SMOOTH",
"112 128 LINE SMOOTH",
"117 128 OFFCURVE",
"121 130 OFFCURVE",
"124 133 CURVE SMOOTH",
"127 136 OFFCURVE",
"128 139 OFFCURVE",
"128 144 CURVE SMOOTH",
"128 240 LINE SMOOTH",
"128 245 OFFCURVE",
"127 249 OFFCURVE",
"124 252 CURVE SMOOTH",
"121 255 OFFCURVE",
"117 256 OFFCURVE",
"112 256 CURVE SMOOTH"
);
},
{
closed = 1;
nodes = (
"176 416 LINE SMOOTH",
"171 416 OFFCURVE",
"168 415 OFFCURVE",
"165 412 CURVE SMOOTH",
"162 409 OFFCURVE",
"160 405 OFFCURVE",
"160 400 CURVE SMOOTH",
"160 304 LINE SMOOTH",
"160 299 OFFCURVE",
"162 296 OFFCURVE",
"165 293 CURVE SMOOTH",
"168 290 OFFCURVE",
"171 288 OFFCURVE",
"176 288 CURVE SMOOTH",
"272 288 LINE SMOOTH",
"277 288 OFFCURVE",
"281 290 OFFCURVE",
"284 293 CURVE SMOOTH",
"287 296 OFFCURVE",
"288 299 OFFCURVE",
"288 304 CURVE SMOOTH",
"288 400 LINE SMOOTH",
"288 405 OFFCURVE",
"287 409 OFFCURVE",
"284 412 CURVE SMOOTH",
"281 415 OFFCURVE",
"277 416 OFFCURVE",
"272 416 CURVE SMOOTH"
);
},
{
closed = 1;
nodes = (
"176 256 LINE SMOOTH",
"171 256 OFFCURVE",
"168 255 OFFCURVE",
"165 252 CURVE SMOOTH",
"162 249 OFFCURVE",
"160 245 OFFCURVE",
"160 240 CURVE SMOOTH",
"160 144 LINE SMOOTH",
"160 139 OFFCURVE",
"162 136 OFFCURVE",
"165 133 CURVE SMOOTH",
"168 130 OFFCURVE",
"171 128 OFFCURVE",
"176 128 CURVE SMOOTH",
"272 128 LINE SMOOTH",
"277 128 OFFCURVE",
"281 130 OFFCURVE",
"284 133 CURVE SMOOTH",
"287 136 OFFCURVE",
"288 139 OFFCURVE",
"288 144 CURVE SMOOTH",
"288 240 LINE SMOOTH",
"288 245 OFFCURVE",
"287 249 OFFCURVE",
"284 252 CURVE SMOOTH",
"281 255 OFFCURVE",
"277 256 OFFCURVE",
"272 256 CURVE SMOOTH"
);
},
{
closed = 1;
nodes = (
"336 416 LINE SMOOTH",
"331 416 OFFCURVE",
"328 415 OFFCURVE",
"325 412 CURVE SMOOTH",
"322 409 OFFCURVE",
"320 405 OFFCURVE",
"320 400 CURVE SMOOTH",
"320 304 LINE SMOOTH",
"320 299 OFFCURVE",
"322 296 OFFCURVE",
"325 293 CURVE SMOOTH",
"328 290 OFFCURVE",
"331 288 OFFCURVE",
"336 288 CURVE SMOOTH",
"432 288 LINE SMOOTH",
"437 288 OFFCURVE",
"441 290 OFFCURVE",
"444 293 CURVE SMOOTH",
"447 296 OFFCURVE",
"448 299 OFFCURVE",
"448 304 CURVE SMOOTH",
"448 400 LINE SMOOTH",
"448 405 OFFCURVE",
"447 409 OFFCURVE",
"444 412 CURVE SMOOTH",
"441 415 OFFCURVE",
"437 416 OFFCURVE",
"432 416 CURVE SMOOTH"
);
},
{
closed = 1;
nodes = (
"336 256 LINE SMOOTH",
"331 256 OFFCURVE",
"328 255 OFFCURVE",
"325 252 CURVE SMOOTH",
"322 249 OFFCURVE",
"320 245 OFFCURVE",
"320 240 CURVE SMOOTH",
"320 144 LINE SMOOTH",
"320 139 OFFCURVE",
"322 136 OFFCURVE",
"325 133 CURVE SMOOTH",
"328 130 OFFCURVE",
"331 128 OFFCURVE",
"336 128 CURVE SMOOTH",
"432 128 LINE SMOOTH",
"437 128 OFFCURVE",
"441 130 OFFCURVE",
"444 133 CURVE SMOOTH",
"447 136 OFFCURVE",
"448 139 OFFCURVE",
"448 144 CURVE SMOOTH",
"448 240 LINE SMOOTH",
"448 245 OFFCURVE",
"447 249 OFFCURVE",
"444 252 CURVE SMOOTH",
"441 255 OFFCURVE",
"437 256 OFFCURVE",
"432 256 CURVE SMOOTH"
);
},
{
closed = 1;
nodes = (
"16 96 LINE SMOOTH",
"11 96 OFFCURVE",
"8 95 OFFCURVE",
"5 92 CURVE SMOOTH",
"2 89 OFFCURVE",
"0 85 OFFCURVE",
"0 80 CURVE SMOOTH",
"0 -16 LINE SMOOTH",
"0 -21 OFFCURVE",
"2 -24 OFFCURVE",
"5 -27 CURVE SMOOTH",
"8 -30 OFFCURVE",
"11 -32 OFFCURVE",
"16 -32 CURVE SMOOTH",
"112 -32 LINE SMOOTH",
"117 -32 OFFCURVE",
"121 -30 OFFCURVE",
"124 -27 CURVE SMOOTH",
"127 -24 OFFCURVE",
"128 -21 OFFCURVE",
"128 -16 CURVE SMOOTH",
"128 80 LINE SMOOTH",
"128 85 OFFCURVE",
"127 89 OFFCURVE",
"124 92 CURVE SMOOTH",
"121 95 OFFCURVE",
"117 96 OFFCURVE",
"112 96 CURVE SMOOTH"
);
},
{
closed = 1;
nodes = (
"176 96 LINE SMOOTH",
"171 96 OFFCURVE",
"168 95 OFFCURVE",
"165 92 CURVE SMOOTH",
"162 89 OFFCURVE",
"160 85 OFFCURVE",
"160 80 CURVE SMOOTH",
"160 -16 LINE SMOOTH",
"160 -21 OFFCURVE",
"162 -24 OFFCURVE",
"165 -27 CURVE SMOOTH",
"168 -30 OFFCURVE",
"171 -32 OFFCURVE",
"176 -32 CURVE SMOOTH",
"272 -32 LINE SMOOTH",
"277 -32 OFFCURVE",
"281 -30 OFFCURVE",
"284 -27 CURVE SMOOTH",
"287 -24 OFFCURVE",
"288 -21 OFFCURVE",
"288 -16 CURVE SMOOTH",
"288 80 LINE SMOOTH",
"288 85 OFFCURVE",
"287 89 OFFCURVE",
"284 92 CURVE SMOOTH",
"281 95 OFFCURVE",
"277 96 OFFCURVE",
"272 96 CURVE SMOOTH"
);
},
{
closed = 1;
nodes = (
"336 96 LINE SMOOTH",
"331 96 OFFCURVE",
"328 95 OFFCURVE",
"325 92 CURVE SMOOTH",
"322 89 OFFCURVE",
"320 85 OFFCURVE",
"320 80 CURVE SMOOTH",
"320 -16 LINE SMOOTH",
"320 -21 OFFCURVE",
"322 -24 OFFCURVE",
"325 -27 CURVE SMOOTH",
"328 -30 OFFCURVE",
"331 -32 OFFCURVE",
"336 -32 CURVE SMOOTH",
"432 -32 LINE SMOOTH",
"437 -32 OFFCURVE",
"441 -30 OFFCURVE",
"444 -27 CURVE SMOOTH",
"447 -24 OFFCURVE",
"448 -21 OFFCURVE",
"448 -16 CURVE SMOOTH",
"448 80 LINE SMOOTH",
"448 85 OFFCURVE",
"447 89 OFFCURVE",
"444 92 CURVE SMOOTH",
"441 95 OFFCURVE",
"437 96 OFFCURVE",
"432 96 CURVE SMOOTH"
);
}
);
width = 512;
}
);
unicode = E04F;
},
{
glyphname = uniE050;
layers = (
{
layerId = "EEF2BC8D-D964-4B49-BEB0-D3787712A5FD";
name = Regular;
paths = (
{
closed = 1;
nodes = (
"112 416 LINE SMOOTH",
"107 416 OFFCURVE",
"104 415 OFFCURVE",
"101 412 CURVE SMOOTH",
"98 409 OFFCURVE",
"96 405 OFFCURVE",
"96 400 CURVE SMOOTH",
"96 368 LINE SMOOTH",
"96 363 OFFCURVE",
"98 360 OFFCURVE",
"101 357 CURVE SMOOTH",
"104 354 OFFCURVE",
"107 352 OFFCURVE",
"112 352 CURVE SMOOTH",
"496 352 LINE SMOOTH",
"501 352 OFFCURVE",
"505 354 OFFCURVE",
"508 357 CURVE SMOOTH",
"511 360 OFFCURVE",
"512 363 OFFCURVE",
"512 368 CURVE SMOOTH",
"512 400 LINE SMOOTH",
"512 405 OFFCURVE",
"511 409 OFFCURVE",
"508 412 CURVE SMOOTH",
"505 415 OFFCURVE",
"501 416 OFFCURVE",
"496 416 CURVE SMOOTH"
);
},
{
closed = 1;
nodes = (
"112 288 LINE SMOOTH",
"107 288 OFFCURVE",
"104 287 OFFCURVE",
"101 284 CURVE SMOOTH",
"98 281 OFFCURVE",
"96 277 OFFCURVE",
"96 272 CURVE SMOOTH",
"96 240 LINE SMOOTH",
"96 235 OFFCURVE",
"98 232 OFFCURVE",
"101 229 CURVE SMOOTH",
"104 226 OFFCURVE",
"107 224 OFFCURVE",
"112 224 CURVE SMOOTH",
"496 224 LINE SMOOTH",
"501 224 OFFCURVE",
"505 226 OFFCURVE",
"508 229 CURVE SMOOTH",
"511 232 OFFCURVE",
"512 235 OFFCURVE",
"512 240 CURVE SMOOTH",
"512 272 LINE SMOOTH",
"512 277 OFFCURVE",
"511 281 OFFCURVE",
"508 284 CURVE SMOOTH",
"505 287 OFFCURVE",
"501 288 OFFCURVE",
"496 288 CURVE SMOOTH"
);
},
{
closed = 1;
nodes = (
"112 160 LINE SMOOTH",
"107 160 OFFCURVE",
"104 159 OFFCURVE",
"101 156 CURVE SMOOTH",
"98 153 OFFCURVE",
"96 149 OFFCURVE",
"96 144 CURVE SMOOTH",
"96 112 LINE SMOOTH",
"96 107 OFFCURVE",
"98 104 OFFCURVE",
"101 101 CURVE SMOOTH",
"104 98 OFFCURVE",
"107 96 OFFCURVE",
"112 96 CURVE SMOOTH",
"496 96 LINE SMOOTH",
"501 96 OFFCURVE",
"505 98 OFFCURVE",
"508 101 CURVE SMOOTH",
"511 104 OFFCURVE",
"512 107 OFFCURVE",
"512 112 CURVE SMOOTH",
"512 144 LINE SMOOTH",
"512 149 OFFCURVE",
"511 153 OFFCURVE",
"508 156 CURVE SMOOTH",
"505 159 OFFCURVE",
"501 160 OFFCURVE",
"496 160 CURVE SMOOTH"
);
},
{
closed = 1;
nodes = (
"112 32 LINE SMOOTH",
"107 32 OFFCURVE",
"104 31 OFFCURVE",
"101 28 CURVE SMOOTH",
"98 25 OFFCURVE",
"96 21 OFFCURVE",
"96 16 CURVE SMOOTH",
"96 -16 LINE SMOOTH",
"96 -21 OFFCURVE",
"98 -24 OFFCURVE",
"101 -27 CURVE SMOOTH",
"104 -30 OFFCURVE",
"107 -32 OFFCURVE",
"112 -32 CURVE SMOOTH",
"496 -32 LINE SMOOTH",
"501 -32 OFFCURVE",
"505 -30 OFFCURVE",
"508 -27 CURVE SMOOTH",
"511 -24 OFFCURVE",
"512 -21 OFFCURVE",
"512 -16 CURVE SMOOTH",
"512 16 LINE SMOOTH",
"512 21 OFFCURVE",
"511 25 OFFCURVE",
"508 28 CURVE SMOOTH",
"505 31 OFFCURVE",
"501 32 OFFCURVE",
"496 32 CURVE SMOOTH"
);
},
{
closed = 1;
nodes = (
"16 416 LINE SMOOTH",
"11 416 OFFCURVE",
"8 415 OFFCURVE",
"5 412 CURVE SMOOTH",
"2 409 OFFCURVE",
"0 405 OFFCURVE",
"0 400 CURVE SMOOTH",
"0 368 LINE SMOOTH",
"0 363 OFFCURVE",
"2 360 OFFCURVE",
"5 357 CURVE SMOOTH",
"8 354 OFFCURVE",
"11 352 OFFCURVE",
"16 352 CURVE SMOOTH",
"48 352 LINE SMOOTH",
"53 352 OFFCURVE",
"57 354 OFFCURVE",
"60 357 CURVE SMOOTH",
"63 360 OFFCURVE",
"64 363 OFFCURVE",
"64 368 CURVE SMOOTH",
"64 400 LINE SMOOTH",
"64 405 OFFCURVE",
"63 409 OFFCURVE",
"60 412 CURVE SMOOTH",
"57 415 OFFCURVE",
"53 416 OFFCURVE",
"48 416 CURVE SMOOTH"
);
},
{
closed = 1;
nodes = (
"16 288 LINE SMOOTH",
"11 288 OFFCURVE",
"8 287 OFFCURVE",
"5 284 CURVE SMOOTH",
"2 281 OFFCURVE",
"0 277 OFFCURVE",
"0 272 CURVE SMOOTH",
"0 240 LINE SMOOTH",
"0 235 OFFCURVE",
"2 232 OFFCURVE",
"5 229 CURVE SMOOTH",
"8 226 OFFCURVE",
"11 224 OFFCURVE",
"16 224 CURVE SMOOTH",
"48 224 LINE SMOOTH",
"53 224 OFFCURVE",
"57 226 OFFCURVE",
"60 229 CURVE SMOOTH",
"63 232 OFFCURVE",
"64 235 OFFCURVE",
"64 240 CURVE SMOOTH",
"64 272 LINE SMOOTH",
"64 277 OFFCURVE",
"63 281 OFFCURVE",
"60 284 CURVE SMOOTH",
"57 287 OFFCURVE",
"53 288 OFFCURVE",
"48 288 CURVE SMOOTH"
);
},
{
closed = 1;
nodes = (
"16 160 LINE SMOOTH",
"11 160 OFFCURVE",
"8 159 OFFCURVE",
"5 156 CURVE SMOOTH",
"2 153 OFFCURVE",
"0 149 OFFCURVE",
"0 144 CURVE SMOOTH",
"0 112 LINE SMOOTH",
"0 107 OFFCURVE",
"2 104 OFFCURVE",
"5 101 CURVE SMOOTH",
"8 98 OFFCURVE",
"11 96 OFFCURVE",
"16 96 CURVE SMOOTH",
"48 96 LINE SMOOTH",
"53 96 OFFCURVE",
"57 98 OFFCURVE",
"60 101 CURVE SMOOTH",
"63 104 OFFCURVE",
"64 107 OFFCURVE",
"64 112 CURVE SMOOTH",
"64 144 LINE SMOOTH",
"64 149 OFFCURVE",
"63 153 OFFCURVE",
"60 156 CURVE SMOOTH",
"57 159 OFFCURVE",
"53 160 OFFCURVE",
"48 160 CURVE SMOOTH"
);
},
{
closed = 1;
nodes = (
"16 32 LINE SMOOTH",
"11 32 OFFCURVE",
"8 31 OFFCURVE",
"5 28 CURVE SMOOTH",
"2 25 OFFCURVE",
"0 21 OFFCURVE",
"0 16 CURVE SMOOTH",
"0 -16 LINE SMOOTH",
"0 -21 OFFCURVE",
"2 -24 OFFCURVE",
"5 -27 CURVE SMOOTH",
"8 -30 OFFCURVE",
"11 -32 OFFCURVE",
"16 -32 CURVE SMOOTH",
"48 -32 LINE SMOOTH",
"53 -32 OFFCURVE",
"57 -30 OFFCURVE",
"60 -27 CURVE SMOOTH",
"63 -24 OFFCURVE",
"64 -21 OFFCURVE",
"64 -16 CURVE SMOOTH",
"64 16 LINE SMOOTH",
"64 21 OFFCURVE",
"63 25 OFFCURVE",
"60 28 CURVE SMOOTH",
"57 31 OFFCURVE",
"53 32 OFFCURVE",
"48 32 CURVE SMOOTH"
);
}
);
width = 512;
}
);
unicode = E050;
},
{
glyphname = uniE051;
layers = (
{
layerId = "EEF2BC8D-D964-4B49-BEB0-D3787712A5FD";
name = Regular;
paths = (
{
closed = 1;
nodes = (
"16 480 LINE SMOOTH",
"11 480 OFFCURVE",
"8 479 OFFCURVE",
"5 476 CURVE SMOOTH",
"2 473 OFFCURVE",
"0 469 OFFCURVE",
"0 464 CURVE SMOOTH",
"0 272 LINE SMOOTH",
"0 267 OFFCURVE",
"2 264 OFFCURVE",
"5 261 CURVE SMOOTH",
"8 258 OFFCURVE",
"11 256 OFFCURVE",
"16 256 CURVE SMOOTH",
"208 256 LINE SMOOTH",
"213 256 OFFCURVE",
"217 258 OFFCURVE",
"220 261 CURVE SMOOTH",
"223 264 OFFCURVE",
"224 267 OFFCURVE",
"224 272 CURVE SMOOTH",
"224 464 LINE SMOOTH",
"224 469 OFFCURVE",
"223 473 OFFCURVE",
"220 476 CURVE SMOOTH",
"217 479 OFFCURVE",
"213 480 OFFCURVE",
"208 480 CURVE SMOOTH"
);
},
{
closed = 1;
nodes = (
"304 480 LINE SMOOTH",
"299 480 OFFCURVE",
"296 479 OFFCURVE",
"293 476 CURVE SMOOTH",
"290 473 OFFCURVE",
"288 469 OFFCURVE",
"288 464 CURVE SMOOTH",
"288 272 LINE SMOOTH",
"288 267 OFFCURVE",
"290 264 OFFCURVE",
"293 261 CURVE SMOOTH",
"296 258 OFFCURVE",
"299 256 OFFCURVE",
"304 256 CURVE SMOOTH",
"496 256 LINE SMOOTH",
"501 256 OFFCURVE",
"505 258 OFFCURVE",
"508 261 CURVE SMOOTH",
"511 264 OFFCURVE",
"512 267 OFFCURVE",
"512 272 CURVE SMOOTH",
"512 464 LINE SMOOTH",
"512 469 OFFCURVE",
"511 473 OFFCURVE",
"508 476 CURVE SMOOTH",
"505 479 OFFCURVE",
"501 480 OFFCURVE",
"496 480 CURVE SMOOTH"
);
},
{
closed = 1;
nodes = (
"16 192 LINE SMOOTH",
"11 192 OFFCURVE",
"8 191 OFFCURVE",
"5 188 CURVE SMOOTH",
"2 185 OFFCURVE",
"0 181 OFFCURVE",
"0 176 CURVE SMOOTH",
"0 -16 LINE SMOOTH",
"0 -21 OFFCURVE",
"2 -24 OFFCURVE",
"5 -27 CURVE SMOOTH",
"8 -30 OFFCURVE",
"11 -32 OFFCURVE",
"16 -32 CURVE SMOOTH",
"208 -32 LINE SMOOTH",
"213 -32 OFFCURVE",
"217 -30 OFFCURVE",
"220 -27 CURVE SMOOTH",
"223 -24 OFFCURVE",
"224 -21 OFFCURVE",
"224 -16 CURVE SMOOTH",
"224 176 LINE SMOOTH",
"224 181 OFFCURVE",
"223 185 OFFCURVE",
"220 188 CURVE SMOOTH",
"217 191 OFFCURVE",
"213 192 OFFCURVE",
"208 192 CURVE SMOOTH"
);
},
{
closed = 1;
nodes = (
"304 192 LINE SMOOTH",
"299 192 OFFCURVE",
"296 191 OFFCURVE",
"293 188 CURVE SMOOTH",
"290 185 OFFCURVE",
"288 181 OFFCURVE",
"288 176 CURVE SMOOTH",
"288 -16 LINE SMOOTH",
"288 -21 OFFCURVE",
"290 -24 OFFCURVE",
"293 -27 CURVE SMOOTH",
"296 -30 OFFCURVE",
"299 -32 OFFCURVE",
"304 -32 CURVE SMOOTH",
"496 -32 LINE SMOOTH",
"501 -32 OFFCURVE",
"505 -30 OFFCURVE",
"508 -27 CURVE SMOOTH",
"511 -24 OFFCURVE",
"512 -21 OFFCURVE",
"512 -16 CURVE SMOOTH",
"512 176 LINE SMOOTH",
"512 181 OFFCURVE",
"511 185 OFFCURVE",
"508 188 CURVE SMOOTH",
"505 191 OFFCURVE",
"501 192 OFFCURVE",
"496 192 CURVE SMOOTH"
);
}
);
width = 512;
}
);
unicode = E051;
},
{
glyphname = uniE052;
layers = (
{
layerId = "EEF2BC8D-D964-4B49-BEB0-D3787712A5FD";
name = Regular;
paths = (
{
closed = 1;
nodes = (
"16 416 LINE SMOOTH",
"11 416 OFFCURVE",
"8 415 OFFCURVE",
"5 412 CURVE SMOOTH",
"2 409 OFFCURVE",
"0 405 OFFCURVE",
"0 400 CURVE SMOOTH",
"0 368 LINE SMOOTH",
"0 363 OFFCURVE",
"2 360 OFFCURVE",
"5 357 CURVE SMOOTH",
"8 354 OFFCURVE",
"11 352 OFFCURVE",
"16 352 CURVE SMOOTH",
"496 352 LINE SMOOTH",
"501 352 OFFCURVE",
"505 354 OFFCURVE",
"508 357 CURVE SMOOTH",
"511 360 OFFCURVE",
"512 363 OFFCURVE",
"512 368 CURVE SMOOTH",
"512 400 LINE SMOOTH",
"512 405 OFFCURVE",
"511 409 OFFCURVE",
"508 412 CURVE SMOOTH",
"505 415 OFFCURVE",
"501 416 OFFCURVE",
"496 416 CURVE SMOOTH"
);
},
{
closed = 1;
nodes = (
"16 288 LINE SMOOTH",
"11 288 OFFCURVE",
"8 287 OFFCURVE",
"5 284 CURVE SMOOTH",
"2 281 OFFCURVE",
"0 277 OFFCURVE",
"0 272 CURVE SMOOTH",
"0 240 LINE SMOOTH",
"0 235 OFFCURVE",
"2 232 OFFCURVE",
"5 229 CURVE SMOOTH",
"8 226 OFFCURVE",
"11 224 OFFCURVE",
"16 224 CURVE SMOOTH",
"496 224 LINE SMOOTH",
"501 224 OFFCURVE",
"505 226 OFFCURVE",
"508 229 CURVE SMOOTH",
"511 232 OFFCURVE",
"512 235 OFFCURVE",
"512 240 CURVE SMOOTH",
"512 272 LINE SMOOTH",
"512 277 OFFCURVE",
"511 281 OFFCURVE",
"508 284 CURVE SMOOTH",
"505 287 OFFCURVE",
"501 288 OFFCURVE",
"496 288 CURVE SMOOTH"
);
},
{
closed = 1;
nodes = (
"16 160 LINE SMOOTH",
"11 160 OFFCURVE",
"8 159 OFFCURVE",
"5 156 CURVE SMOOTH",
"2 153 OFFCURVE",
"0 149 OFFCURVE",
"0 144 CURVE SMOOTH",
"0 112 LINE SMOOTH",
"0 107 OFFCURVE",
"2 104 OFFCURVE",
"5 101 CURVE SMOOTH",
"8 98 OFFCURVE",
"11 96 OFFCURVE",
"16 96 CURVE SMOOTH",
"496 96 LINE SMOOTH",
"501 96 OFFCURVE",
"505 98 OFFCURVE",
"508 101 CURVE SMOOTH",
"511 104 OFFCURVE",
"512 107 OFFCURVE",
"512 112 CURVE SMOOTH",
"512 144 LINE SMOOTH",
"512 149 OFFCURVE",
"511 153 OFFCURVE",
"508 156 CURVE SMOOTH",
"505 159 OFFCURVE",
"501 160 OFFCURVE",
"496 160 CURVE SMOOTH"
);
},
{
closed = 1;
nodes = (
"16 32 LINE SMOOTH",
"11 32 OFFCURVE",
"8 31 OFFCURVE",
"5 28 CURVE SMOOTH",
"2 25 OFFCURVE",
"0 21 OFFCURVE",
"0 16 CURVE SMOOTH",
"0 -16 LINE SMOOTH",
"0 -21 OFFCURVE",
"2 -24 OFFCURVE",
"5 -27 CURVE SMOOTH",
"8 -30 OFFCURVE",
"11 -32 OFFCURVE",
"16 -32 CURVE SMOOTH",
"496 -32 LINE SMOOTH",
"501 -32 OFFCURVE",
"505 -30 OFFCURVE",
"508 -27 CURVE SMOOTH",
"511 -24 OFFCURVE",
"512 -21 OFFCURVE",
"512 -16 CURVE SMOOTH",
"512 16 LINE SMOOTH",
"512 21 OFFCURVE",
"511 25 OFFCURVE",
"508 28 CURVE SMOOTH",
"505 31 OFFCURVE",
"501 32 OFFCURVE",
"496 32 CURVE SMOOTH"
);
}
);
width = 512;
}
);
unicode = E052;
},
{
glyphname = uniE053;
layers = (
{
layerId = "EEF2BC8D-D964-4B49-BEB0-D3787712A5FD";
name = Regular;
paths = (
{
closed = 1;
nodes = (
"176 384 LINE SMOOTH",
"171 384 OFFCURVE",
"168 383 OFFCURVE",
"165 380 CURVE SMOOTH",
"162 377 OFFCURVE",
"160 373 OFFCURVE",
"160 368 CURVE SMOOTH",
"160 336 LINE SMOOTH",
"160 331 OFFCURVE",
"162 328 OFFCURVE",
"165 325 CURVE SMOOTH",
"168 322 OFFCURVE",
"171 320 OFFCURVE",
"176 320 CURVE SMOOTH",
"496 320 LINE SMOOTH",
"501 320 OFFCURVE",
"505 322 OFFCURVE",
"508 325 CURVE SMOOTH",
"511 328 OFFCURVE",
"512 331 OFFCURVE",
"512 336 CURVE SMOOTH",
"512 368 LINE SMOOTH",
"512 373 OFFCURVE",
"511 377 OFFCURVE",
"508 380 CURVE SMOOTH",
"505 383 OFFCURVE",
"501 384 OFFCURVE",
"496 384 CURVE SMOOTH"
);
},
{
closed = 1;
nodes = (
"176 224 LINE SMOOTH",
"171 224 OFFCURVE",
"168 223 OFFCURVE",
"165 220 CURVE SMOOTH",
"162 217 OFFCURVE",
"160 213 OFFCURVE",
"160 208 CURVE SMOOTH",
"160 176 LINE SMOOTH",
"160 171 OFFCURVE",
"162 168 OFFCURVE",
"165 165 CURVE SMOOTH",
"168 162 OFFCURVE",
"171 160 OFFCURVE",
"176 160 CURVE SMOOTH",
"496 160 LINE SMOOTH",
"501 160 OFFCURVE",
"505 162 OFFCURVE",
"508 165 CURVE SMOOTH",
"511 168 OFFCURVE",
"512 171 OFFCURVE",
"512 176 CURVE SMOOTH",
"512 208 LINE SMOOTH",
"512 213 OFFCURVE",
"511 217 OFFCURVE",
"508 220 CURVE SMOOTH",
"505 223 OFFCURVE",
"501 224 OFFCURVE",
"496 224 CURVE SMOOTH"
);
},
{
closed = 1;
nodes = (
"176 64 LINE SMOOTH",
"171 64 OFFCURVE",
"168 63 OFFCURVE",
"165 60 CURVE SMOOTH",
"162 57 OFFCURVE",
"160 53 OFFCURVE",
"160 48 CURVE SMOOTH",
"160 16 LINE SMOOTH",
"160 11 OFFCURVE",
"162 8 OFFCURVE",
"165 5 CURVE SMOOTH",
"168 2 OFFCURVE",
"171 0 OFFCURVE",
"176 0 CURVE SMOOTH",
"496 0 LINE SMOOTH",
"501 0 OFFCURVE",
"505 2 OFFCURVE",
"508 5 CURVE SMOOTH",
"511 8 OFFCURVE",
"512 11 OFFCURVE",
"512 16 CURVE SMOOTH",
"512 48 LINE SMOOTH",
"512 53 OFFCURVE",
"511 57 OFFCURVE",
"508 60 CURVE SMOOTH",
"505 63 OFFCURVE",
"501 64 OFFCURVE",
"496 64 CURVE SMOOTH"
);
},
{
closed = 1;
nodes = (
"6 384 OFFCURVE",
"0 369 OFFCURVE",
"0 352 CURVE SMOOTH",
"0 335 OFFCURVE",
"6 320 OFFCURVE",
"19 307 CURVE SMOOTH",
"32 294 OFFCURVE",
"47 288 OFFCURVE",
"64 288 CURVE SMOOTH",
"81 288 OFFCURVE",
"96 294 OFFCURVE",
"109 307 CURVE SMOOTH",
"122 320 OFFCURVE",
"128 335 OFFCURVE",
"128 352 CURVE SMOOTH",
"128 369 OFFCURVE",
"122 384 OFFCURVE",
"109 397 CURVE SMOOTH",
"96 410 OFFCURVE",
"81 416 OFFCURVE",
"64 416 CURVE SMOOTH",
"47 416 OFFCURVE",
"32 410 OFFCURVE",
"19 397 CURVE SMOOTH"
);
},
{
closed = 1;
nodes = (
"6 224 OFFCURVE",
"0 209 OFFCURVE",
"0 192 CURVE SMOOTH",
"0 175 OFFCURVE",
"6 160 OFFCURVE",
"19 147 CURVE SMOOTH",
"32 134 OFFCURVE",
"47 128 OFFCURVE",
"64 128 CURVE SMOOTH",
"81 128 OFFCURVE",
"96 134 OFFCURVE",
"109 147 CURVE SMOOTH",
"122 160 OFFCURVE",
"128 175 OFFCURVE",
"128 192 CURVE SMOOTH",
"128 209 OFFCURVE",
"122 224 OFFCURVE",
"109 237 CURVE SMOOTH",
"96 250 OFFCURVE",
"81 256 OFFCURVE",
"64 256 CURVE SMOOTH",
"47 256 OFFCURVE",
"32 250 OFFCURVE",
"19 237 CURVE SMOOTH"
);
},
{
closed = 1;
nodes = (
"6 64 OFFCURVE",
"0 49 OFFCURVE",
"0 32 CURVE SMOOTH",
"0 15 OFFCURVE",
"6 0 OFFCURVE",
"19 -13 CURVE SMOOTH",
"32 -26 OFFCURVE",
"47 -32 OFFCURVE",
"64 -32 CURVE SMOOTH",
"81 -32 OFFCURVE",
"96 -26 OFFCURVE",
"109 -13 CURVE SMOOTH",
"122 0 OFFCURVE",
"128 15 OFFCURVE",
"128 32 CURVE SMOOTH",
"128 49 OFFCURVE",
"122 64 OFFCURVE",
"109 77 CURVE SMOOTH",
"96 90 OFFCURVE",
"81 96 OFFCURVE",
"64 96 CURVE SMOOTH",
"47 96 OFFCURVE",
"32 90 OFFCURVE",
"19 77 CURVE SMOOTH"
);
}
);
width = 512;
}
);
unicode = E053;
},
{
glyphname = uniF000;
layers = (
{
layerId = "EEF2BC8D-D964-4B49-BEB0-D3787712A5FD";
name = Regular;
paths = (
{
closed = 1;
nodes = (
"0 480 LINE",
"512 -32 LINE",
"0 -32 LINE"
);
}
